<?xml version="1.0" encoding="UTF-8" standalone="no"?>
<!DOCTYPE svg PUBLIC "-//W3C//DTD SVG 1.1//EN" "http://www.w3.org/Graphics/SVG/1.1/DTD/svg11.dtd">
<svg xmlns="http://www.w3.org/2000/svg" version="1.1" viewBox="0.00 0.00 2423.00 817.00">
<g stroke-width="2.00" fill="none" stroke-linecap="butt">
<path stroke="#808080" vector-effect="non-scaling-stroke" d="
  M 264.09 343.49
  Q 262.16 343.32 261.58 343.81
  Q 260.71 344.54 261.15 345.58
  Q 263.80 351.78 264.64 358.60
  Q 266.34 372.36 274.27 383.72
  Q 277.93 388.96 283.78 399.50
  C 301.64 431.69 332.56 454.55 366.46 468.04
  Q 375.38 471.59 384.51 474.76
  Q 385.00 474.93 385.03 475.44
  Q 386.50 503.29 393.58 530.20
  Q 395.62 537.92 395.83 541.94
  C 396.25 549.87 394.25 555.23 390.29 562.58
  C 383.01 576.13 378.96 591.88 377.34 607.15
  C 374.83 630.72 375.57 654.54 376.87 678.17
  C 377.12 682.76 375.99 685.45 371.14 685.81
  C 347.40 687.59 328.74 702.62 313.47 719.53
  C 299.19 735.36 286.55 745.58 263.78 742.49
  Q 260.88 742.09 257.68 743.40
  C 247.82 747.44 253.09 756.65 255.89 763.08
  C 259.34 771.02 258.02 777.21 256.63 786.23
  Q 255.38 794.40 256.21 797.77
  C 259.19 809.77 273.50 811.53 283.32 808.32
  A 1.03 1.03 0.0 0 0 283.47 806.43
  C 272.05 800.57 279.75 785.57 284.05 777.84
  Q 285.69 774.91 288.49 772.54
  C 309.01 755.21 333.76 742.37 358.51 732.24
  Q 381.09 723.00 403.76 713.99
  C 410.14 711.45 412.85 706.07 414.66 699.12
  Q 427.06 651.42 433.51 628.51
  Q 434.45 625.16 437.51 623.16
  C 440.04 621.49 442.53 622.74 444.59 624.42
  C 457.80 635.23 472.41 643.48 487.06 652.11
  C 489.38 653.47 490.64 655.24 489.91 657.88
  Q 489.53 659.25 487.25 661.61
  Q 472.15 677.22 469.08 698.36
  Q 468.51 702.30 468.53 714.72
  Q 468.57 741.49 461.46 767.35
  Q 460.34 771.40 458.87 775.08
  C 456.09 782.05 446.54 797.51 460.73 799.42
  Q 464.23 799.89 466.26 799.53
  Q 476.66 797.69 484.01 798.98
  C 490.77 800.16 499.04 804.47 505.69 804.75
  Q 515.75 805.16 522.82 797.57
  C 524.49 795.77 523.53 793.75 521.20 793.16
  C 508.61 790.00 492.15 786.20 484.84 774.16
  A 1.38 1.37 -56.3 0 1 484.66 773.23
  C 486.50 761.65 490.91 750.33 495.38 739.53
  C 507.00 711.44 520.42 684.27 532.66 656.47
  C 534.27 652.81 536.76 647.95 536.00 643.87
  C 533.91 632.74 524.86 621.16 516.60 612.38
  C 503.88 598.85 489.32 587.42 474.48 576.27
  A 1.28 1.27 -76.0 0 1 473.99 575.45
  C 472.48 565.23 471.28 553.72 474.76 543.75
  Q 477.12 536.99 483.90 515.46
  Q 485.54 510.26 486.35 504.82
  Q 486.42 504.34 486.90 504.39
  Q 500.16 505.89 513.51 506.27
  Q 533.60 506.84 551.32 497.60
  Q 568.49 488.63 582.06 474.80
  Q 583.61 473.22 584.65 472.83
  C 590.35 470.72 596.34 469.52 600.34 464.57
  Q 605.88 457.71 609.86 447.87
  Q 610.64 445.93 609.55 444.68"
/>
<path stroke="#85c0e0" vector-effect="non-scaling-stroke" d="
  M 609.55 444.68
  C 746.71 352.25 749.12 155.24 616.53 58.36
  C 527.44 -6.74 402.63 0.97 321.41 75.15
  C 246.45 143.62 224.03 250.10 264.09 343.49"
/>
<path stroke="#064060" vector-effect="non-scaling-stroke" d="
  M 609.55 444.68
  C 602.22 443.38 597.29 451.78 592.42 455.31
  Q 592.03 455.59 591.56 455.63
  C 586.36 456.09 576.32 457.84 573.64 463.58
  Q 573.42 464.06 572.94 464.25
  C 559.59 469.63 545.37 473.45 531.56 477.75
  Q 531.08 477.90 530.62 477.70
  Q 513.71 470.31 495.37 468.76
  C 491.13 468.41 487.82 466.09 484.31 463.90"
/>
<path stroke="#569dd1" vector-effect="non-scaling-stroke" d="
  M 484.31 463.90
  Q 506.25 463.25 527.18 458.44
  Q 527.88 458.28 527.24 457.96
  L 515.08 451.89"
/>
<path stroke="#85c0e0" vector-effect="non-scaling-stroke" d="
  M 515.08 451.89
  Q 501.24 444.05 489.17 434.59
  A 0.64 0.64 0.0 0 1 489.02 433.76
  Q 494.92 423.67 493.46 412.02
  A 0.27 0.27 0.0 0 1 493.91 411.78
  Q 512.03 427.60 533.66 438.38
  Q 537.06 440.08 540.24 440.92"
/>
<path stroke="#569dd1" vector-effect="non-scaling-stroke" d="
  M 540.24 440.92
  Q 550.45 445.32 558.85 445.34"
/>
<path stroke="#85c0e0" vector-effect="non-scaling-stroke" d="
  M 558.85 445.34
  Q 564.72 445.89 568.00 444.56
  Q 575.18 441.65 584.10 436.33"
/>
<path stroke="#569dd1" vector-effect="non-scaling-stroke" d="
  M 584.10 436.33
  L 601.62 425.47"
/>
<path stroke="#85c0e0" vector-effect="non-scaling-stroke" d="
  M 601.62 425.47
  C 684.61 367.45 716.63 260.84 677.80 166.93"
/>
<path stroke="#569dd1" vector-effect="non-scaling-stroke" d="
  M 677.80 166.93
  Q 672.32 153.56 664.93 141.12
  Q 662.59 137.18 659.92 135.43
  Q 655.30 132.38 648.95 131.64"
/>
<path stroke="#85c0e0" vector-effect="non-scaling-stroke" d="
  M 648.95 131.64
  Q 639.52 129.92 628.49 130.68
  C 597.76 132.79 566.76 141.85 538.02 152.57
  Q 448.21 186.07 368.94 239.98
  Q 368.52 240.27 368.74 240.74
  Q 400.81 309.50 449.58 367.55
  C 451.76 370.15 455.47 374.05 458.27 377.42
  Q 458.78 378.03 457.99 378.00
  Q 446.63 377.56 437.39 384.00
  Q 436.97 384.30 436.64 383.90
  C 402.84 343.99 374.82 300.09 352.10 252.97
  Q 351.86 252.48 351.42 252.81
  C 330.38 268.24 308.68 286.82 292.97 307.79
  A 1.25 1.24 59.7 0 0 292.73 308.71
  Q 295.54 329.69 302.62 349.59"
/>
<path stroke="#569dd1" vector-effect="non-scaling-stroke" d="
  M 302.62 349.59
  L 307.87 362.86"
/>
<path stroke="#85c0e0" vector-effect="non-scaling-stroke" d="
  M 307.87 362.86
  Q 318.00 386.60 334.27 406.02
  C 339.61 412.40 345.89 417.29 352.55 422.53"
/>
<path stroke="#064060" vector-effect="non-scaling-stroke" d="
  M 352.55 422.53
  L 339.92 419.86
  Q 339.43 419.75 339.09 419.38
  Q 335.18 415.03 330.91 412.09
  C 319.14 403.98 304.99 395.68 293.14 385.62
  C 292.13 384.76 291.58 383.77 291.73 382.33
  Q 292.32 376.70 289.51 372.37
  Q 289.02 371.60 283.90 366.72
  C 279.49 362.51 277.28 357.89 274.54 352.10
  C 272.22 347.18 269.16 344.57 264.09 343.49"
/>
<path stroke="#d0ddf0" vector-effect="non-scaling-stroke" d="
  M 648.95 131.64
  Q 657.03 149.37 661.76 167.95
  Q 661.89 168.45 661.57 168.86
  Q 644.78 190.44 622.04 209.56
  Q 592.39 234.49 559.55 254.87
  A 0.38 0.38 0.0 0 1 559.01 254.72
  Q 538.34 214.29 512.01 177.32
  Q 511.64 176.80 511.06 177.05
  L 499.80 181.92
  A 0.33 0.32 60.4 0 0 499.67 182.40
  Q 526.80 220.15 547.92 261.56
  A 0.52 0.51 -29.0 0 1 547.72 262.23
  Q 491.46 296.32 430.34 320.65
  A 0.50 0.49 61.6 0 0 430.12 321.40
  L 437.20 331.23
  A 0.75 0.75 0.0 0 0 438.10 331.49
  Q 498.10 307.40 553.42 273.92
  Q 553.84 273.66 554.06 274.11
  Q 567.48 301.78 577.15 331.07
  C 584.81 354.29 590.34 378.89 590.73 403.41
  Q 590.74 404.14 590.21 404.64
  Q 567.84 425.89 540.24 440.92"
/>
<path stroke="#d0ddf0" vector-effect="non-scaling-stroke" d="
  M 515.08 451.89
  Q 497.01 458.56 478.08 461.29"
/>
<path stroke="#808080" vector-effect="non-scaling-stroke" d="
  M 478.08 461.29
  Q 470.40 458.36 460.30 456.53
  Q 458.74 456.24 459.19 454.72
  L 460.98 448.73
  Q 461.13 448.21 461.64 448.03
  C 482.21 440.85 490.31 412.87 475.07 396.55
  C 467.04 387.95 454.12 385.28 444.07 391.87
  C 432.47 399.46 429.50 414.08 433.24 427.08
  Q 434.41 431.15 435.60 435.19
  Q 435.75 435.72 435.56 436.24
  L 432.53 444.68
  Q 432.36 445.16 431.88 445.02
  Q 418.87 441.37 405.43 439.82
  Q 402.99 439.54 400.82 438.36
  Q 385.40 429.96 368.23 426.11
  Q 359.93 424.25 352.55 422.53"
/>
<path stroke="#d0ddf0" vector-effect="non-scaling-stroke" d="
  M 307.87 362.86
  C 336.28 362.94 365.10 356.40 391.88 347.93
  A 0.54 0.54 0.0 0 0 392.16 347.11
  L 385.13 336.84
  Q 384.85 336.45 384.39 336.59
  C 358.54 344.66 329.85 351.13 302.62 349.59"
/>
<path stroke="#d0ddf0" vector-effect="non-scaling-stroke" d="
  M 677.80 166.93
  L 675.97 170.17
  Q 675.72 170.61 675.83 171.12
  C 693.92 257.65 664.96 346.89 603.81 409.64
  Q 603.46 409.99 603.40 410.49
  L 601.62 425.47"
/>
<path stroke="#d0ddf0" vector-effect="non-scaling-stroke" d="
  M 584.10 436.33
  L 588.46 424.23
  A 0.23 0.23 0.0 0 0 588.09 423.97
  Q 574.42 435.32 558.85 445.34"
/>
<path stroke="#505d71" vector-effect="non-scaling-stroke" d="
  M 478.08 461.29
  L 484.31 463.90"
/>
<path stroke="#85c0e0" vector-effect="non-scaling-stroke" d="
  M 2051.91 617.37
  C 2115.76 606.93 2163.91 565.73 2155.46 495.50
  C 2152.40 470.10 2141.61 450.85 2121.89 435.52
  C 2094.45 414.19 2060.01 403.32 2029.27 389.52
  C 2011.11 381.36 1994.96 370.77 1996.63 347.98
  C 1998.13 327.41 2015.99 315.94 2035.00 314.09
  C 2065.72 311.10 2095.57 319.12 2124.28 329.28
  A 0.92 0.92 0.0 0 0 2125.45 328.74
  L 2147.80 269.74
  Q 2148.33 268.35 2146.94 267.84
  Q 2120.58 258.21 2093.74 252.80
  Q 2062.11 246.42 2026.73 250.78
  C 1977.20 256.88 1931.40 283.86 1922.93 336.90
  Q 1919.31 359.55 1923.78 380.01
  C 1929.72 407.17 1949.04 429.81 1972.63 443.57
  C 1980.17 447.97 1991.82 454.09 2000.49 457.50
  Q 2021.85 465.91 2047.96 477.82
  C 2064.33 485.28 2081.85 497.54 2081.32 517.52
  C 2080.73 539.62 2065.25 550.91 2044.98 554.62
  Q 2025.47 558.19 2005.74 556.07
  C 1977.30 553.01 1949.52 544.28 1923.08 534.00
  A 0.77 0.76 9.8 0 0 1922.04 534.73
  L 1924.03 604.23
  A 1.25 1.24 10.5 0 0 1924.80 605.35
  C 1958.61 619.16 1995.85 622.99 2032.04 619.78
  Q 2043.25 618.79 2051.91 617.37"
/>
<path stroke="#85c0e0" vector-effect="non-scaling-stroke" d="
  M 794.74 529.49
  A 0.34 0.34 0.0 0 1 795.06 529.25
  L 925.16 529.25
  A 0.34 0.34 0.0 0 1 925.48 529.49
  L 951.37 614.51
  A 0.34 0.34 0.0 0 0 951.69 614.75
  L 1033.35 614.75
  A 0.34 0.34 0.0 0 0 1033.67 614.30
  L 906.61 254.23
  A 0.34 0.34 0.0 0 0 906.29 254.00
  L 813.44 253.99
  A 0.34 0.34 0.0 0 0 813.12 254.22
  L 686.55 614.30
  A 0.34 0.34 0.0 0 0 686.87 614.75
  L 768.51 614.75
  A 0.34 0.34 0.0 0 0 768.83 614.51
  L 794.74 529.49"
/>
<path stroke="#85c0e0" vector-effect="non-scaling-stroke" d="
  M 1783.06 529.25
  A 0.40 0.40 0.0 0 1 1783.45 529.53
  L 1809.31 614.47
  A 0.40 0.40 0.0 0 0 1809.70 614.75
  L 1891.19 614.75
  A 0.40 0.40 0.0 0 0 1891.57 614.22
  L 1764.58 254.27
  A 0.40 0.40 0.0 0 0 1764.21 254.00
  L 1671.41 253.98
  A 0.40 0.40 0.0 0 0 1671.04 254.25
  L 1544.52 614.22
  A 0.40 0.40 0.0 0 0 1544.89 614.75
  L 1626.41 614.75
  A 0.40 0.40 0.0 0 0 1626.80 614.47
  L 1652.64 529.53
  A 0.40 0.40 0.0 0 1 1653.03 529.25
  L 1783.06 529.25"
/>
<path stroke="#85c0e0" vector-effect="non-scaling-stroke" d="
  M 1082.82 319.00
  A 0.43 0.43 0.0 0 1 1083.25 319.43
  L 1083.25 614.32
  A 0.43 0.43 0.0 0 0 1083.68 614.75
  L 1159.07 614.75
  A 0.43 0.43 0.0 0 0 1159.50 614.32
  L 1159.50 319.43
  A 0.43 0.43 0.0 0 1 1159.93 319.00
  L 1256.57 319.00
  A 0.43 0.43 0.0 0 0 1257.00 318.57
  L 1257.00 255.92
  A 0.43 0.43 0.0 0 0 1256.57 255.49
  L 986.18 255.49
  A 0.43 0.43 0.0 0 0 985.75 255.92
  L 985.75 318.57
  A 0.43 0.43 0.0 0 0 986.18 319.00
  L 1082.82 319.00"
/>
<path stroke="#85c0e0" vector-effect="non-scaling-stroke" d="
  M 1380.06 551.74
  A 0.31 0.31 0.0 0 1 1379.75 551.43
  L 1379.75 255.81
  A 0.31 0.31 0.0 0 0 1379.44 255.50
  L 1303.81 255.50
  A 0.31 0.31 0.0 0 0 1303.50 255.81
  L 1303.50 614.44
  A 0.31 0.31 0.0 0 0 1303.81 614.75
  L 1525.19 614.75
  A 0.31 0.31 0.0 0 0 1525.50 614.44
  L 1525.50 552.06
  A 0.31 0.31 0.0 0 0 1525.19 551.75
  L 1380.06 551.74"
/>
<path stroke="#808080" vector-effect="non-scaling-stroke" d="
  M 708.25 689.85
  A 0.35 0.35 0.0 0 1 708.60 689.50
  L 760.90 689.50
  A 0.35 0.35 0.0 0 0 761.25 689.15
  L 761.25 671.35
  A 0.35 0.35 0.0 0 0 760.90 671.00
  L 686.85 671.00
  A 0.35 0.35 0.0 0 0 686.50 671.35
  L 686.50 803.40
  A 0.35 0.35 0.0 0 0 686.85 803.75
  L 760.90 803.75
  A 0.35 0.35 0.0 0 0 761.25 803.40
  L 761.25 785.60
  A 0.35 0.35 0.0 0 0 760.90 785.25
  L 708.60 785.25
  A 0.35 0.35 0.0 0 1 708.25 784.90
  L 708.25 744.10
  A 0.35 0.35 0.0 0 1 708.60 743.75
  L 757.65 743.75
  A 0.35 0.35 0.0 0 0 758.00 743.40
  L 758.00 725.85
  A 0.35 0.35 0.0 0 0 757.65 725.50
  L 708.60 725.50
  A 0.35 0.35 0.0 0 1 708.25 725.15
  L 708.25 689.85"
/>
<path stroke="#808080" vector-effect="non-scaling-stroke" d="
  M 872.90 720.47
  A 0.34 0.34 0.0 0 1 872.32 720.47
  L 842.38 671.16
  A 0.34 0.34 0.0 0 0 842.09 671.00
  L 818.50 671.00
  A 0.34 0.34 0.0 0 0 818.22 671.52
  L 858.78 734.82
  A 0.34 0.34 0.0 0 1 858.78 735.18
  L 815.47 803.23
  A 0.34 0.34 0.0 0 0 815.76 803.75
  L 838.47 803.75
  A 0.34 0.34 0.0 0 0 838.76 803.59
  L 871.42 750.30
  A 0.34 0.34 0.0 0 1 872.00 750.31
  L 904.41 803.59
  A 0.34 0.34 0.0 0 0 904.70 803.75
  L 929.08 803.75
  A 0.34 0.34 0.0 0 0 929.37 803.22
  L 885.46 735.53
  A 0.34 0.34 0.0 0 1 885.46 735.17
  L 926.30 671.52
  A 0.34 0.34 0.0 0 0 926.02 671.00
  L 903.14 671.00
  A 0.34 0.34 0.0 0 0 902.85 671.16
  L 872.90 720.47"
/>
<path stroke="#808080" vector-effect="non-scaling-stroke" d="
  M 1008.72 754.30
  C 1019.90 754.17 1030.65 754.66 1041.66 752.16
  C 1057.31 748.61 1070.08 738.09 1073.17 721.43
  C 1075.43 709.20 1073.92 695.33 1066.07 685.63
  C 1057.43 674.94 1042.01 671.18 1028.73 671.04
  Q 1013.67 670.88 986.97 671.05
  Q 986.50 671.05 986.50 671.52
  L 986.50 803.50
  Q 986.50 803.75 986.75 803.75
  L 1007.75 803.75
  Q 1008.25 803.75 1008.25 803.25
  L 1008.25 754.78
  Q 1008.25 754.31 1008.72 754.30"
/>
<path stroke="#808080" vector-effect="non-scaling-stroke" d="
  M 1160.75 744.12
  A 0.37 0.37 0.0 0 1 1161.12 743.75
  L 1210.13 743.75
  A 0.37 0.37 0.0 0 0 1210.50 743.38
  L 1210.50 725.87
  A 0.37 0.37 0.0 0 0 1210.13 725.50
  L 1161.12 725.50
  A 0.37 0.37 0.0 0 1 1160.75 725.13
  L 1160.75 689.87
  A 0.37 0.37 0.0 0 1 1161.12 689.50
  L 1213.38 689.50
  A 0.37 0.37 0.0 0 0 1213.75 689.13
  L 1213.75 671.37
  A 0.37 0.37 0.0 0 0 1213.38 671.00
  L 1139.37 671.00
  A 0.37 0.37 0.0 0 0 1139.00 671.37
  L 1139.00 803.38
  A 0.37 0.37 0.0 0 0 1139.37 803.75
  L 1213.38 803.75
  A 0.37 0.37 0.0 0 0 1213.75 803.38
  L 1213.75 785.62
  A 0.37 0.37 0.0 0 0 1213.38 785.25
  L 1161.12 785.25
  A 0.37 0.37 0.0 0 1 1160.75 784.88
  L 1160.75 744.12"
/>
<path stroke="#808080" vector-effect="non-scaling-stroke" d="
  M 1304.75 751.00
  L 1324.90 751.00
  Q 1325.41 751.00 1325.67 751.44
  L 1356.51 803.21
  Q 1356.83 803.75 1357.47 803.75
  L 1380.93 803.75
  Q 1381.75 803.75 1381.31 803.06
  L 1344.90 745.64
  A 0.49 0.48 62.5 0 1 1345.12 744.93
  Q 1375.34 732.07 1368.72 698.79
  C 1364.51 677.63 1343.60 671.41 1324.73 671.04
  Q 1315.40 670.85 1282.96 671.06
  Q 1282.50 671.06 1282.50 671.52
  L 1282.50 803.50
  Q 1282.50 803.75 1282.75 803.75
  L 1303.75 803.75
  Q 1304.25 803.75 1304.25 803.25
  L 1304.25 751.50
  Q 1304.25 751.00 1304.75 751.00"
/>
<path stroke="#808080" vector-effect="non-scaling-stroke" d="
  M 1464.99 671.31
  A 0.30 0.30 0.0 0 0 1464.69 671.01
  L 1443.55 671.01
  A 0.30 0.30 0.0 0 0 1443.25 671.31
  L 1443.25 803.45
  A 0.30 0.30 0.0 0 0 1443.55 803.75
  L 1464.69 803.75
  A 0.30 0.30 0.0 0 0 1464.99 803.45
  L 1464.99 671.31"
/>
<path stroke="#808080" vector-effect="non-scaling-stroke" d="
  M 1656.34 693.55
  C 1654.45 730.02 1654.91 757.34 1655.04 803.26
  Q 1655.05 803.75 1655.53 803.75
  L 1675.38 803.75
  Q 1676.00 803.75 1676.00 803.12
  L 1676.00 671.75
  Q 1676.00 671.00 1675.25 671.00
  L 1645.77 671.00
  Q 1645.33 671.00 1645.19 671.41
  L 1607.77 776.12
  A 0.28 0.28 0.0 0 1 1607.24 776.12
  L 1570.94 671.50
  A 0.74 0.74 0.0 0 0 1570.24 671.00
  L 1540.50 671.00
  A 0.50 0.50 0.0 0 0 1540.00 671.50
  L 1540.00 803.25
  Q 1540.00 803.75 1540.50 803.75
  L 1559.48 803.75
  A 0.53 0.53 0.0 0 0 1560.01 803.23
  C 1560.05 766.66 1560.64 729.97 1558.47 693.47
  A 0.25 0.25 0.0 0 1 1558.96 693.37
  L 1596.91 803.33
  Q 1597.06 803.75 1597.51 803.75
  L 1615.94 803.75
  Q 1616.43 803.75 1616.60 803.29
  L 1655.91 693.46
  A 0.22 0.22 0.0 0 1 1656.34 693.55"
/>
<path stroke="#808080" vector-effect="non-scaling-stroke" d="
  M 1773.00 689.87
  A 0.37 0.37 0.0 0 1 1773.37 689.50
  L 1825.63 689.50
  A 0.37 0.37 0.0 0 0 1826.00 689.13
  L 1826.00 671.37
  A 0.37 0.37 0.0 0 0 1825.63 671.00
  L 1751.62 671.00
  A 0.37 0.37 0.0 0 0 1751.25 671.37
  L 1751.25 803.38
  A 0.37 0.37 0.0 0 0 1751.62 803.75
  L 1825.63 803.75
  A 0.37 0.37 0.0 0 0 1826.00 803.38
  L 1826.00 785.62
  A 0.37 0.37 0.0 0 0 1825.63 785.25
  L 1773.37 785.25
  A 0.37 0.37 0.0 0 1 1773.00 784.88
  L 1773.00 744.12
  A 0.37 0.37 0.0 0 1 1773.37 743.75
  L 1822.38 743.75
  A 0.37 0.37 0.0 0 0 1822.75 743.38
  L 1822.75 725.87
  A 0.37 0.37 0.0 0 0 1822.38 725.50
  L 1773.37 725.50
  A 0.37 0.37 0.0 0 1 1773.00 725.13
  L 1773.00 689.87"
/>
<path stroke="#808080" vector-effect="non-scaling-stroke" d="
  M 1913.04 699.00
  Q 1912.96 697.95 1913.51 698.84
  Q 1945.22 750.50 1976.88 802.33
  Q 1977.83 803.89 1980.75 803.92
  Q 1992.68 804.03 2004.29 803.91
  Q 2004.95 803.90 2004.95 803.24
  L 2004.94 671.60
  Q 2004.94 671.00 2004.34 671.00
  L 1985.05 671.00
  Q 1984.59 671.00 1984.59 671.46
  C 1984.47 706.03 1984.12 740.68 1985.80 775.09
  Q 1985.85 775.98 1985.38 775.22
  L 1921.60 671.52
  Q 1921.28 671.00 1920.67 671.00
  L 1895.03 671.00
  Q 1894.56 671.00 1894.56 671.47
  L 1894.56 803.46
  A 0.49 0.49 0.0 0 0 1895.05 803.95
  L 1914.22 803.93
  A 0.51 0.50 0.0 0 0 1914.73 803.43
  C 1914.77 768.61 1915.61 733.20 1913.04 699.00"
/>
<path stroke="#808080" vector-effect="non-scaling-stroke" d="
  M 2120.00 690.57
  A 0.63 0.63 0.0 0 1 2120.63 689.94
  L 2158.32 689.93
  A 0.63 0.63 0.0 0 0 2158.95 689.30
  L 2158.93 671.63
  A 0.63 0.63 0.0 0 0 2158.30 671.00
  L 2059.89 671.00
  A 0.63 0.63 0.0 0 0 2059.26 671.63
  L 2059.26 689.31
  A 0.63 0.63 0.0 0 0 2059.89 689.94
  L 2097.44 689.94
  A 0.63 0.63 0.0 0 1 2098.07 690.57
  L 2098.06 803.32
  A 0.63 0.63 0.0 0 0 2098.69 803.95
  L 2119.37 803.92
  A 0.63 0.63 0.0 0 0 2120.00 803.29
  L 2120.00 690.57"
/>
<path stroke="#569dd1" vector-effect="non-scaling-stroke" d="
  M 401.62 68.54
  L 389.72 76.83"
/>
<path stroke="#85c0e0" vector-effect="non-scaling-stroke" d="
  M 389.72 76.83
  Q 358.54 100.25 336.10 132.87
  A 1.29 1.29 0.0 0 0 335.89 133.75
  Q 341.99 179.04 360.20 220.93
  Q 360.41 221.43 360.86 221.13
  Q 437.15 169.70 523.00 136.53
  Q 558.59 122.78 594.99 114.91
  Q 615.47 110.48 637.34 110.38"
/>
<path stroke="#569dd1" vector-effect="non-scaling-stroke" d="
  M 637.34 110.38
  L 642.73 110.66
  Q 643.31 110.69 642.95 110.24
  Q 632.25 97.09 618.94 86.16"
/>
<path stroke="#85c0e0" vector-effect="non-scaling-stroke" d="
  M 618.94 86.16
  Q 575.11 48.36 518.27 37.86
  Q 509.81 36.29 501.61 36.45
  C 466.01 37.15 431.23 49.00 401.62 68.54"
/>
<path stroke="#d0ddf0" vector-effect="non-scaling-stroke" d="
  M 618.94 86.16
  Q 628.83 97.93 637.34 110.38"
/>
<path stroke="#d0ddf0" vector-effect="non-scaling-stroke" d="
  M 389.72 76.83
  C 420.50 93.06 447.29 118.18 469.61 144.46
  A 0.93 0.92 -32.3 0 0 470.70 144.70
  L 481.97 139.62
  A 0.39 0.39 0.0 0 0 482.11 139.02
  Q 461.15 114.05 436.41 92.85
  Q 420.19 78.96 401.62 68.54"
/>
<path stroke="#569dd1" vector-effect="non-scaling-stroke" d="
  M 379.71 58.88
  L 363.06 68.74"
/>
<path stroke="#85c0e0" vector-effect="non-scaling-stroke" d="
  M 363.06 68.74
  Q 356.39 72.83 349.64 77.85
  C 340.07 84.96 336.14 99.02 335.89 110.67
  Q 335.87 111.22 336.22 110.79
  Q 353.75 89.00 375.57 71.28"
/>
<path stroke="#569dd1" vector-effect="non-scaling-stroke" d="
  M 375.57 71.28
  L 387.71 62.19"
/>
<path stroke="#85c0e0" vector-effect="non-scaling-stroke" d="
  M 387.71 62.19
  Q 399.07 54.33 411.80 47.60
  Q 417.09 44.80 422.37 42.15
  A 0.11 0.10 23.1 0 0 422.29 41.96
  Q 400.23 48.02 379.71 58.88"
/>
<path stroke="#d0ddf0" vector-effect="non-scaling-stroke" d="
  M 387.71 62.19
  L 379.71 58.88"
/>
<path stroke="#d0ddf0" vector-effect="non-scaling-stroke" d="
  M 375.57 71.28
  L 363.06 68.74"
/>
<path stroke="#85c0e0" vector-effect="non-scaling-stroke" d="
  M 284.92 157.94
  Q 252.56 227.70 271.42 303.07
  Q 271.56 303.63 271.89 303.15
  L 277.86 294.42
  Q 278.17 293.97 278.13 293.44
  C 274.58 239.55 288.52 185.80 316.30 139.56
  Q 316.57 139.11 316.50 138.59
  Q 314.78 124.95 315.51 111.23
  Q 315.55 110.47 315.06 111.05
  Q 296.61 132.74 284.92 157.94"
/>
<path stroke="#85c0e0" vector-effect="non-scaling-stroke" d="
  M 319.38 160.69
  C 300.08 196.59 290.41 238.23 290.42 278.66
  Q 290.42 279.34 290.89 278.85
  Q 314.95 254.10 342.98 233.94
  A 0.83 0.81 60.7 0 0 343.25 232.95
  Q 328.10 197.98 319.88 160.76
  Q 319.72 160.05 319.38 160.69"
/>
<path stroke="#85c0e0" vector-effect="non-scaling-stroke" d="
  M 282.31 334.54
  C 283.84 338.01 285.40 341.80 287.31 345.05
  A 0.04 0.04 0.0 0 0 287.38 345.02
  L 282.67 326.99
  A 0.16 0.16 0.0 0 0 282.36 326.99
  C 281.65 329.66 281.11 331.82 282.31 334.54"
/>
<path stroke="#d0ddf0" vector-effect="non-scaling-stroke" d="
  M 603.49 390.87
  C 652.70 335.61 676.98 259.32 665.44 185.77
  Q 665.34 185.11 664.90 185.62
  C 656.76 195.07 648.21 203.94 638.62 212.38
  Q 604.51 242.38 565.61 266.23
  A 0.97 0.96 -28.9 0 0 565.25 267.47
  C 584.00 305.69 599.12 348.11 603.14 390.76
  A 0.20 0.20 0.0 0 0 603.49 390.87"
/>
<path stroke="#85c0e0" vector-effect="non-scaling-stroke" d="
  M 814.02 464.95
  A 0.23 0.23 0.0 0 0 814.24 465.25
  L 906.51 465.25
  Q 907.14 465.25 906.95 464.64
  Q 887.26 400.94 867.59 337.23
  Q 863.60 324.32 860.35 311.30
  Q 860.29 311.06 860.23 311.30
  Q 838.07 388.41 814.02 464.95"
/>
<path stroke="#85c0e0" vector-effect="non-scaling-stroke" d="
  M 1718.06 311.58
  C 1702.44 365.88 1687.21 416.54 1672.15 464.51
  Q 1671.92 465.25 1672.69 465.25
  L 1764.49 465.25
  Q 1765.08 465.25 1764.90 464.69
  Q 1745.63 402.33 1726.36 339.99
  Q 1721.98 325.82 1718.35 311.59
  Q 1718.21 311.07 1718.06 311.58"
/>
<path stroke="#808080" vector-effect="non-scaling-stroke" d="
  M 1040.31 692.43
  C 1030.67 688.24 1019.04 689.43 1008.74 689.52
  Q 1008.25 689.53 1008.25 690.02
  L 1008.25 735.23
  Q 1008.25 735.70 1008.72 735.71
  C 1023.31 736.03 1046.59 737.64 1050.85 718.56
  C 1053.10 708.46 1050.77 696.98 1040.31 692.43"
/>
<path stroke="#808080" vector-effect="non-scaling-stroke" d="
  M 1347.45 713.68
  C 1349.74 686.70 1322.59 689.30 1304.75 689.50
  Q 1304.25 689.51 1304.25 690.01
  L 1304.25 732.01
  Q 1304.25 732.57 1304.82 732.61
  Q 1314.30 733.16 1323.77 732.42
  C 1336.25 731.43 1346.30 727.22 1347.45 713.68"
/>
</g>
<path fill="#ffffff" d="
  M 0.00 0.00
  L 2423.00 0.00
  L 2423.00 817.00
  L 0.00 817.00
  L 0.00 0.00
  Z
  M 264.09 343.49
  Q 262.16 343.32 261.58 343.81
  Q 260.71 344.54 261.15 345.58
  Q 263.80 351.78 264.64 358.60
  Q 266.34 372.36 274.27 383.72
  Q 277.93 388.96 283.78 399.50
  C 301.64 431.69 332.56 454.55 366.46 468.04
  Q 375.38 471.59 384.51 474.76
  Q 385.00 474.93 385.03 475.44
  Q 386.50 503.29 393.58 530.20
  Q 395.62 537.92 395.83 541.94
  C 396.25 549.87 394.25 555.23 390.29 562.58
  C 383.01 576.13 378.96 591.88 377.34 607.15
  C 374.83 630.72 375.57 654.54 376.87 678.17
  C 377.12 682.76 375.99 685.45 371.14 685.81
  C 347.40 687.59 328.74 702.62 313.47 719.53
  C 299.19 735.36 286.55 745.58 263.78 742.49
  Q 260.88 742.09 257.68 743.40
  C 247.82 747.44 253.09 756.65 255.89 763.08
  C 259.34 771.02 258.02 777.21 256.63 786.23
  Q 255.38 794.40 256.21 797.77
  C 259.19 809.77 273.50 811.53 283.32 808.32
  A 1.03 1.03 0.0 0 0 283.47 806.43
  C 272.05 800.57 279.75 785.57 284.05 777.84
  Q 285.69 774.91 288.49 772.54
  C 309.01 755.21 333.76 742.37 358.51 732.24
  Q 381.09 723.00 403.76 713.99
  C 410.14 711.45 412.85 706.07 414.66 699.12
  Q 427.06 651.42 433.51 628.51
  Q 434.45 625.16 437.51 623.16
  C 440.04 621.49 442.53 622.74 444.59 624.42
  C 457.80 635.23 472.41 643.48 487.06 652.11
  C 489.38 653.47 490.64 655.24 489.91 657.88
  Q 489.53 659.25 487.25 661.61
  Q 472.15 677.22 469.08 698.36
  Q 468.51 702.30 468.53 714.72
  Q 468.57 741.49 461.46 767.35
  Q 460.34 771.40 458.87 775.08
  C 456.09 782.05 446.54 797.51 460.73 799.42
  Q 464.23 799.89 466.26 799.53
  Q 476.66 797.69 484.01 798.98
  C 490.77 800.16 499.04 804.47 505.69 804.75
  Q 515.75 805.16 522.82 797.57
  C 524.49 795.77 523.53 793.75 521.20 793.16
  C 508.61 790.00 492.15 786.20 484.84 774.16
  A 1.38 1.37 -56.3 0 1 484.66 773.23
  C 486.50 761.65 490.91 750.33 495.38 739.53
  C 507.00 711.44 520.42 684.27 532.66 656.47
  C 534.27 652.81 536.76 647.95 536.00 643.87
  C 533.91 632.74 524.86 621.16 516.60 612.38
  C 503.88 598.85 489.32 587.42 474.48 576.27
  A 1.28 1.27 -76.0 0 1 473.99 575.45
  C 472.48 565.23 471.28 553.72 474.76 543.75
  Q 477.12 536.99 483.90 515.46
  Q 485.54 510.26 486.35 504.82
  Q 486.42 504.34 486.90 504.39
  Q 500.16 505.89 513.51 506.27
  Q 533.60 506.84 551.32 497.60
  Q 568.49 488.63 582.06 474.80
  Q 583.61 473.22 584.65 472.83
  C 590.35 470.72 596.34 469.52 600.34 464.57
  Q 605.88 457.71 609.86 447.87
  Q 610.64 445.93 609.55 444.68
  C 746.71 352.25 749.12 155.24 616.53 58.36
  C 527.44 -6.74 402.63 0.97 321.41 75.15
  C 246.45 143.62 224.03 250.10 264.09 343.49
  Z
  M 2051.91 617.37
  C 2115.76 606.93 2163.91 565.73 2155.46 495.50
  C 2152.40 470.10 2141.61 450.85 2121.89 435.52
  C 2094.45 414.19 2060.01 403.32 2029.27 389.52
  C 2011.11 381.36 1994.96 370.77 1996.63 347.98
  C 1998.13 327.41 2015.99 315.94 2035.00 314.09
  C 2065.72 311.10 2095.57 319.12 2124.28 329.28
  A 0.92 0.92 0.0 0 0 2125.45 328.74
  L 2147.80 269.74
  Q 2148.33 268.35 2146.94 267.84
  Q 2120.58 258.21 2093.74 252.80
  Q 2062.11 246.42 2026.73 250.78
  C 1977.20 256.88 1931.40 283.86 1922.93 336.90
  Q 1919.31 359.55 1923.78 380.01
  C 1929.72 407.17 1949.04 429.81 1972.63 443.57
  C 1980.17 447.97 1991.82 454.09 2000.49 457.50
  Q 2021.85 465.91 2047.96 477.82
  C 2064.33 485.28 2081.85 497.54 2081.32 517.52
  C 2080.73 539.62 2065.25 550.91 2044.98 554.62
  Q 2025.47 558.19 2005.74 556.07
  C 1977.30 553.01 1949.52 544.28 1923.08 534.00
  A 0.77 0.76 9.8 0 0 1922.04 534.73
  L 1924.03 604.23
  A 1.25 1.24 10.5 0 0 1924.80 605.35
  C 1958.61 619.16 1995.85 622.99 2032.04 619.78
  Q 2043.25 618.79 2051.91 617.37
  Z
  M 794.74 529.49
  A 0.34 0.34 0.0 0 1 795.06 529.25
  L 925.16 529.25
  A 0.34 0.34 0.0 0 1 925.48 529.49
  L 951.37 614.51
  A 0.34 0.34 0.0 0 0 951.69 614.75
  L 1033.35 614.75
  A 0.34 0.34 0.0 0 0 1033.67 614.30
  L 906.61 254.23
  A 0.34 0.34 0.0 0 0 906.29 254.00
  L 813.44 253.99
  A 0.34 0.34 0.0 0 0 813.12 254.22
  L 686.55 614.30
  A 0.34 0.34 0.0 0 0 686.87 614.75
  L 768.51 614.75
  A 0.34 0.34 0.0 0 0 768.83 614.51
  L 794.74 529.49
  Z
  M 1783.06 529.25
  A 0.40 0.40 0.0 0 1 1783.45 529.53
  L 1809.31 614.47
  A 0.40 0.40 0.0 0 0 1809.70 614.75
  L 1891.19 614.75
  A 0.40 0.40 0.0 0 0 1891.57 614.22
  L 1764.58 254.27
  A 0.40 0.40 0.0 0 0 1764.21 254.00
  L 1671.41 253.98
  A 0.40 0.40 0.0 0 0 1671.04 254.25
  L 1544.52 614.22
  A 0.40 0.40 0.0 0 0 1544.89 614.75
  L 1626.41 614.75
  A 0.40 0.40 0.0 0 0 1626.80 614.47
  L 1652.64 529.53
  A 0.40 0.40 0.0 0 1 1653.03 529.25
  L 1783.06 529.25
  Z
  M 1082.82 319.00
  A 0.43 0.43 0.0 0 1 1083.25 319.43
  L 1083.25 614.32
  A 0.43 0.43 0.0 0 0 1083.68 614.75
  L 1159.07 614.75
  A 0.43 0.43 0.0 0 0 1159.50 614.32
  L 1159.50 319.43
  A 0.43 0.43 0.0 0 1 1159.93 319.00
  L 1256.57 319.00
  A 0.43 0.43 0.0 0 0 1257.00 318.57
  L 1257.00 255.92
  A 0.43 0.43 0.0 0 0 1256.57 255.49
  L 986.18 255.49
  A 0.43 0.43 0.0 0 0 985.75 255.92
  L 985.75 318.57
  A 0.43 0.43 0.0 0 0 986.18 319.00
  L 1082.82 319.00
  Z
  M 1380.06 551.74
  A 0.31 0.31 0.0 0 1 1379.75 551.43
  L 1379.75 255.81
  A 0.31 0.31 0.0 0 0 1379.44 255.50
  L 1303.81 255.50
  A 0.31 0.31 0.0 0 0 1303.50 255.81
  L 1303.50 614.44
  A 0.31 0.31 0.0 0 0 1303.81 614.75
  L 1525.19 614.75
  A 0.31 0.31 0.0 0 0 1525.50 614.44
  L 1525.50 552.06
  A 0.31 0.31 0.0 0 0 1525.19 551.75
  L 1380.06 551.74
  Z
  M 708.25 689.85
  A 0.35 0.35 0.0 0 1 708.60 689.50
  L 760.90 689.50
  A 0.35 0.35 0.0 0 0 761.25 689.15
  L 761.25 671.35
  A 0.35 0.35 0.0 0 0 760.90 671.00
  L 686.85 671.00
  A 0.35 0.35 0.0 0 0 686.50 671.35
  L 686.50 803.40
  A 0.35 0.35 0.0 0 0 686.85 803.75
  L 760.90 803.75
  A 0.35 0.35 0.0 0 0 761.25 803.40
  L 761.25 785.60
  A 0.35 0.35 0.0 0 0 760.90 785.25
  L 708.60 785.25
  A 0.35 0.35 0.0 0 1 708.25 784.90
  L 708.25 744.10
  A 0.35 0.35 0.0 0 1 708.60 743.75
  L 757.65 743.75
  A 0.35 0.35 0.0 0 0 758.00 743.40
  L 758.00 725.85
  A 0.35 0.35 0.0 0 0 757.65 725.50
  L 708.60 725.50
  A 0.35 0.35 0.0 0 1 708.25 725.15
  L 708.25 689.85
  Z
  M 872.90 720.47
  A 0.34 0.34 0.0 0 1 872.32 720.47
  L 842.38 671.16
  A 0.34 0.34 0.0 0 0 842.09 671.00
  L 818.50 671.00
  A 0.34 0.34 0.0 0 0 818.22 671.52
  L 858.78 734.82
  A 0.34 0.34 0.0 0 1 858.78 735.18
  L 815.47 803.23
  A 0.34 0.34 0.0 0 0 815.76 803.75
  L 838.47 803.75
  A 0.34 0.34 0.0 0 0 838.76 803.59
  L 871.42 750.30
  A 0.34 0.34 0.0 0 1 872.00 750.31
  L 904.41 803.59
  A 0.34 0.34 0.0 0 0 904.70 803.75
  L 929.08 803.75
  A 0.34 0.34 0.0 0 0 929.37 803.22
  L 885.46 735.53
  A 0.34 0.34 0.0 0 1 885.46 735.17
  L 926.30 671.52
  A 0.34 0.34 0.0 0 0 926.02 671.00
  L 903.14 671.00
  A 0.34 0.34 0.0 0 0 902.85 671.16
  L 872.90 720.47
  Z
  M 1008.72 754.30
  C 1019.90 754.17 1030.65 754.66 1041.66 752.16
  C 1057.31 748.61 1070.08 738.09 1073.17 721.43
  C 1075.43 709.20 1073.92 695.33 1066.07 685.63
  C 1057.43 674.94 1042.01 671.18 1028.73 671.04
  Q 1013.67 670.88 986.97 671.05
  Q 986.50 671.05 986.50 671.52
  L 986.50 803.50
  Q 986.50 803.75 986.75 803.75
  L 1007.75 803.75
  Q 1008.25 803.75 1008.25 803.25
  L 1008.25 754.78
  Q 1008.25 754.31 1008.72 754.30
  Z
  M 1160.75 744.12
  A 0.37 0.37 0.0 0 1 1161.12 743.75
  L 1210.13 743.75
  A 0.37 0.37 0.0 0 0 1210.50 743.38
  L 1210.50 725.87
  A 0.37 0.37 0.0 0 0 1210.13 725.50
  L 1161.12 725.50
  A 0.37 0.37 0.0 0 1 1160.75 725.13
  L 1160.75 689.87
  A 0.37 0.37 0.0 0 1 1161.12 689.50
  L 1213.38 689.50
  A 0.37 0.37 0.0 0 0 1213.75 689.13
  L 1213.75 671.37
  A 0.37 0.37 0.0 0 0 1213.38 671.00
  L 1139.37 671.00
  A 0.37 0.37 0.0 0 0 1139.00 671.37
  L 1139.00 803.38
  A 0.37 0.37 0.0 0 0 1139.37 803.75
  L 1213.38 803.75
  A 0.37 0.37 0.0 0 0 1213.75 803.38
  L 1213.75 785.62
  A 0.37 0.37 0.0 0 0 1213.38 785.25
  L 1161.12 785.25
  A 0.37 0.37 0.0 0 1 1160.75 784.88
  L 1160.75 744.12
  Z
  M 1304.75 751.00
  L 1324.90 751.00
  Q 1325.41 751.00 1325.67 751.44
  L 1356.51 803.21
  Q 1356.83 803.75 1357.47 803.75
  L 1380.93 803.75
  Q 1381.75 803.75 1381.31 803.06
  L 1344.90 745.64
  A 0.49 0.48 62.5 0 1 1345.12 744.93
  Q 1375.34 732.07 1368.72 698.79
  C 1364.51 677.63 1343.60 671.41 1324.73 671.04
  Q 1315.40 670.85 1282.96 671.06
  Q 1282.50 671.06 1282.50 671.52
  L 1282.50 803.50
  Q 1282.50 803.75 1282.75 803.75
  L 1303.75 803.75
  Q 1304.25 803.75 1304.25 803.25
  L 1304.25 751.50
  Q 1304.25 751.00 1304.75 751.00
  Z
  M 1464.99 671.31
  A 0.30 0.30 0.0 0 0 1464.69 671.01
  L 1443.55 671.01
  A 0.30 0.30 0.0 0 0 1443.25 671.31
  L 1443.25 803.45
  A 0.30 0.30 0.0 0 0 1443.55 803.75
  L 1464.69 803.75
  A 0.30 0.30 0.0 0 0 1464.99 803.45
  L 1464.99 671.31
  Z
  M 1656.34 693.55
  C 1654.45 730.02 1654.91 757.34 1655.04 803.26
  Q 1655.05 803.75 1655.53 803.75
  L 1675.38 803.75
  Q 1676.00 803.75 1676.00 803.12
  L 1676.00 671.75
  Q 1676.00 671.00 1675.25 671.00
  L 1645.77 671.00
  Q 1645.33 671.00 1645.19 671.41
  L 1607.77 776.12
  A 0.28 0.28 0.0 0 1 1607.24 776.12
  L 1570.94 671.50
  A 0.74 0.74 0.0 0 0 1570.24 671.00
  L 1540.50 671.00
  A 0.50 0.50 0.0 0 0 1540.00 671.50
  L 1540.00 803.25
  Q 1540.00 803.75 1540.50 803.75
  L 1559.48 803.75
  A 0.53 0.53 0.0 0 0 1560.01 803.23
  C 1560.05 766.66 1560.64 729.97 1558.47 693.47
  A 0.25 0.25 0.0 0 1 1558.96 693.37
  L 1596.91 803.33
  Q 1597.06 803.75 1597.51 803.75
  L 1615.94 803.75
  Q 1616.43 803.75 1616.60 803.29
  L 1655.91 693.46
  A 0.22 0.22 0.0 0 1 1656.34 693.55
  Z
  M 1773.00 689.87
  A 0.37 0.37 0.0 0 1 1773.37 689.50
  L 1825.63 689.50
  A 0.37 0.37 0.0 0 0 1826.00 689.13
  L 1826.00 671.37
  A 0.37 0.37 0.0 0 0 1825.63 671.00
  L 1751.62 671.00
  A 0.37 0.37 0.0 0 0 1751.25 671.37
  L 1751.25 803.38
  A 0.37 0.37 0.0 0 0 1751.62 803.75
  L 1825.63 803.75
  A 0.37 0.37 0.0 0 0 1826.00 803.38
  L 1826.00 785.62
  A 0.37 0.37 0.0 0 0 1825.63 785.25
  L 1773.37 785.25
  A 0.37 0.37 0.0 0 1 1773.00 784.88
  L 1773.00 744.12
  A 0.37 0.37 0.0 0 1 1773.37 743.75
  L 1822.38 743.75
  A 0.37 0.37 0.0 0 0 1822.75 743.38
  L 1822.75 725.87
  A 0.37 0.37 0.0 0 0 1822.38 725.50
  L 1773.37 725.50
  A 0.37 0.37 0.0 0 1 1773.00 725.13
  L 1773.00 689.87
  Z
  M 1913.04 699.00
  Q 1912.96 697.95 1913.51 698.84
  Q 1945.22 750.50 1976.88 802.33
  Q 1977.83 803.89 1980.75 803.92
  Q 1992.68 804.03 2004.29 803.91
  Q 2004.95 803.90 2004.95 803.24
  L 2004.94 671.60
  Q 2004.94 671.00 2004.34 671.00
  L 1985.05 671.00
  Q 1984.59 671.00 1984.59 671.46
  C 1984.47 706.03 1984.12 740.68 1985.80 775.09
  Q 1985.85 775.98 1985.38 775.22
  L 1921.60 671.52
  Q 1921.28 671.00 1920.67 671.00
  L 1895.03 671.00
  Q 1894.56 671.00 1894.56 671.47
  L 1894.56 803.46
  A 0.49 0.49 0.0 0 0 1895.05 803.95
  L 1914.22 803.93
  A 0.51 0.50 0.0 0 0 1914.73 803.43
  C 1914.77 768.61 1915.61 733.20 1913.04 699.00
  Z
  M 2120.00 690.57
  A 0.63 0.63 0.0 0 1 2120.63 689.94
  L 2158.32 689.93
  A 0.63 0.63 0.0 0 0 2158.95 689.30
  L 2158.93 671.63
  A 0.63 0.63 0.0 0 0 2158.30 671.00
  L 2059.89 671.00
  A 0.63 0.63 0.0 0 0 2059.26 671.63
  L 2059.26 689.31
  A 0.63 0.63 0.0 0 0 2059.89 689.94
  L 2097.44 689.94
  A 0.63 0.63 0.0 0 1 2098.07 690.57
  L 2098.06 803.32
  A 0.63 0.63 0.0 0 0 2098.69 803.95
  L 2119.37 803.92
  A 0.63 0.63 0.0 0 0 2120.00 803.29
  L 2120.00 690.57
  Z"
/>
<path fill="#0b80c0" d="
  M 609.55 444.68
  C 602.22 443.38 597.29 451.78 592.42 455.31
  Q 592.03 455.59 591.56 455.63
  C 586.36 456.09 576.32 457.84 573.64 463.58
  Q 573.42 464.06 572.94 464.25
  C 559.59 469.63 545.37 473.45 531.56 477.75
  Q 531.08 477.90 530.62 477.70
  Q 513.71 470.31 495.37 468.76
  C 491.13 468.41 487.82 466.09 484.31 463.90
  Q 506.25 463.25 527.18 458.44
  Q 527.88 458.28 527.24 457.96
  L 515.08 451.89
  Q 501.24 444.05 489.17 434.59
  A 0.64 0.64 0.0 0 1 489.02 433.76
  Q 494.92 423.67 493.46 412.02
  A 0.27 0.27 0.0 0 1 493.91 411.78
  Q 512.03 427.60 533.66 438.38
  Q 537.06 440.08 540.24 440.92
  Q 550.45 445.32 558.85 445.34
  Q 564.72 445.89 568.00 444.56
  Q 575.18 441.65 584.10 436.33
  L 601.62 425.47
  C 684.61 367.45 716.63 260.84 677.80 166.93
  Q 672.32 153.56 664.93 141.12
  Q 662.59 137.18 659.92 135.43
  Q 655.30 132.38 648.95 131.64
  Q 639.52 129.92 628.49 130.68
  C 597.76 132.79 566.76 141.85 538.02 152.57
  Q 448.21 186.07 368.94 239.98
  Q 368.52 240.27 368.74 240.74
  Q 400.81 309.50 449.58 367.55
  C 451.76 370.15 455.47 374.05 458.27 377.42
  Q 458.78 378.03 457.99 378.00
  Q 446.63 377.56 437.39 384.00
  Q 436.97 384.30 436.64 383.90
  C 402.84 343.99 374.82 300.09 352.10 252.97
  Q 351.86 252.48 351.42 252.81
  C 330.38 268.24 308.68 286.82 292.97 307.79
  A 1.25 1.24 59.7 0 0 292.73 308.71
  Q 295.54 329.69 302.62 349.59
  L 307.87 362.86
  Q 318.00 386.60 334.27 406.02
  C 339.61 412.40 345.89 417.29 352.55 422.53
  L 339.92 419.86
  Q 339.43 419.75 339.09 419.38
  Q 335.18 415.03 330.91 412.09
  C 319.14 403.98 304.99 395.68 293.14 385.62
  C 292.13 384.76 291.58 383.77 291.73 382.33
  Q 292.32 376.70 289.51 372.37
  Q 289.02 371.60 283.90 366.72
  C 279.49 362.51 277.28 357.89 274.54 352.10
  C 272.22 347.18 269.16 344.57 264.09 343.49
  C 224.03 250.10 246.45 143.62 321.41 75.15
  C 402.63 0.97 527.44 -6.74 616.53 58.36
  C 749.12 155.24 746.71 352.25 609.55 444.68
  Z
  M 401.62 68.54
  L 389.72 76.83
  Q 358.54 100.25 336.10 132.87
  A 1.29 1.29 0.0 0 0 335.89 133.75
  Q 341.99 179.04 360.20 220.93
  Q 360.41 221.43 360.86 221.13
  Q 437.15 169.70 523.00 136.53
  Q 558.59 122.78 594.99 114.91
  Q 615.47 110.48 637.34 110.38
  L 642.73 110.66
  Q 643.31 110.69 642.95 110.24
  Q 632.25 97.09 618.94 86.16
  Q 575.11 48.36 518.27 37.86
  Q 509.81 36.29 501.61 36.45
  C 466.01 37.15 431.23 49.00 401.62 68.54
  Z
  M 379.71 58.88
  L 363.06 68.74
  Q 356.39 72.83 349.64 77.85
  C 340.07 84.96 336.14 99.02 335.89 110.67
  Q 335.87 111.22 336.22 110.79
  Q 353.75 89.00 375.57 71.28
  L 387.71 62.19
  Q 399.07 54.33 411.80 47.60
  Q 417.09 44.80 422.37 42.15
  A 0.11 0.10 23.1 0 0 422.29 41.96
  Q 400.23 48.02 379.71 58.88
  Z
  M 284.92 157.94
  Q 252.56 227.70 271.42 303.07
  Q 271.56 303.63 271.89 303.15
  L 277.86 294.42
  Q 278.17 293.97 278.13 293.44
  C 274.58 239.55 288.52 185.80 316.30 139.56
  Q 316.57 139.11 316.50 138.59
  Q 314.78 124.95 315.51 111.23
  Q 315.55 110.47 315.06 111.05
  Q 296.61 132.74 284.92 157.94
  Z
  M 319.38 160.69
  C 300.08 196.59 290.41 238.23 290.42 278.66
  Q 290.42 279.34 290.89 278.85
  Q 314.95 254.10 342.98 233.94
  A 0.83 0.81 60.7 0 0 343.25 232.95
  Q 328.10 197.98 319.88 160.76
  Q 319.72 160.05 319.38 160.69
  Z
  M 282.31 334.54
  C 283.84 338.01 285.40 341.80 287.31 345.05
  A 0.04 0.04 0.0 0 0 287.38 345.02
  L 282.67 326.99
  A 0.16 0.16 0.0 0 0 282.36 326.99
  C 281.65 329.66 281.11 331.82 282.31 334.54
  Z"
/>
<path fill="#ffffff" d="
  M 618.94 86.16
  Q 628.83 97.93 637.34 110.38
  Q 615.47 110.48 594.99 114.91
  Q 558.59 122.78 523.00 136.53
  Q 437.15 169.70 360.86 221.13
  Q 360.41 221.43 360.20 220.93
  Q 341.99 179.04 335.89 133.75
  A 1.29 1.29 0.0 0 1 336.10 132.87
  Q 358.54 100.25 389.72 76.83
  C 420.50 93.06 447.29 118.18 469.61 144.46
  A 0.93 0.92 -32.3 0 0 470.70 144.70
  L 481.97 139.62
  A 0.39 0.39 0.0 0 0 482.11 139.02
  Q 461.15 114.05 436.41 92.85
  Q 420.19 78.96 401.62 68.54
  C 431.23 49.00 466.01 37.15 501.61 36.45
  Q 509.81 36.29 518.27 37.86
  Q 575.11 48.36 618.94 86.16
  Z"
/>
<path fill="#ffffff" d="
  M 387.71 62.19
  L 379.71 58.88
  Q 400.23 48.02 422.29 41.96
  A 0.11 0.10 23.1 0 1 422.37 42.15
  Q 417.09 44.80 411.80 47.60
  Q 399.07 54.33 387.71 62.19
  Z"
/>
<path fill="#a0bae1" d="
  M 379.71 58.88
  L 387.71 62.19
  L 375.57 71.28
  L 363.06 68.74
  L 379.71 58.88
  Z"
/>
<path fill="#ffffff" d="
  M 363.06 68.74
  L 375.57 71.28
  Q 353.75 89.00 336.22 110.79
  Q 335.87 111.22 335.89 110.67
  C 336.14 99.02 340.07 84.96 349.64 77.85
  Q 356.39 72.83 363.06 68.74
  Z"
/>
<path fill="#a0bae1" d="
  M 401.62 68.54
  Q 420.19 78.96 436.41 92.85
  Q 461.15 114.05 482.11 139.02
  A 0.39 0.39 0.0 0 1 481.97 139.62
  L 470.70 144.70
  A 0.93 0.92 -32.3 0 1 469.61 144.46
  C 447.29 118.18 420.50 93.06 389.72 76.83
  L 401.62 68.54
  Z"
/>
<path fill="#a0bae1" d="
  M 618.94 86.16
  Q 632.25 97.09 642.95 110.24
  Q 643.31 110.69 642.73 110.66
  L 637.34 110.38
  Q 628.83 97.93 618.94 86.16
  Z"
/>
<path fill="#ffffff" d="
  M 284.92 157.94
  Q 296.61 132.74 315.06 111.05
  Q 315.55 110.47 315.51 111.23
  Q 314.78 124.95 316.50 138.59
  Q 316.57 139.11 316.30 139.56
  C 288.52 185.80 274.58 239.55 278.13 293.44
  Q 278.17 293.97 277.86 294.42
  L 271.89 303.15
  Q 271.56 303.63 271.42 303.07
  Q 252.56 227.70 284.92 157.94
  Z"
/>
<path fill="#ffffff" d="
  M 648.95 131.64
  Q 657.03 149.37 661.76 167.95
  Q 661.89 168.45 661.57 168.86
  Q 644.78 190.44 622.04 209.56
  Q 592.39 234.49 559.55 254.87
  A 0.38 0.38 0.0 0 1 559.01 254.72
  Q 538.34 214.29 512.01 177.32
  Q 511.64 176.80 511.06 177.05
  L 499.80 181.92
  A 0.33 0.32 60.4 0 0 499.67 182.40
  Q 526.80 220.15 547.92 261.56
  A 0.52 0.51 -29.0 0 1 547.72 262.23
  Q 491.46 296.32 430.34 320.65
  A 0.50 0.49 61.6 0 0 430.12 321.40
  L 437.20 331.23
  A 0.75 0.75 0.0 0 0 438.10 331.49
  Q 498.10 307.40 553.42 273.92
  Q 553.84 273.66 554.06 274.11
  Q 567.48 301.78 577.15 331.07
  C 584.81 354.29 590.34 378.89 590.73 403.41
  Q 590.74 404.14 590.21 404.64
  Q 567.84 425.89 540.24 440.92
  Q 537.06 440.08 533.66 438.38
  Q 512.03 427.60 493.91 411.78
  A 0.27 0.27 0.0 0 0 493.46 412.02
  Q 494.92 423.67 489.02 433.76
  A 0.64 0.64 0.0 0 0 489.17 434.59
  Q 501.24 444.05 515.08 451.89
  Q 497.01 458.56 478.08 461.29
  Q 470.40 458.36 460.30 456.53
  Q 458.74 456.24 459.19 454.72
  L 460.98 448.73
  Q 461.13 448.21 461.64 448.03
  C 482.21 440.85 490.31 412.87 475.07 396.55
  C 467.04 387.95 454.12 385.28 444.07 391.87
  C 432.47 399.46 429.50 414.08 433.24 427.08
  Q 434.41 431.15 435.60 435.19
  Q 435.75 435.72 435.56 436.24
  L 432.53 444.68
  Q 432.36 445.16 431.88 445.02
  Q 418.87 441.37 405.43 439.82
  Q 402.99 439.54 400.82 438.36
  Q 385.40 429.96 368.23 426.11
  Q 359.93 424.25 352.55 422.53
  C 345.89 417.29 339.61 412.40 334.27 406.02
  Q 318.00 386.60 307.87 362.86
  C 336.28 362.94 365.10 356.40 391.88 347.93
  A 0.54 0.54 0.0 0 0 392.16 347.11
  L 385.13 336.84
  Q 384.85 336.45 384.39 336.59
  C 358.54 344.66 329.85 351.13 302.62 349.59
  Q 295.54 329.69 292.73 308.71
  A 1.25 1.24 59.7 0 1 292.97 307.79
  C 308.68 286.82 330.38 268.24 351.42 252.81
  Q 351.86 252.48 352.10 252.97
  C 374.82 300.09 402.84 343.99 436.64 383.90
  Q 436.97 384.30 437.39 384.00
  Q 446.63 377.56 457.99 378.00
  Q 458.78 378.03 458.27 377.42
  C 455.47 374.05 451.76 370.15 449.58 367.55
  Q 400.81 309.50 368.74 240.74
  Q 368.52 240.27 368.94 239.98
  Q 448.21 186.07 538.02 152.57
  C 566.76 141.85 597.76 132.79 628.49 130.68
  Q 639.52 129.92 648.95 131.64
  Z"
/>
<path fill="#a0bae1" d="
  M 648.95 131.64
  Q 655.30 132.38 659.92 135.43
  Q 662.59 137.18 664.93 141.12
  Q 672.32 153.56 677.80 166.93
  L 675.97 170.17
  Q 675.72 170.61 675.83 171.12
  C 693.92 257.65 664.96 346.89 603.81 409.64
  Q 603.46 409.99 603.40 410.49
  L 601.62 425.47
  L 584.10 436.33
  L 588.46 424.23
  A 0.23 0.23 0.0 0 0 588.09 423.97
  Q 574.42 435.32 558.85 445.34
  Q 550.45 445.32 540.24 440.92
  Q 567.84 425.89 590.21 404.64
  Q 590.74 404.14 590.73 403.41
  C 590.34 378.89 584.81 354.29 577.15 331.07
  Q 567.48 301.78 554.06 274.11
  Q 553.84 273.66 553.42 273.92
  Q 498.10 307.40 438.10 331.49
  A 0.75 0.75 0.0 0 1 437.20 331.23
  L 430.12 321.40
  A 0.50 0.49 61.6 0 1 430.34 320.65
  Q 491.46 296.32 547.72 262.23
  A 0.52 0.51 -29.0 0 0 547.92 261.56
  Q 526.80 220.15 499.67 182.40
  A 0.33 0.32 60.4 0 1 499.80 181.92
  L 511.06 177.05
  Q 511.64 176.80 512.01 177.32
  Q 538.34 214.29 559.01 254.72
  A 0.38 0.38 0.0 0 0 559.55 254.87
  Q 592.39 234.49 622.04 209.56
  Q 644.78 190.44 661.57 168.86
  Q 661.89 168.45 661.76 167.95
  Q 657.03 149.37 648.95 131.64
  Z
  M 603.49 390.87
  C 652.70 335.61 676.98 259.32 665.44 185.77
  Q 665.34 185.11 664.90 185.62
  C 656.76 195.07 648.21 203.94 638.62 212.38
  Q 604.51 242.38 565.61 266.23
  A 0.97 0.96 -28.9 0 0 565.25 267.47
  C 584.00 305.69 599.12 348.11 603.14 390.76
  A 0.20 0.20 0.0 0 0 603.49 390.87
  Z"
/>
<path fill="#ffffff" d="
  M 290.42 278.66
  C 290.41 238.23 300.08 196.59 319.38 160.69
  Q 319.72 160.05 319.88 160.76
  Q 328.10 197.98 343.25 232.95
  A 0.83 0.81 60.7 0 1 342.98 233.94
  Q 314.95 254.10 290.89 278.85
  Q 290.42 279.34 290.42 278.66
  Z"
/>
<path fill="#ffffff" d="
  M 677.80 166.93
  C 716.63 260.84 684.61 367.45 601.62 425.47
  L 603.40 410.49
  Q 603.46 409.99 603.81 409.64
  C 664.96 346.89 693.92 257.65 675.83 171.12
  Q 675.72 170.61 675.97 170.17
  L 677.80 166.93
  Z"
/>
<path fill="#ffffff" d="
  M 665.44 185.77
  C 676.98 259.32 652.70 335.61 603.49 390.87
  A 0.20 0.20 0.0 0 1 603.14 390.76
  C 599.12 348.11 584.00 305.69 565.25 267.47
  A 0.97 0.96 -28.9 0 1 565.61 266.23
  Q 604.51 242.38 638.62 212.38
  C 648.21 203.94 656.76 195.07 664.90 185.62
  Q 665.34 185.11 665.44 185.77
  Z"
/>
<path fill="#0b80c0" d="
  M 2155.46 495.50
  C 2163.91 565.73 2115.76 606.93 2051.91 617.37
  Q 2043.25 618.79 2032.04 619.78
  C 1995.85 622.99 1958.61 619.16 1924.80 605.35
  A 1.25 1.24 10.5 0 1 1924.03 604.23
  L 1922.04 534.73
  A 0.77 0.76 9.8 0 1 1923.08 534.00
  C 1949.52 544.28 1977.30 553.01 2005.74 556.07
  Q 2025.47 558.19 2044.98 554.62
  C 2065.25 550.91 2080.73 539.62 2081.32 517.52
  C 2081.85 497.54 2064.33 485.28 2047.96 477.82
  Q 2021.85 465.91 2000.49 457.50
  C 1991.82 454.09 1980.17 447.97 1972.63 443.57
  C 1949.04 429.81 1929.72 407.17 1923.78 380.01
  Q 1919.31 359.55 1922.93 336.90
  C 1931.40 283.86 1977.20 256.88 2026.73 250.78
  Q 2062.11 246.42 2093.74 252.80
  Q 2120.58 258.21 2146.94 267.84
  Q 2148.33 268.35 2147.80 269.74
  L 2125.45 328.74
  A 0.92 0.92 0.0 0 1 2124.28 329.28
  C 2095.57 319.12 2065.72 311.10 2035.00 314.09
  C 2015.99 315.94 1998.13 327.41 1996.63 347.98
  C 1994.96 370.77 2011.11 381.36 2029.27 389.52
  C 2060.01 403.32 2094.45 414.19 2121.89 435.52
  C 2141.61 450.85 2152.40 470.10 2155.46 495.50
  Z"
/>
<path fill="#0b80c0" d="
  M 794.74 529.49
  L 768.83 614.51
  A 0.34 0.34 0.0 0 1 768.51 614.75
  L 686.87 614.75
  A 0.34 0.34 0.0 0 1 686.55 614.30
  L 813.12 254.22
  A 0.34 0.34 0.0 0 1 813.44 253.99
  L 906.29 254.00
  A 0.34 0.34 0.0 0 1 906.61 254.23
  L 1033.67 614.30
  A 0.34 0.34 0.0 0 1 1033.35 614.75
  L 951.69 614.75
  A 0.34 0.34 0.0 0 1 951.37 614.51
  L 925.48 529.49
  A 0.34 0.34 0.0 0 0 925.16 529.25
  L 795.06 529.25
  A 0.34 0.34 0.0 0 0 794.74 529.49
  Z
  M 814.02 464.95
  A 0.23 0.23 0.0 0 0 814.24 465.25
  L 906.51 465.25
  Q 907.14 465.25 906.95 464.64
  Q 887.26 400.94 867.59 337.23
  Q 863.60 324.32 860.35 311.30
  Q 860.29 311.06 860.23 311.30
  Q 838.07 388.41 814.02 464.95
  Z"
/>
<path fill="#0b80c0" d="
  M 1783.06 529.25
  L 1653.03 529.25
  A 0.40 0.40 0.0 0 0 1652.64 529.53
  L 1626.80 614.47
  A 0.40 0.40 0.0 0 1 1626.41 614.75
  L 1544.89 614.75
  A 0.40 0.40 0.0 0 1 1544.52 614.22
  L 1671.04 254.25
  A 0.40 0.40 0.0 0 1 1671.41 253.98
  L 1764.21 254.00
  A 0.40 0.40 0.0 0 1 1764.58 254.27
  L 1891.57 614.22
  A 0.40 0.40 0.0 0 1 1891.19 614.75
  L 1809.70 614.75
  A 0.40 0.40 0.0 0 1 1809.31 614.47
  L 1783.45 529.53
  A 0.40 0.40 0.0 0 0 1783.06 529.25
  Z
  M 1718.06 311.58
  C 1702.44 365.88 1687.21 416.54 1672.15 464.51
  Q 1671.92 465.25 1672.69 465.25
  L 1764.49 465.25
  Q 1765.08 465.25 1764.90 464.69
  Q 1745.63 402.33 1726.36 339.99
  Q 1721.98 325.82 1718.35 311.59
  Q 1718.21 311.07 1718.06 311.58
  Z"
/>
<path fill="#0b80c0" d="
  M 1082.82 319.00
  L 986.18 319.00
  A 0.43 0.43 0.0 0 1 985.75 318.57
  L 985.75 255.92
  A 0.43 0.43 0.0 0 1 986.18 255.49
  L 1256.57 255.49
  A 0.43 0.43 0.0 0 1 1257.00 255.92
  L 1257.00 318.57
  A 0.43 0.43 0.0 0 1 1256.57 319.00
  L 1159.93 319.00
  A 0.43 0.43 0.0 0 0 1159.50 319.43
  L 1159.50 614.32
  A 0.43 0.43 0.0 0 1 1159.07 614.75
  L 1083.68 614.75
  A 0.43 0.43 0.0 0 1 1083.25 614.32
  L 1083.25 319.43
  A 0.43 0.43 0.0 0 0 1082.82 319.00
  Z"
/>
<path fill="#0b80c0" d="
  M 1380.06 551.74
  L 1525.19 551.75
  A 0.31 0.31 0.0 0 1 1525.50 552.06
  L 1525.50 614.44
  A 0.31 0.31 0.0 0 1 1525.19 614.75
  L 1303.81 614.75
  A 0.31 0.31 0.0 0 1 1303.50 614.44
  L 1303.50 255.81
  A 0.31 0.31 0.0 0 1 1303.81 255.50
  L 1379.44 255.50
  A 0.31 0.31 0.0 0 1 1379.75 255.81
  L 1379.75 551.43
  A 0.31 0.31 0.0 0 0 1380.06 551.74
  Z"
/>
<path fill="#ffffff" d="
  M 1672.15 464.51
  C 1687.21 416.54 1702.44 365.88 1718.06 311.58
  Q 1718.21 311.07 1718.35 311.59
  Q 1721.98 325.82 1726.36 339.99
  Q 1745.63 402.33 1764.90 464.69
  Q 1765.08 465.25 1764.49 465.25
  L 1672.69 465.25
  Q 1671.92 465.25 1672.15 464.51
  Z"
/>
<path fill="#ffffff" d="
  M 814.02 464.95
  Q 838.07 388.41 860.23 311.30
  Q 860.29 311.06 860.35 311.30
  Q 863.60 324.32 867.59 337.23
  Q 887.26 400.94 906.95 464.64
  Q 907.14 465.25 906.51 465.25
  L 814.24 465.25
  A 0.23 0.23 0.0 0 1 814.02 464.95
  Z"
/>
<path fill="#ffffff" d="
  M 287.31 345.05
  C 285.40 341.80 283.84 338.01 282.31 334.54
  C 281.11 331.82 281.65 329.66 282.36 326.99
  A 0.16 0.16 0.0 0 1 282.67 326.99
  L 287.38 345.02
  A 0.04 0.04 0.0 0 1 287.31 345.05
  Z"
/>
<path fill="#a0bae1" d="
  M 307.87 362.86
  L 302.62 349.59
  C 329.85 351.13 358.54 344.66 384.39 336.59
  Q 384.85 336.45 385.13 336.84
  L 392.16 347.11
  A 0.54 0.54 0.0 0 1 391.88 347.93
  C 365.10 356.40 336.28 362.94 307.87 362.86
  Z"
/>
<path fill="#000000" d="
  M 264.09 343.49
  C 269.16 344.57 272.22 347.18 274.54 352.10
  C 277.28 357.89 279.49 362.51 283.90 366.72
  Q 289.02 371.60 289.51 372.37
  Q 292.32 376.70 291.73 382.33
  C 291.58 383.77 292.13 384.76 293.14 385.62
  C 304.99 395.68 319.14 403.98 330.91 412.09
  Q 335.18 415.03 339.09 419.38
  Q 339.43 419.75 339.92 419.86
  L 352.55 422.53
  Q 359.93 424.25 368.23 426.11
  Q 385.40 429.96 400.82 438.36
  Q 402.99 439.54 405.43 439.82
  Q 418.87 441.37 431.88 445.02
  Q 432.36 445.16 432.53 444.68
  L 435.56 436.24
  Q 435.75 435.72 435.60 435.19
  Q 434.41 431.15 433.24 427.08
  C 429.50 414.08 432.47 399.46 444.07 391.87
  C 454.12 385.28 467.04 387.95 475.07 396.55
  C 490.31 412.87 482.21 440.85 461.64 448.03
  Q 461.13 448.21 460.98 448.73
  L 459.19 454.72
  Q 458.74 456.24 460.30 456.53
  Q 470.40 458.36 478.08 461.29
  L 484.31 463.90
  C 487.82 466.09 491.13 468.41 495.37 468.76
  Q 513.71 470.31 530.62 477.70
  Q 531.08 477.90 531.56 477.75
  C 545.37 473.45 559.59 469.63 572.94 464.25
  Q 573.42 464.06 573.64 463.58
  C 576.32 457.84 586.36 456.09 591.56 455.63
  Q 592.03 455.59 592.42 455.31
  C 597.29 451.78 602.22 443.38 609.55 444.68
  Q 610.64 445.93 609.86 447.87
  Q 605.88 457.71 600.34 464.57
  C 596.34 469.52 590.35 470.72 584.65 472.83
  Q 583.61 473.22 582.06 474.80
  Q 568.49 488.63 551.32 497.60
  Q 533.60 506.84 513.51 506.27
  Q 500.16 505.89 486.90 504.39
  Q 486.42 504.34 486.35 504.82
  Q 485.54 510.26 483.90 515.46
  Q 477.12 536.99 474.76 543.75
  C 471.28 553.72 472.48 565.23 473.99 575.45
  A 1.28 1.27 -76.0 0 0 474.48 576.27
  C 489.32 587.42 503.88 598.85 516.60 612.38
  C 524.86 621.16 533.91 632.74 536.00 643.87
  C 536.76 647.95 534.27 652.81 532.66 656.47
  C 520.42 684.27 507.00 711.44 495.38 739.53
  C 490.91 750.33 486.50 761.65 484.66 773.23
  A 1.38 1.37 -56.3 0 0 484.84 774.16
  C 492.15 786.20 508.61 790.00 521.20 793.16
  C 523.53 793.75 524.49 795.77 522.82 797.57
  Q 515.75 805.16 505.69 804.75
  C 499.04 804.47 490.77 800.16 484.01 798.98
  Q 476.66 797.69 466.26 799.53
  Q 464.23 799.89 460.73 799.42
  C 446.54 797.51 456.09 782.05 458.87 775.08
  Q 460.34 771.40 461.46 767.35
  Q 468.57 741.49 468.53 714.72
  Q 468.51 702.30 469.08 698.36
  Q 472.15 677.22 487.25 661.61
  Q 489.53 659.25 489.91 657.88
  C 490.64 655.24 489.38 653.47 487.06 652.11
  C 472.41 643.48 457.80 635.23 444.59 624.42
  C 442.53 622.74 440.04 621.49 437.51 623.16
  Q 434.45 625.16 433.51 628.51
  Q 427.06 651.42 414.66 699.12
  C 412.85 706.07 410.14 711.45 403.76 713.99
  Q 381.09 723.00 358.51 732.24
  C 333.76 742.37 309.01 755.21 288.49 772.54
  Q 285.69 774.91 284.05 777.84
  C 279.75 785.57 272.05 800.57 283.47 806.43
  A 1.03 1.03 0.0 0 1 283.32 808.32
  C 273.50 811.53 259.19 809.77 256.21 797.77
  Q 255.38 794.40 256.63 786.23
  C 258.02 777.21 259.34 771.02 255.89 763.08
  C 253.09 756.65 247.82 747.44 257.68 743.40
  Q 260.88 742.09 263.78 742.49
  C 286.55 745.58 299.19 735.36 313.47 719.53
  C 328.74 702.62 347.40 687.59 371.14 685.81
  C 375.99 685.45 377.12 682.76 376.87 678.17
  C 375.57 654.54 374.83 630.72 377.34 607.15
  C 378.96 591.88 383.01 576.13 390.29 562.58
  C 394.25 555.23 396.25 549.87 395.83 541.94
  Q 395.62 537.92 393.58 530.20
  Q 386.50 503.29 385.03 475.44
  Q 385.00 474.93 384.51 474.76
  Q 375.38 471.59 366.46 468.04
  C 332.56 454.55 301.64 431.69 283.78 399.50
  Q 277.93 388.96 274.27 383.72
  Q 266.34 372.36 264.64 358.60
  Q 263.80 351.78 261.15 345.58
  Q 260.71 344.54 261.58 343.81
  Q 262.16 343.32 264.09 343.49
  Z"
/>
<path fill="#ffffff" d="
  M 584.10 436.33
  Q 575.18 441.65 568.00 444.56
  Q 564.72 445.89 558.85 445.34
  Q 574.42 435.32 588.09 423.97
  A 0.23 0.23 0.0 0 1 588.46 424.23
  L 584.10 436.33
  Z"
/>
<path fill="#a0bae1" d="
  M 515.08 451.89
  L 527.24 457.96
  Q 527.88 458.28 527.18 458.44
  Q 506.25 463.25 484.31 463.90
  L 478.08 461.29
  Q 497.01 458.56 515.08 451.89
  Z"
/>
<path fill="#000000" d="
  M 708.25 689.85
  L 708.25 725.15
  A 0.35 0.35 0.0 0 0 708.60 725.50
  L 757.65 725.50
  A 0.35 0.35 0.0 0 1 758.00 725.85
  L 758.00 743.40
  A 0.35 0.35 0.0 0 1 757.65 743.75
  L 708.60 743.75
  A 0.35 0.35 0.0 0 0 708.25 744.10
  L 708.25 784.90
  A 0.35 0.35 0.0 0 0 708.60 785.25
  L 760.90 785.25
  A 0.35 0.35 0.0 0 1 761.25 785.60
  L 761.25 803.40
  A 0.35 0.35 0.0 0 1 760.90 803.75
  L 686.85 803.75
  A 0.35 0.35 0.0 0 1 686.50 803.40
  L 686.50 671.35
  A 0.35 0.35 0.0 0 1 686.85 671.00
  L 760.90 671.00
  A 0.35 0.35 0.0 0 1 761.25 671.35
  L 761.25 689.15
  A 0.35 0.35 0.0 0 1 760.90 689.50
  L 708.60 689.50
  A 0.35 0.35 0.0 0 0 708.25 689.85
  Z"
/>
<path fill="#000000" d="
  M 872.90 720.47
  L 902.85 671.16
  A 0.34 0.34 0.0 0 1 903.14 671.00
  L 926.02 671.00
  A 0.34 0.34 0.0 0 1 926.30 671.52
  L 885.46 735.17
  A 0.34 0.34 0.0 0 0 885.46 735.53
  L 929.37 803.22
  A 0.34 0.34 0.0 0 1 929.08 803.75
  L 904.70 803.75
  A 0.34 0.34 0.0 0 1 904.41 803.59
  L 872.00 750.31
  A 0.34 0.34 0.0 0 0 871.42 750.30
  L 838.76 803.59
  A 0.34 0.34 0.0 0 1 838.47 803.75
  L 815.76 803.75
  A 0.34 0.34 0.0 0 1 815.47 803.23
  L 858.78 735.18
  A 0.34 0.34 0.0 0 0 858.78 734.82
  L 818.22 671.52
  A 0.34 0.34 0.0 0 1 818.50 671.00
  L 842.09 671.00
  A 0.34 0.34 0.0 0 1 842.38 671.16
  L 872.32 720.47
  A 0.34 0.34 0.0 0 0 872.90 720.47
  Z"
/>
<path fill="#000000" d="
  M 1008.25 754.78
  L 1008.25 803.25
  Q 1008.25 803.75 1007.75 803.75
  L 986.75 803.75
  Q 986.50 803.75 986.50 803.50
  L 986.50 671.52
  Q 986.50 671.05 986.97 671.05
  Q 1013.67 670.88 1028.73 671.04
  C 1042.01 671.18 1057.43 674.94 1066.07 685.63
  C 1073.92 695.33 1075.43 709.20 1073.17 721.43
  C 1070.08 738.09 1057.31 748.61 1041.66 752.16
  C 1030.65 754.66 1019.90 754.17 1008.72 754.30
  Q 1008.25 754.31 1008.25 754.78
  Z
  M 1040.31 692.43
  C 1030.67 688.24 1019.04 689.43 1008.74 689.52
  Q 1008.25 689.53 1008.25 690.02
  L 1008.25 735.23
  Q 1008.25 735.70 1008.72 735.71
  C 1023.31 736.03 1046.59 737.64 1050.85 718.56
  C 1053.10 708.46 1050.77 696.98 1040.31 692.43
  Z"
/>
<path fill="#000000" d="
  M 1160.75 744.12
  L 1160.75 784.88
  A 0.37 0.37 0.0 0 0 1161.12 785.25
  L 1213.38 785.25
  A 0.37 0.37 0.0 0 1 1213.75 785.62
  L 1213.75 803.38
  A 0.37 0.37 0.0 0 1 1213.38 803.75
  L 1139.37 803.75
  A 0.37 0.37 0.0 0 1 1139.00 803.38
  L 1139.00 671.37
  A 0.37 0.37 0.0 0 1 1139.37 671.00
  L 1213.38 671.00
  A 0.37 0.37 0.0 0 1 1213.75 671.37
  L 1213.75 689.13
  A 0.37 0.37 0.0 0 1 1213.38 689.50
  L 1161.12 689.50
  A 0.37 0.37 0.0 0 0 1160.75 689.87
  L 1160.75 725.13
  A 0.37 0.37 0.0 0 0 1161.12 725.50
  L 1210.13 725.50
  A 0.37 0.37 0.0 0 1 1210.50 725.87
  L 1210.50 743.38
  A 0.37 0.37 0.0 0 1 1210.13 743.75
  L 1161.12 743.75
  A 0.37 0.37 0.0 0 0 1160.75 744.12
  Z"
/>
<path fill="#000000" d="
  M 1304.25 751.50
  L 1304.25 803.25
  Q 1304.25 803.75 1303.75 803.75
  L 1282.75 803.75
  Q 1282.50 803.75 1282.50 803.50
  L 1282.50 671.52
  Q 1282.50 671.06 1282.96 671.06
  Q 1315.40 670.85 1324.73 671.04
  C 1343.60 671.41 1364.51 677.63 1368.72 698.79
  Q 1375.34 732.07 1345.12 744.93
  A 0.49 0.48 62.5 0 0 1344.90 745.64
  L 1381.31 803.06
  Q 1381.75 803.75 1380.93 803.75
  L 1357.47 803.75
  Q 1356.83 803.75 1356.51 803.21
  L 1325.67 751.44
  Q 1325.41 751.00 1324.90 751.00
  L 1304.75 751.00
  Q 1304.25 751.00 1304.25 751.50
  Z
  M 1347.45 713.68
  C 1349.74 686.70 1322.59 689.30 1304.75 689.50
  Q 1304.25 689.51 1304.25 690.01
  L 1304.25 732.01
  Q 1304.25 732.57 1304.82 732.61
  Q 1314.30 733.16 1323.77 732.42
  C 1336.25 731.43 1346.30 727.22 1347.45 713.68
  Z"
/>
<rect fill="#000000" x="1443.25" y="671.01" width="21.74" height="132.74" rx="0.30"/>
<path fill="#000000" d="
  M 1656.34 693.55
  A 0.22 0.22 0.0 0 0 1655.91 693.46
  L 1616.60 803.29
  Q 1616.43 803.75 1615.94 803.75
  L 1597.51 803.75
  Q 1597.06 803.75 1596.91 803.33
  L 1558.96 693.37
  A 0.25 0.25 0.0 0 0 1558.47 693.47
  C 1560.64 729.97 1560.05 766.66 1560.01 803.23
  A 0.53 0.53 0.0 0 1 1559.48 803.75
  L 1540.50 803.75
  Q 1540.00 803.75 1540.00 803.25
  L 1540.00 671.50
  A 0.50 0.50 0.0 0 1 1540.50 671.00
  L 1570.24 671.00
  A 0.74 0.74 0.0 0 1 1570.94 671.50
  L 1607.24 776.12
  A 0.28 0.28 0.0 0 0 1607.77 776.12
  L 1645.19 671.41
  Q 1645.33 671.00 1645.77 671.00
  L 1675.25 671.00
  Q 1676.00 671.00 1676.00 671.75
  L 1676.00 803.12
  Q 1676.00 803.75 1675.38 803.75
  L 1655.53 803.75
  Q 1655.05 803.75 1655.04 803.26
  C 1654.91 757.34 1654.45 730.02 1656.34 693.55
  Z"
/>
<path fill="#000000" d="
  M 1773.00 689.87
  L 1773.00 725.13
  A 0.37 0.37 0.0 0 0 1773.37 725.50
  L 1822.38 725.50
  A 0.37 0.37 0.0 0 1 1822.75 725.87
  L 1822.75 743.38
  A 0.37 0.37 0.0 0 1 1822.38 743.75
  L 1773.37 743.75
  A 0.37 0.37 0.0 0 0 1773.00 744.12
  L 1773.00 784.88
  A 0.37 0.37 0.0 0 0 1773.37 785.25
  L 1825.63 785.25
  A 0.37 0.37 0.0 0 1 1826.00 785.62
  L 1826.00 803.38
  A 0.37 0.37 0.0 0 1 1825.63 803.75
  L 1751.62 803.75
  A 0.37 0.37 0.0 0 1 1751.25 803.38
  L 1751.25 671.37
  A 0.37 0.37 0.0 0 1 1751.62 671.00
  L 1825.63 671.00
  A 0.37 0.37 0.0 0 1 1826.00 671.37
  L 1826.00 689.13
  A 0.37 0.37 0.0 0 1 1825.63 689.50
  L 1773.37 689.50
  A 0.37 0.37 0.0 0 0 1773.00 689.87
  Z"
/>
<path fill="#000000" d="
  M 1913.04 699.00
  C 1915.61 733.20 1914.77 768.61 1914.73 803.43
  A 0.51 0.50 0.0 0 1 1914.22 803.93
  L 1895.05 803.95
  A 0.49 0.49 0.0 0 1 1894.56 803.46
  L 1894.56 671.47
  Q 1894.56 671.00 1895.03 671.00
  L 1920.67 671.00
  Q 1921.28 671.00 1921.60 671.52
  L 1985.38 775.22
  Q 1985.85 775.98 1985.80 775.09
  C 1984.12 740.68 1984.47 706.03 1984.59 671.46
  Q 1984.59 671.00 1985.05 671.00
  L 2004.34 671.00
  Q 2004.94 671.00 2004.94 671.60
  L 2004.95 803.24
  Q 2004.95 803.90 2004.29 803.91
  Q 1992.68 804.03 1980.75 803.92
  Q 1977.83 803.89 1976.88 802.33
  Q 1945.22 750.50 1913.51 698.84
  Q 1912.96 697.95 1913.04 699.00
  Z"
/>
<path fill="#000000" d="
  M 2120.00 690.57
  L 2120.00 803.29
  A 0.63 0.63 0.0 0 1 2119.37 803.92
  L 2098.69 803.95
  A 0.63 0.63 0.0 0 1 2098.06 803.32
  L 2098.07 690.57
  A 0.63 0.63 0.0 0 0 2097.44 689.94
  L 2059.89 689.94
  A 0.63 0.63 0.0 0 1 2059.26 689.31
  L 2059.26 671.63
  A 0.63 0.63 0.0 0 1 2059.89 671.00
  L 2158.30 671.00
  A 0.63 0.63 0.0 0 1 2158.93 671.63
  L 2158.95 689.30
  A 0.63 0.63 0.0 0 1 2158.32 689.93
  L 2120.63 689.94
  A 0.63 0.63 0.0 0 0 2120.00 690.57
  Z"
/>
<path fill="#ffffff" d="
  M 1040.31 692.43
  C 1050.77 696.98 1053.10 708.46 1050.85 718.56
  C 1046.59 737.64 1023.31 736.03 1008.72 735.71
  Q 1008.25 735.70 1008.25 735.23
  L 1008.25 690.02
  Q 1008.25 689.53 1008.74 689.52
  C 1019.04 689.43 1030.67 688.24 1040.31 692.43
  Z"
/>
<path fill="#ffffff" d="
  M 1304.75 689.50
  C 1322.59 689.30 1349.74 686.70 1347.45 713.68
  C 1346.30 727.22 1336.25 731.43 1323.77 732.42
  Q 1314.30 733.16 1304.82 732.61
  Q 1304.25 732.57 1304.25 732.01
  L 1304.25 690.01
  Q 1304.25 689.51 1304.75 689.50
  Z"
/>
</svg>
