<?xml version="1.0" encoding="UTF-8" standalone="no"?>
<!DOCTYPE svg PUBLIC "-//W3C//DTD SVG 1.1//EN" "http://www.w3.org/Graphics/SVG/1.1/DTD/svg11.dtd">
<svg xmlns="http://www.w3.org/2000/svg" version="1.1" viewBox="0.00 0.00 473.00 795.00">
<path fill="#ffffff" d="
  M 223.90 0.00
  L 245.99 0.00
  Q 306.39 3.36 357.34 34.35
  C 417.85 71.14 459.92 135.73 468.17 206.39
  C 478.56 295.25 439.30 379.93 365.34 430.11
  Q 364.98 430.36 365.17 430.75
  C 367.31 435.11 356.03 450.61 352.38 453.43
  C 347.14 457.49 340.97 456.71 335.83 461.96
  Q 317.65 480.54 293.17 488.81
  C 284.73 491.66 275.49 492.27 266.76 491.97
  Q 256.43 491.63 242.35 490.19
  Q 241.84 490.14 241.77 490.64
  Q 240.97 496.35 239.77 500.02
  Q 234.49 516.24 229.33 532.53
  Q 228.10 536.41 228.05 540.11
  Q 227.92 550.67 229.44 561.24
  A 1.20 1.19 14.3 0 0 229.92 562.04
  C 248.11 575.67 267.12 590.71 281.38 609.35
  C 284.82 613.83 293.48 627.95 291.48 633.50
  Q 287.80 643.72 284.97 649.69
  Q 269.05 683.26 254.17 717.30
  C 248.65 729.92 242.57 744.70 240.04 758.99
  A 1.35 1.31 -56.7 0 0 240.22 759.93
  C 247.68 771.94 264.64 776.23 277.51 779.15
  A 1.95 1.94 -74.4 0 1 278.93 781.67
  Q 278.20 783.81 276.28 785.32
  Q 268.31 791.60 258.58 790.26
  C 254.89 789.75 250.47 787.92 246.52 786.64
  C 239.08 784.24 232.48 783.85 225.00 784.81
  C 202.34 787.72 208.49 774.71 213.77 762.20
  Q 215.76 757.49 216.95 753.18
  Q 223.86 728.19 223.99 702.32
  Q 224.06 687.98 224.50 684.73
  Q 227.42 663.14 242.92 647.23
  C 247.43 642.60 246.08 639.82 240.84 636.83
  C 225.23 627.91 213.16 621.06 201.48 611.22
  Q 198.84 609.00 195.82 607.96
  A 1.42 1.38 -45.9 0 0 194.86 607.99
  Q 190.11 609.88 188.72 615.00
  Q 179.11 650.32 169.86 685.75
  C 168.14 692.35 165.10 697.47 159.05 699.85
  Q 135.91 708.95 112.92 718.37
  C 88.60 728.33 63.44 741.47 43.45 758.73
  Q 40.98 760.87 39.51 763.59
  C 34.80 772.35 27.55 785.76 39.29 792.62
  Q 39.79 792.91 39.40 793.34
  Q 38.27 794.58 36.12 795.00
  L 24.04 795.00
  Q 13.44 792.15 11.58 782.77
  Q 10.94 779.60 12.04 772.27
  C 12.99 765.99 14.59 758.07 12.76 752.23
  C 11.38 747.82 5.11 738.97 8.39 733.22
  C 12.48 726.06 21.69 728.91 28.08 728.88
  C 40.81 728.82 52.33 722.50 60.84 714.09
  C 65.97 709.02 71.78 701.70 76.50 697.10
  C 90.31 683.65 107.50 673.24 127.10 671.54
  C 131.23 671.19 132.51 668.69 132.33 664.68
  C 130.73 629.09 128.29 590.88 141.39 557.61
  C 144.28 550.28 149.62 543.30 150.78 535.66
  C 151.79 529.01 151.21 523.98 149.33 516.90
  Q 142.03 489.57 140.49 461.14
  Q 140.46 460.61 139.96 460.44
  C 97.34 446.30 59.43 422.95 37.64 382.35
  C 33.90 375.39 28.92 368.77 25.83 362.66
  Q 21.71 354.48 21.42 351.50
  Q 20.39 340.62 16.34 330.37
  A 0.61 0.60 75.4 0 1 16.82 329.54
  L 19.27 329.21
  Q 19.59 329.17 19.46 328.88
  Q 2.32 289.20 0.00 245.86
  L 0.00 223.78
  C 6.54 102.11 102.33 6.56 223.90 0.00
  Z
  M 237.25 125.42
  L 226.00 130.53
  Q 225.50 130.75 225.15 130.34
  Q 200.61 101.44 172.30 79.64
  Q 160.81 70.80 145.66 62.94
  Q 145.22 62.71 144.79 62.97
  Q 143.37 63.81 142.07 64.83
  Q 112.87 87.75 91.72 118.38
  A 1.32 1.27 -32.2 0 0 91.50 119.27
  C 94.96 149.48 103.78 178.93 115.59 206.86
  Q 115.77 207.30 116.17 207.03
  Q 194.32 154.41 281.99 121.04
  Q 318.99 106.96 355.48 99.70
  Q 372.61 96.30 392.17 96.19
  Q 392.71 96.18 392.42 95.72
  C 384.66 83.71 375.68 72.28 364.14 63.52
  Q 323.96 33.01 274.17 23.64
  Q 265.79 22.07 257.68 22.21
  C 222.08 22.81 187.34 34.44 157.64 53.95
  Q 157.16 54.27 157.66 54.56
  C 188.19 72.29 214.97 97.69 237.41 124.73
  Q 237.79 125.18 237.25 125.42
  Z
  M 176.84 27.98
  C 162.82 31.84 148.49 37.48 135.46 44.47
  Q 134.84 44.80 135.50 45.03
  L 143.08 47.63
  A 0.99 0.98 -52.7 0 0 143.98 47.50
  Q 159.68 36.57 177.01 28.45
  Q 179.67 27.20 176.84 27.98
  Z
  M 118.53 54.83
  A 1.84 1.80 29.5 0 0 117.40 55.13
  Q 111.05 59.24 104.78 64.04
  C 95.28 71.32 91.55 84.85 91.34 96.56
  Q 91.33 97.12 91.68 96.69
  Q 108.91 75.06 130.42 57.65
  Q 131.01 57.17 130.29 56.95
  Q 124.54 55.16 118.53 54.83
  Z
  M 33.61 279.27
  C 30.08 225.33 43.97 171.69 71.79 125.40
  Q 72.05 124.97 71.99 124.46
  Q 70.27 110.68 70.99 96.83
  A 0.25 0.24 66.2 0 0 70.56 96.66
  C 25.48 150.30 9.54 221.05 26.89 289.04
  A 0.23 0.23 0.0 0 0 27.30 289.11
  L 33.38 280.12
  Q 33.65 279.73 33.61 279.27
  Z
  M 249.38 397.61
  Q 269.75 415.46 294.42 426.61
  A 1.20 1.20 0.0 0 0 295.37 426.64
  Q 296.33 426.27 297.24 425.78
  Q 323.76 411.37 345.57 390.52
  Q 345.94 390.17 345.95 389.67
  Q 346.21 381.09 345.49 374.50
  C 341.24 335.13 326.54 294.75 309.61 259.93
  Q 309.35 259.38 308.83 259.70
  Q 253.52 293.17 193.51 317.25
  Q 193.01 317.45 192.69 317.01
  L 185.59 307.12
  A 0.42 0.41 -28.7 0 1 185.78 306.49
  Q 246.91 282.13 303.22 248.05
  A 0.54 0.54 0.0 0 0 303.42 247.34
  Q 282.33 205.97 255.25 168.26
  A 0.41 0.40 -29.6 0 1 255.42 167.65
  L 266.56 162.83
  Q 267.08 162.61 267.41 163.07
  Q 293.71 199.98 314.36 240.33
  Q 314.61 240.82 315.08 240.53
  Q 357.18 214.73 391.86 182.62
  Q 404.91 170.53 416.99 154.50
  Q 417.31 154.07 417.19 153.56
  Q 412.60 135.23 404.72 118.07
  A 1.80 1.79 -9.0 0 0 403.31 117.05
  C 379.70 114.21 353.86 119.58 331.00 126.17
  Q 292.15 137.36 256.46 152.95
  Q 194.42 180.04 137.62 216.86
  Q 130.94 221.19 124.45 225.85
  Q 124.02 226.17 124.24 226.65
  Q 159.11 301.46 213.69 363.33
  Q 214.08 363.77 213.49 363.75
  Q 202.16 363.31 192.88 369.71
  A 0.64 0.64 0.0 0 1 192.04 369.60
  Q 141.38 309.57 107.60 238.63
  Q 107.39 238.18 106.99 238.48
  C 85.83 253.97 64.23 272.59 48.35 293.62
  A 1.23 1.21 59.7 0 0 48.12 294.52
  Q 51.01 314.83 57.59 334.27
  A 1.92 1.92 0.0 0 0 59.35 335.57
  C 86.68 336.36 113.83 330.40 139.83 322.43
  A 0.75 0.73 64.3 0 1 140.66 322.73
  L 147.60 332.91
  Q 147.91 333.37 147.38 333.55
  C 120.23 342.42 91.44 348.92 63.78 348.47
  Q 63.21 348.47 63.44 349.00
  Q 74.94 375.82 94.57 397.43
  Q 97.35 400.50 107.87 407.82
  Q 109.68 409.08 111.99 409.44
  Q 135.92 413.18 157.20 424.76
  Q 158.48 425.45 160.49 425.64
  Q 173.38 426.87 187.25 430.87
  Q 187.82 431.03 188.02 430.48
  L 191.07 421.93
  Q 191.23 421.48 191.10 421.02
  C 188.06 410.76 185.68 402.80 188.74 392.01
  C 192.35 379.23 206.18 370.84 219.17 375.06
  C 232.26 379.32 239.79 393.07 238.12 406.47
  Q 235.63 426.49 217.04 433.95
  Q 216.56 434.15 216.41 434.64
  L 214.38 441.26
  A 0.61 0.61 0.0 0 0 214.84 442.04
  Q 223.30 443.75 231.55 446.33
  Q 233.82 447.04 236.03 446.70
  Q 253.46 444.03 270.13 437.87
  Q 270.67 437.66 270.16 437.38
  Q 256.77 429.83 244.67 420.35
  A 0.61 0.61 0.0 0 1 244.52 419.56
  Q 250.43 409.51 248.94 397.85
  Q 248.84 397.14 249.38 397.61
  Z
  M 75.28 146.26
  A 0.05 0.05 0.0 0 0 75.20 146.23
  Q 74.57 146.75 74.20 147.49
  C 55.79 183.45 45.41 224.15 45.99 264.70
  A 0.15 0.14 66.4 0 0 46.24 264.80
  Q 70.36 239.94 98.52 219.72
  A 0.75 0.74 60.2 0 0 98.76 218.82
  Q 83.81 184.27 75.28 146.26
  Z
  M 357.44 411.14
  C 439.72 353.06 472.02 247.41 433.65 153.51
  Q 433.51 153.15 433.22 153.41
  Q 430.89 155.46 431.27 157.24
  C 449.52 242.31 420.34 333.48 359.41 395.11
  Q 359.06 395.46 359.00 395.95
  L 357.01 410.88
  Q 356.93 411.49 357.44 411.14
  Z
  M 358.61 376.43
  Q 358.67 377.01 359.05 376.57
  C 408.49 320.85 432.23 245.43 420.93 171.36
  A 0.22 0.22 0.0 0 0 420.55 171.25
  C 392.33 203.49 356.98 229.76 320.76 252.25
  A 0.58 0.57 -29.6 0 0 320.55 252.99
  C 339.45 291.52 354.23 333.25 358.61 376.43
  Z
  M 42.35 329.01
  L 38.22 312.77
  Q 38.16 312.54 38.06 312.76
  Q 36.17 316.84 37.32 319.46
  Q 39.78 325.05 41.96 329.16
  Q 42.78 330.72 42.35 329.01
  Z
  M 314.25 431.24
  C 323.31 431.68 328.57 428.27 336.82 423.77
  Q 338.83 422.67 339.84 420.87
  Q 342.60 415.95 343.71 410.22
  Q 343.86 409.42 343.23 409.95
  Q 329.50 421.53 314.17 430.90
  Q 313.67 431.21 314.25 431.24
  Z"
/>
</svg>
