<?xml version="1.0" encoding="UTF-8" standalone="no"?>
<!DOCTYPE svg PUBLIC "-//W3C//DTD SVG 1.1//EN" "http://www.w3.org/Graphics/SVG/1.1/DTD/svg11.dtd">
<svg xmlns="http://www.w3.org/2000/svg" version="1.1" viewBox="0.00 0.00 373.00 368.00">
<g stroke-width="2.00" fill="none" stroke-linecap="butt">
<path stroke="#8099d0" vector-effect="non-scaling-stroke" d="
  M 62.32 205.16
  C 78.00 230.88 102.49 248.76 131.85 255.10
  Q 174.26 264.26 211.92 241.42
  A 0.09 0.09 0.0 0 1 212.03 241.55
  L 118.80 340.78
  Q 118.43 341.17 118.96 341.27
  Q 121.82 341.82 124.64 341.34
  Q 126.47 341.03 128.00 339.40
  Q 173.12 291.32 218.31 243.31
  C 236.57 223.90 257.25 199.52 261.60 172.25
  Q 263.06 163.07 263.66 153.78
  A 0.14 0.14 0.0 0 1 263.93 153.76
  L 305.12 340.85
  Q 305.26 341.46 305.87 341.45
  L 310.88 341.40
  Q 311.55 341.39 311.40 340.75
  Q 292.02 255.28 273.15 169.70
  C 267.61 144.55 263.07 118.32 249.98 95.46
  C 246.91 90.10 243.18 87.71 237.37 86.74
  Q 236.76 86.64 237.13 87.14
  Q 253.30 108.84 257.28 135.18
  C 261.13 160.59 254.09 187.30 239.36 208.09
  C 208.46 251.70 148.54 265.02 102.47 237.02
  Q 65.16 214.34 54.87 171.58
  C 42.04 118.23 75.68 63.01 128.51 49.16
  C 161.09 40.63 193.03 47.56 220.00 68.55
  C 223.06 70.93 228.60 71.35 232.36 72.55
  A 0.29 0.29 0.0 0 0 232.65 72.07
  Q 213.18 52.95 187.00 45.15
  A 0.15 0.15 0.0 0 1 187.04 44.86
  L 350.92 45.96
  Q 351.56 45.96 351.53 45.33
  L 351.34 41.25
  Q 351.31 40.67 350.73 40.67
  Q 210.17 39.36 156.50 39.45
  Q 113.06 39.52 82.04 67.93
  C 54.18 93.43 42.04 129.63 47.48 166.92
  Q 48.50 173.89 51.71 186.47
  C 59.27 216.08 68.24 245.37 76.60 274.77
  A 0.69 0.68 -7.8 0 0 77.26 275.26
  L 82.20 275.25
  Q 82.90 275.24 82.70 274.57
  L 62.13 205.25
  Q 61.89 204.47 62.32 205.16"
/>
<path stroke="#8099d0" vector-effect="non-scaling-stroke" d="
  M 299.88 219.13
  Q 297.63 225.50 291.11 236.44
  Q 290.87 236.84 290.98 237.31
  L 292.51 244.02
  A 0.48 0.48 0.0 0 0 293.38 244.17
  Q 306.45 223.54 311.09 199.70
  C 312.34 193.24 314.18 182.78 315.10 174.76
  Q 320.72 125.66 326.12 66.88
  Q 326.16 66.40 325.69 66.40
  L 320.93 66.37
  Q 320.29 66.37 320.23 67.00
  L 310.78 165.27
  Q 310.40 169.28 309.88 165.29
  Q 304.81 126.46 276.13 99.98
  C 254.96 80.44 226.31 69.97 197.74 71.27
  Q 152.11 73.35 120.85 108.19
  Q 120.54 108.53 120.90 108.82
  L 124.82 111.96
  Q 125.31 112.35 125.73 111.88
  C 158.27 75.46 210.60 66.67 252.89 90.34
  C 292.97 112.77 312.91 160.97 303.42 205.44
  Q 301.45 214.67 299.88 219.13"
/>
<path stroke="#8099d0" vector-effect="non-scaling-stroke" d="
  M 73.03 156.92
  C 78.94 169.93 98.53 172.83 109.71 165.12
  A 1.04 1.03 78.4 0 0 110.14 164.46
  L 111.05 160.03
  A 0.52 0.52 0.0 0 0 110.17 159.56
  C 100.19 169.64 83.48 167.09 78.85 153.18
  C 75.32 142.58 80.14 128.89 91.99 126.54
  Q 101.40 124.67 108.66 131.67
  A 0.40 0.39 30.8 0 0 109.31 131.51
  L 110.79 126.96
  A 0.65 0.64 20.4 0 0 110.42 126.16
  C 96.63 120.53 78.38 122.17 72.34 137.50
  C 69.86 143.79 70.26 150.81 73.03 156.92"
/>
<path stroke="#8099d0" vector-effect="non-scaling-stroke" d="
  M 227.17 155.92
  L 195.85 123.44
  A 1.22 1.21 22.3 0 0 193.76 124.31
  Q 194.34 146.07 193.40 167.77
  Q 193.37 168.37 193.97 168.35
  L 198.37 168.23
  Q 198.82 168.21 198.81 167.77
  L 198.17 136.06
  A 0.36 0.36 0.0 0 1 198.79 135.81
  Q 214.34 151.81 229.33 168.41
  Q 230.33 169.52 231.61 169.23
  A 0.62 0.62 0.0 0 0 232.09 168.64
  L 232.46 124.41
  Q 232.46 124.11 232.17 124.12
  L 227.57 124.20
  Q 227.10 124.21 227.11 124.68
  L 227.82 155.65
  A 0.38 0.38 0.0 0 1 227.17 155.92"
/>
<path stroke="#8099d0" vector-effect="non-scaling-stroke" d="
  M 124.76 163.56
  L 124.77 147.92
  Q 124.78 147.12 125.58 147.15
  L 140.48 147.73
  A 0.45 0.44 -88.8 0 0 140.94 147.28
  L 140.92 143.49
  Q 140.92 143.07 140.50 143.09
  L 125.34 143.68
  A 0.59 0.59 0.0 0 1 124.73 143.08
  L 125.09 128.23
  A 0.65 0.65 0.0 0 1 125.78 127.60
  L 144.67 128.52
  A 0.44 0.44 0.0 0 0 145.13 128.08
  L 145.13 124.55
  Q 145.13 124.21 144.80 124.21
  L 118.40 124.25
  Q 118.10 124.25 118.11 124.55
  Q 119.05 146.13 118.10 167.70
  Q 118.08 168.28 118.66 168.28
  L 145.31 168.25
  A 0.57 0.57 0.0 0 0 145.88 167.69
  L 145.92 164.51
  Q 145.93 163.58 145.01 163.61
  L 125.56 164.33
  Q 124.76 164.36 124.76 163.56"
/>
<path stroke="#8099d0" vector-effect="non-scaling-stroke" d="
  M 170.47 146.52
  C 177.16 145.07 182.47 142.09 182.84 134.51
  C 183.25 126.00 175.30 123.57 168.74 123.92
  Q 159.56 124.41 154.01 124.14
  Q 153.57 124.12 153.59 124.56
  Q 154.53 146.15 153.59 167.75
  Q 153.56 168.36 154.17 168.35
  L 160.18 168.26
  A 0.42 0.42 0.0 0 0 160.60 167.83
  L 160.23 147.59
  Q 160.22 146.97 160.82 146.83
  Q 163.00 146.30 164.47 148.05
  Q 172.40 157.46 179.02 167.95
  A 0.89 0.89 0.0 0 0 179.79 168.36
  L 186.99 168.27
  Q 187.61 168.26 187.21 167.79
  L 170.20 147.31
  Q 169.69 146.69 170.47 146.52"
/>
<path stroke="#8099d0" vector-effect="non-scaling-stroke" d="
  M 110.18 237.58
  Q 113.28 239.06 115.13 239.73
  A 0.42 0.41 84.0 0 0 115.62 239.12
  Q 100.48 214.77 99.21 186.00
  Q 99.19 185.50 98.69 185.50
  L 93.82 185.55
  Q 93.23 185.56 93.25 186.14
  Q 93.95 208.59 103.15 228.84
  C 105.37 233.73 105.76 235.48 110.18 237.58"
/>
<path stroke="#8099d0" vector-effect="non-scaling-stroke" d="
  M 178.28 290.76
  C 216.88 300.14 257.04 286.28 283.42 257.35
  A 1.22 1.22 0.0 0 0 283.71 256.26
  L 282.39 250.36
  Q 282.22 249.60 281.71 250.18
  Q 242.60 294.70 182.76 285.66
  Q 182.33 285.59 182.03 285.91
  L 178.09 290.11
  A 0.39 0.39 0.0 0 0 178.28 290.76"
/>
<path stroke="#8099d0" vector-effect="non-scaling-stroke" d="
  M 119.71 255.79
  C 132.44 269.76 147.29 279.39 164.99 286.81
  A 0.77 0.77 0.0 0 0 165.85 286.63
  L 169.68 282.67
  A 0.53 0.53 0.0 0 0 169.46 281.80
  Q 148.89 274.81 132.78 260.11
  Q 130.87 258.37 128.69 257.69
  Q 124.45 256.36 119.97 255.34
  Q 119.13 255.15 119.71 255.79"
/>
<path stroke="#8099d0" vector-effect="non-scaling-stroke" d="
  M 160.39 127.15
  L 160.39 143.69
  A 0.28 0.28 0.0 0 0 160.67 143.97
  L 166.61 143.97
  A 9.88 8.04 -0.0 0 0 176.49 135.93
  L 176.49 134.91
  A 9.88 8.04 0.0 0 0 166.61 126.87
  L 160.67 126.87
  A 0.28 0.28 0.0 0 0 160.39 127.15"
/>
</g>
<path fill="#ffffff" d="
  M 0.00 0.00
  L 373.00 0.00
  L 373.00 368.00
  L 0.00 368.00
  L 0.00 0.00
  Z
  M 62.32 205.16
  C 78.00 230.88 102.49 248.76 131.85 255.10
  Q 174.26 264.26 211.92 241.42
  A 0.09 0.09 0.0 0 1 212.03 241.55
  L 118.80 340.78
  Q 118.43 341.17 118.96 341.27
  Q 121.82 341.82 124.64 341.34
  Q 126.47 341.03 128.00 339.40
  Q 173.12 291.32 218.31 243.31
  C 236.57 223.90 257.25 199.52 261.60 172.25
  Q 263.06 163.07 263.66 153.78
  A 0.14 0.14 0.0 0 1 263.93 153.76
  L 305.12 340.85
  Q 305.26 341.46 305.87 341.45
  L 310.88 341.40
  Q 311.55 341.39 311.40 340.75
  Q 292.02 255.28 273.15 169.70
  C 267.61 144.55 263.07 118.32 249.98 95.46
  C 246.91 90.10 243.18 87.71 237.37 86.74
  Q 236.76 86.64 237.13 87.14
  Q 253.30 108.84 257.28 135.18
  C 261.13 160.59 254.09 187.30 239.36 208.09
  C 208.46 251.70 148.54 265.02 102.47 237.02
  Q 65.16 214.34 54.87 171.58
  C 42.04 118.23 75.68 63.01 128.51 49.16
  C 161.09 40.63 193.03 47.56 220.00 68.55
  C 223.06 70.93 228.60 71.35 232.36 72.55
  A 0.29 0.29 0.0 0 0 232.65 72.07
  Q 213.18 52.95 187.00 45.15
  A 0.15 0.15 0.0 0 1 187.04 44.86
  L 350.92 45.96
  Q 351.56 45.96 351.53 45.33
  L 351.34 41.25
  Q 351.31 40.67 350.73 40.67
  Q 210.17 39.36 156.50 39.45
  Q 113.06 39.52 82.04 67.93
  C 54.18 93.43 42.04 129.63 47.48 166.92
  Q 48.50 173.89 51.71 186.47
  C 59.27 216.08 68.24 245.37 76.60 274.77
  A 0.69 0.68 -7.8 0 0 77.26 275.26
  L 82.20 275.25
  Q 82.90 275.24 82.70 274.57
  L 62.13 205.25
  Q 61.89 204.47 62.32 205.16
  Z
  M 299.88 219.13
  Q 297.63 225.50 291.11 236.44
  Q 290.87 236.84 290.98 237.31
  L 292.51 244.02
  A 0.48 0.48 0.0 0 0 293.38 244.17
  Q 306.45 223.54 311.09 199.70
  C 312.34 193.24 314.18 182.78 315.10 174.76
  Q 320.72 125.66 326.12 66.88
  Q 326.16 66.40 325.69 66.40
  L 320.93 66.37
  Q 320.29 66.37 320.23 67.00
  L 310.78 165.27
  Q 310.40 169.28 309.88 165.29
  Q 304.81 126.46 276.13 99.98
  C 254.96 80.44 226.31 69.97 197.74 71.27
  Q 152.11 73.35 120.85 108.19
  Q 120.54 108.53 120.90 108.82
  L 124.82 111.96
  Q 125.31 112.35 125.73 111.88
  C 158.27 75.46 210.60 66.67 252.89 90.34
  C 292.97 112.77 312.91 160.97 303.42 205.44
  Q 301.45 214.67 299.88 219.13
  Z
  M 73.03 156.92
  C 78.94 169.93 98.53 172.83 109.71 165.12
  A 1.04 1.03 78.4 0 0 110.14 164.46
  L 111.05 160.03
  A 0.52 0.52 0.0 0 0 110.17 159.56
  C 100.19 169.64 83.48 167.09 78.85 153.18
  C 75.32 142.58 80.14 128.89 91.99 126.54
  Q 101.40 124.67 108.66 131.67
  A 0.40 0.39 30.8 0 0 109.31 131.51
  L 110.79 126.96
  A 0.65 0.64 20.4 0 0 110.42 126.16
  C 96.63 120.53 78.38 122.17 72.34 137.50
  C 69.86 143.79 70.26 150.81 73.03 156.92
  Z
  M 227.17 155.92
  L 195.85 123.44
  A 1.22 1.21 22.3 0 0 193.76 124.31
  Q 194.34 146.07 193.40 167.77
  Q 193.37 168.37 193.97 168.35
  L 198.37 168.23
  Q 198.82 168.21 198.81 167.77
  L 198.17 136.06
  A 0.36 0.36 0.0 0 1 198.79 135.81
  Q 214.34 151.81 229.33 168.41
  Q 230.33 169.52 231.61 169.23
  A 0.62 0.62 0.0 0 0 232.09 168.64
  L 232.46 124.41
  Q 232.46 124.11 232.17 124.12
  L 227.57 124.20
  Q 227.10 124.21 227.11 124.68
  L 227.82 155.65
  A 0.38 0.38 0.0 0 1 227.17 155.92
  Z
  M 124.76 163.56
  L 124.77 147.92
  Q 124.78 147.12 125.58 147.15
  L 140.48 147.73
  A 0.45 0.44 -88.8 0 0 140.94 147.28
  L 140.92 143.49
  Q 140.92 143.07 140.50 143.09
  L 125.34 143.68
  A 0.59 0.59 0.0 0 1 124.73 143.08
  L 125.09 128.23
  A 0.65 0.65 0.0 0 1 125.78 127.60
  L 144.67 128.52
  A 0.44 0.44 0.0 0 0 145.13 128.08
  L 145.13 124.55
  Q 145.13 124.21 144.80 124.21
  L 118.40 124.25
  Q 118.10 124.25 118.11 124.55
  Q 119.05 146.13 118.10 167.70
  Q 118.08 168.28 118.66 168.28
  L 145.31 168.25
  A 0.57 0.57 0.0 0 0 145.88 167.69
  L 145.92 164.51
  Q 145.93 163.58 145.01 163.61
  L 125.56 164.33
  Q 124.76 164.36 124.76 163.56
  Z
  M 170.47 146.52
  C 177.16 145.07 182.47 142.09 182.84 134.51
  C 183.25 126.00 175.30 123.57 168.74 123.92
  Q 159.56 124.41 154.01 124.14
  Q 153.57 124.12 153.59 124.56
  Q 154.53 146.15 153.59 167.75
  Q 153.56 168.36 154.17 168.35
  L 160.18 168.26
  A 0.42 0.42 0.0 0 0 160.60 167.83
  L 160.23 147.59
  Q 160.22 146.97 160.82 146.83
  Q 163.00 146.30 164.47 148.05
  Q 172.40 157.46 179.02 167.95
  A 0.89 0.89 0.0 0 0 179.79 168.36
  L 186.99 168.27
  Q 187.61 168.26 187.21 167.79
  L 170.20 147.31
  Q 169.69 146.69 170.47 146.52
  Z
  M 110.18 237.58
  Q 113.28 239.06 115.13 239.73
  A 0.42 0.41 84.0 0 0 115.62 239.12
  Q 100.48 214.77 99.21 186.00
  Q 99.19 185.50 98.69 185.50
  L 93.82 185.55
  Q 93.23 185.56 93.25 186.14
  Q 93.95 208.59 103.15 228.84
  C 105.37 233.73 105.76 235.48 110.18 237.58
  Z
  M 178.28 290.76
  C 216.88 300.14 257.04 286.28 283.42 257.35
  A 1.22 1.22 0.0 0 0 283.71 256.26
  L 282.39 250.36
  Q 282.22 249.60 281.71 250.18
  Q 242.60 294.70 182.76 285.66
  Q 182.33 285.59 182.03 285.91
  L 178.09 290.11
  A 0.39 0.39 0.0 0 0 178.28 290.76
  Z
  M 119.71 255.79
  C 132.44 269.76 147.29 279.39 164.99 286.81
  A 0.77 0.77 0.0 0 0 165.85 286.63
  L 169.68 282.67
  A 0.53 0.53 0.0 0 0 169.46 281.80
  Q 148.89 274.81 132.78 260.11
  Q 130.87 258.37 128.69 257.69
  Q 124.45 256.36 119.97 255.34
  Q 119.13 255.15 119.71 255.79
  Z"
/>
<path fill="#0033a0" d="
  M 62.13 205.25
  L 82.70 274.57
  Q 82.90 275.24 82.20 275.25
  L 77.26 275.26
  A 0.69 0.68 -7.8 0 1 76.60 274.77
  C 68.24 245.37 59.27 216.08 51.71 186.47
  Q 48.50 173.89 47.48 166.92
  C 42.04 129.63 54.18 93.43 82.04 67.93
  Q 113.06 39.52 156.50 39.45
  Q 210.17 39.36 350.73 40.67
  Q 351.31 40.67 351.34 41.25
  L 351.53 45.33
  Q 351.56 45.96 350.92 45.96
  L 187.04 44.86
  A 0.15 0.15 0.0 0 0 187.00 45.15
  Q 213.18 52.95 232.65 72.07
  A 0.29 0.29 0.0 0 1 232.36 72.55
  C 228.60 71.35 223.06 70.93 220.00 68.55
  C 193.03 47.56 161.09 40.63 128.51 49.16
  C 75.68 63.01 42.04 118.23 54.87 171.58
  Q 65.16 214.34 102.47 237.02
  C 148.54 265.02 208.46 251.70 239.36 208.09
  C 254.09 187.30 261.13 160.59 257.28 135.18
  Q 253.30 108.84 237.13 87.14
  Q 236.76 86.64 237.37 86.74
  C 243.18 87.71 246.91 90.10 249.98 95.46
  C 263.07 118.32 267.61 144.55 273.15 169.70
  Q 292.02 255.28 311.40 340.75
  Q 311.55 341.39 310.88 341.40
  L 305.87 341.45
  Q 305.26 341.46 305.12 340.85
  L 263.93 153.76
  A 0.14 0.14 0.0 0 0 263.66 153.78
  Q 263.06 163.07 261.60 172.25
  C 257.25 199.52 236.57 223.90 218.31 243.31
  Q 173.12 291.32 128.00 339.40
  Q 126.47 341.03 124.64 341.34
  Q 121.82 341.82 118.96 341.27
  Q 118.43 341.17 118.80 340.78
  L 212.03 241.55
  A 0.09 0.09 0.0 0 0 211.92 241.42
  Q 174.26 264.26 131.85 255.10
  C 102.49 248.76 78.00 230.88 62.32 205.16
  Q 61.89 204.47 62.13 205.25
  Z"
/>
<path fill="#0033a0" d="
  M 299.88 219.13
  Q 301.45 214.67 303.42 205.44
  C 312.91 160.97 292.97 112.77 252.89 90.34
  C 210.60 66.67 158.27 75.46 125.73 111.88
  Q 125.31 112.35 124.82 111.96
  L 120.90 108.82
  Q 120.54 108.53 120.85 108.19
  Q 152.11 73.35 197.74 71.27
  C 226.31 69.97 254.96 80.44 276.13 99.98
  Q 304.81 126.46 309.88 165.29
  Q 310.40 169.28 310.78 165.27
  L 320.23 67.00
  Q 320.29 66.37 320.93 66.37
  L 325.69 66.40
  Q 326.16 66.40 326.12 66.88
  Q 320.72 125.66 315.10 174.76
  C 314.18 182.78 312.34 193.24 311.09 199.70
  Q 306.45 223.54 293.38 244.17
  A 0.48 0.48 0.0 0 1 292.51 244.02
  L 290.98 237.31
  Q 290.87 236.84 291.11 236.44
  Q 297.63 225.50 299.88 219.13
  Z"
/>
<path fill="#0033a0" d="
  M 73.03 156.92
  C 70.26 150.81 69.86 143.79 72.34 137.50
  C 78.38 122.17 96.63 120.53 110.42 126.16
  A 0.65 0.64 20.4 0 1 110.79 126.96
  L 109.31 131.51
  A 0.40 0.39 30.8 0 1 108.66 131.67
  Q 101.40 124.67 91.99 126.54
  C 80.14 128.89 75.32 142.58 78.85 153.18
  C 83.48 167.09 100.19 169.64 110.17 159.56
  A 0.52 0.52 0.0 0 1 111.05 160.03
  L 110.14 164.46
  A 1.04 1.03 78.4 0 1 109.71 165.12
  C 98.53 172.83 78.94 169.93 73.03 156.92
  Z"
/>
<path fill="#0033a0" d="
  M 195.85 123.44
  L 227.17 155.92
  A 0.38 0.38 0.0 0 0 227.82 155.65
  L 227.11 124.68
  Q 227.10 124.21 227.57 124.20
  L 232.17 124.12
  Q 232.46 124.11 232.46 124.41
  L 232.09 168.64
  A 0.62 0.62 0.0 0 1 231.61 169.23
  Q 230.33 169.52 229.33 168.41
  Q 214.34 151.81 198.79 135.81
  A 0.36 0.36 0.0 0 0 198.17 136.06
  L 198.81 167.77
  Q 198.82 168.21 198.37 168.23
  L 193.97 168.35
  Q 193.37 168.37 193.40 167.77
  Q 194.34 146.07 193.76 124.31
  A 1.22 1.21 22.3 0 1 195.85 123.44
  Z"
/>
<path fill="#0033a0" d="
  M 125.56 164.33
  L 145.01 163.61
  Q 145.93 163.58 145.92 164.51
  L 145.88 167.69
  A 0.57 0.57 0.0 0 1 145.31 168.25
  L 118.66 168.28
  Q 118.08 168.28 118.10 167.70
  Q 119.05 146.13 118.11 124.55
  Q 118.10 124.25 118.40 124.25
  L 144.80 124.21
  Q 145.13 124.21 145.13 124.55
  L 145.13 128.08
  A 0.44 0.44 0.0 0 1 144.67 128.52
  L 125.78 127.60
  A 0.65 0.65 0.0 0 0 125.09 128.23
  L 124.73 143.08
  A 0.59 0.59 0.0 0 0 125.34 143.68
  L 140.50 143.09
  Q 140.92 143.07 140.92 143.49
  L 140.94 147.28
  A 0.45 0.44 -88.8 0 1 140.48 147.73
  L 125.58 147.15
  Q 124.78 147.12 124.77 147.92
  L 124.76 163.56
  Q 124.76 164.36 125.56 164.33
  Z"
/>
<path fill="#0033a0" d="
  M 170.20 147.31
  L 187.21 167.79
  Q 187.61 168.26 186.99 168.27
  L 179.79 168.36
  A 0.89 0.89 0.0 0 1 179.02 167.95
  Q 172.40 157.46 164.47 148.05
  Q 163.00 146.30 160.82 146.83
  Q 160.22 146.97 160.23 147.59
  L 160.60 167.83
  A 0.42 0.42 0.0 0 1 160.18 168.26
  L 154.17 168.35
  Q 153.56 168.36 153.59 167.75
  Q 154.53 146.15 153.59 124.56
  Q 153.57 124.12 154.01 124.14
  Q 159.56 124.41 168.74 123.92
  C 175.30 123.57 183.25 126.00 182.84 134.51
  C 182.47 142.09 177.16 145.07 170.47 146.52
  Q 169.69 146.69 170.20 147.31
  Z
  M 160.39 127.15
  L 160.39 143.69
  A 0.28 0.28 0.0 0 0 160.67 143.97
  L 166.61 143.97
  A 9.88 8.04 -0.0 0 0 176.49 135.93
  L 176.49 134.91
  A 9.88 8.04 0.0 0 0 166.61 126.87
  L 160.67 126.87
  A 0.28 0.28 0.0 0 0 160.39 127.15
  Z"
/>
<path fill="#ffffff" d="
  M 160.39 127.15
  A 0.28 0.28 0.0 0 1 160.67 126.87
  L 166.61 126.87
  A 9.88 8.04 0.0 0 1 176.49 134.91
  L 176.49 135.93
  A 9.88 8.04 -0.0 0 1 166.61 143.97
  L 160.67 143.97
  A 0.28 0.28 0.0 0 1 160.39 143.69
  L 160.39 127.15
  Z"
/>
<path fill="#0033a0" d="
  M 110.18 237.58
  C 105.76 235.48 105.37 233.73 103.15 228.84
  Q 93.95 208.59 93.25 186.14
  Q 93.23 185.56 93.82 185.55
  L 98.69 185.50
  Q 99.19 185.50 99.21 186.00
  Q 100.48 214.77 115.62 239.12
  A 0.42 0.41 84.0 0 1 115.13 239.73
  Q 113.28 239.06 110.18 237.58
  Z"
/>
<path fill="#0033a0" d="
  M 283.42 257.35
  C 257.04 286.28 216.88 300.14 178.28 290.76
  A 0.39 0.39 0.0 0 1 178.09 290.11
  L 182.03 285.91
  Q 182.33 285.59 182.76 285.66
  Q 242.60 294.70 281.71 250.18
  Q 282.22 249.60 282.39 250.36
  L 283.71 256.26
  A 1.22 1.22 0.0 0 1 283.42 257.35
  Z"
/>
<path fill="#0033a0" d="
  M 164.99 286.81
  C 147.29 279.39 132.44 269.76 119.71 255.79
  Q 119.13 255.15 119.97 255.34
  Q 124.45 256.36 128.69 257.69
  Q 130.87 258.37 132.78 260.11
  Q 148.89 274.81 169.46 281.80
  A 0.53 0.53 0.0 0 1 169.68 282.67
  L 165.85 286.63
  A 0.77 0.77 0.0 0 1 164.99 286.81
  Z"
/>
</svg>
