<?xml version="1.0" encoding="UTF-8" standalone="no"?>
<!DOCTYPE svg PUBLIC "-//W3C//DTD SVG 1.1//EN" "http://www.w3.org/Graphics/SVG/1.1/DTD/svg11.dtd">
<svg xmlns="http://www.w3.org/2000/svg" version="1.1" viewBox="0.00 0.00 1161.00 481.00">
<g stroke-width="2.00" fill="none" stroke-linecap="butt">
<path stroke="#bf88c2" vector-effect="non-scaling-stroke" d="
  M 649.37 53.00
  L 647.00 36.15
  A 3.38 3.37 86.0 0 0 643.66 33.24
  L 616.52 33.24
  Q 616.05 33.24 616.05 32.77
  L 616.06 15.75
  A 0.41 0.41 0.0 0 0 615.65 15.34
  L 545.25 15.34
  Q 544.67 15.34 544.28 15.77
  L 525.73 36.67
  A 0.29 0.29 0.0 0 0 525.95 37.16
  L 531.64 37.15
  Q 532.31 37.15 532.03 37.76
  L 525.09 52.82
  Q 524.85 53.34 524.29 53.19
  Q 484.14 42.14 443.98 31.10
  C 437.20 29.24 433.91 29.33 427.76 31.81
  Q 366.36 56.62 304.93 81.46
  A 0.28 0.28 0.0 0 0 304.84 81.92
  Q 316.47 93.44 328.17 105.04
  C 330.54 107.40 332.99 108.86 336.10 107.60
  Q 386.62 87.24 437.19 66.77
  Q 437.62 66.59 438.06 66.72
  L 534.54 94.19
  Q 535.18 94.37 535.18 93.71
  L 535.15 86.44
  A 1.92 1.92 0.0 0 1 537.07 84.51
  L 556.52 84.50
  Q 557.04 84.50 557.04 83.98
  L 557.04 40.68
  A 1.79 1.78 90.0 0 1 558.82 38.89
  L 573.96 38.88
  A 1.58 1.58 0.0 0 1 575.54 40.46
  L 575.54 100.52
  A 1.90 1.89 -90.0 0 1 573.65 102.42
  L 554.25 102.42
  Q 553.67 102.42 553.67 103.00
  L 553.67 212.26
  A 1.93 1.92 0.0 0 1 551.74 214.18
  L 537.16 214.17
  A 2.01 2.01 0.0 0 1 535.15 212.16
  L 535.16 167.41
  Q 535.16 166.89 534.66 166.73
  L 488.25 152.23
  Q 487.74 152.07 487.76 152.61
  Q 488.54 180.57 496.64 204.81
  Q 503.00 223.83 519.33 235.78
  C 529.89 243.50 542.89 246.74 552.18 255.57
  C 563.24 266.09 565.62 282.97 582.48 286.26
  Q 597.50 289.19 607.48 279.25
  C 611.00 275.74 614.36 270.00 617.41 265.34
  C 622.92 256.95 627.12 252.31 635.45 248.19
  C 642.85 244.53 652.31 239.94 658.63 235.12
  C 672.18 224.77 678.86 211.98 683.25 195.15
  Q 688.71 174.24 689.42 152.54
  Q 689.44 152.04 688.97 152.19
  L 642.27 166.75
  Q 641.73 166.92 641.73 167.48
  L 641.73 211.86
  A 1.84 1.84 0.0 0 1 639.89 213.70
  L 624.82 213.66
  A 1.59 1.59 0.0 0 1 623.23 212.07
  L 623.23 187.62
  Q 623.23 187.01 622.62 187.01
  L 598.69 187.00
  Q 598.12 187.00 598.12 187.56
  L 598.12 211.54
  A 2.15 2.15 0.0 0 1 595.96 213.69
  L 581.33 213.69
  A 1.74 1.74 0.0 0 1 579.60 211.95
  L 579.59 132.72
  A 1.94 1.94 0.0 0 1 581.53 130.78
  L 639.75 130.77
  A 1.99 1.98 0.0 0 1 641.74 132.75
  L 641.73 152.49
  A 0.41 0.41 0.0 0 0 642.25 152.88
  L 738.28 125.48
  Q 738.83 125.32 739.35 125.55
  Q 766.21 137.19 793.02 148.95
  C 797.19 150.78 801.65 151.58 804.88 148.38
  Q 819.44 133.95 833.85 119.54
  Q 834.23 119.16 833.74 118.95
  Q 791.16 100.45 748.39 81.86
  C 743.38 79.68 737.98 80.12 732.32 81.83
  Q 687.02 95.55 641.73 109.37
  Q 641.25 109.51 641.25 110.02
  L 641.25 124.71
  A 1.96 1.96 0.0 0 1 639.29 126.67
  L 581.54 126.67
  A 1.95 1.95 0.0 0 1 579.59 124.72
  L 579.58 108.91
  A 1.73 1.73 0.0 0 1 581.31 107.18
  L 600.04 107.18
  Q 600.51 107.18 600.52 106.71
  L 600.54 103.70
  Q 600.55 103.10 599.95 103.10
  L 581.46 103.09
  A 1.88 1.87 90.0 0 1 579.59 101.21
  L 579.58 85.56
  A 1.96 1.95 -89.9 0 1 581.54 83.60
  L 599.95 83.61
  Q 600.50 83.61 600.51 83.05
  L 600.55 80.53
  Q 600.56 80.01 600.03 80.01
  L 580.93 79.90
  A 1.72 1.71 0.2 0 1 579.22 78.19
  L 579.22 40.58
  A 1.70 1.69 -0.0 0 1 580.92 38.89
  L 596.05 38.88
  A 1.68 1.67 -0.0 0 1 597.73 40.55
  L 597.73 60.82
  Q 597.73 61.41 598.32 61.41
  L 599.92 61.43
  Q 600.53 61.44 600.53 60.83
  L 600.53 40.68
  A 1.79 1.79 0.0 0 1 602.32 38.89
  L 617.20 38.88
  A 1.83 1.82 -0.0 0 1 619.03 40.70
  L 619.02 60.84
  Q 619.02 61.40 619.59 61.40
  L 621.67 61.41
  Q 622.25 61.42 622.25 60.83
  L 622.26 40.57
  A 1.68 1.67 90.0 0 1 623.93 38.89
  L 639.06 38.88
  A 1.69 1.68 0.0 0 1 640.75 40.56
  L 640.75 78.20
  A 1.72 1.71 89.8 0 1 639.05 79.92
  L 619.51 80.01
  Q 619.03 80.01 619.03 80.49
  L 619.02 82.93
  A 0.67 0.66 90.0 0 0 619.68 83.60
  L 639.43 83.61
  A 1.83 1.82 0.2 0 1 641.25 85.43
  L 641.25 93.98
  A 0.38 0.38 0.0 0 0 641.73 94.35
  L 738.74 66.73
  Q 739.21 66.60 739.66 66.78
  Q 789.56 86.94 839.47 107.10
  C 841.77 108.02 845.18 108.51 846.85 106.88
  Q 859.45 94.47 871.81 82.06
  Q 872.27 81.60 871.67 81.36
  Q 811.99 57.23 752.15 33.05
  C 746.24 30.65 741.80 28.69 736.74 30.04
  Q 693.25 41.66 649.79 53.28
  A 0.34 0.34 0.0 0 1 649.37 53.00"
/>
<path stroke="#bf88c2" vector-effect="non-scaling-stroke" d="
  M 384.17 148.80
  C 401.87 141.00 419.61 133.35 437.25 125.62
  Q 437.97 125.31 438.73 125.52
  L 534.61 152.89
  Q 535.16 153.05 535.16 152.48
  L 535.16 109.75
  A 0.53 0.52 8.2 0 0 534.78 109.25
  Q 489.78 95.55 444.78 81.89
  C 439.56 80.31 433.75 79.57 429.23 81.53
  Q 386.28 100.18 343.11 118.95
  A 0.39 0.38 56.1 0 0 342.99 119.58
  Q 357.00 133.51 371.19 147.56
  C 375.26 151.60 378.99 151.08 384.17 148.80"
/>
<path stroke="#bf88c2" vector-effect="non-scaling-stroke" d="
  M 640.0068 103.6517
  A 0.67 0.67 0.0 0 0 639.3356 102.9828
  L 619.6757 103.0172
  A 0.67 0.67 0.0 0 0 619.0068 103.6883
  L 619.0132 107.3483
  A 0.67 0.67 0.0 0 0 619.6844 108.0172
  L 639.3443 107.9828
  A 0.67 0.67 0.0 0 0 640.0132 107.3117
  L 640.0068 103.6517"
/>
<path stroke="#bf88c2" vector-effect="non-scaling-stroke" d="
  M 601.9340 150.8166
  A 0.81 0.81 0.0 0 0 601.1226 150.0080
  L 598.8426 150.0120
  A 0.81 0.81 0.0 0 0 598.0340 150.8234
  L 598.0660 169.1834
  A 0.81 0.81 0.0 0 0 598.8774 169.9920
  L 601.1574 169.9880
  A 0.81 0.81 0.0 0 0 601.9660 169.1766
  L 601.9340 150.8166"
/>
<path stroke="#bf88c2" vector-effect="non-scaling-stroke" d="
  M 622.9539 150.7566
  A 0.76 0.76 0.0 0 0 622.1926 149.9979
  L 619.7726 150.0021
  A 0.76 0.76 0.0 0 0 619.0139 150.7635
  L 619.0461 169.2234
  A 0.76 0.76 0.0 0 0 619.8074 169.9821
  L 622.2274 169.9779
  A 0.76 0.76 0.0 0 0 622.9861 169.2165
  L 622.9539 150.7566"
/>
<path stroke="#bf88c2" vector-effect="non-scaling-stroke" d="
  M 847.51 366.68
  C 847.53 364.01 848.16 360.74 846.15 358.78
  C 844.15 356.84 840.48 357.00 838.71 359.33
  C 837.43 361.02 837.84 364.61 837.78 366.71
  Q 837.76 367.27 837.21 367.26
  Q 824.96 367.11 816.25 367.81
  C 812.42 368.11 808.62 372.22 812.64 375.37
  C 814.17 376.56 816.75 376.44 818.50 376.30
  Q 827.84 375.54 837.23 375.20
  Q 837.80 375.18 837.80 375.75
  L 837.79 379.60
  Q 837.79 380.15 837.23 380.15
  Q 831.95 380.18 823.02 381.06
  C 817.48 381.61 814.52 384.39 814.41 390.06
  Q 814.23 399.32 814.28 408.71
  A 1.36 1.36 0.0 0 0 814.80 409.76
  Q 818.74 412.83 822.81 409.82
  A 1.08 1.08 0.0 0 0 823.24 409.02
  Q 823.69 400.42 824.21 391.82
  C 824.44 387.91 828.28 388.45 831.03 388.75
  Q 831.49 388.80 831.50 389.26
  L 831.68 398.04
  Q 831.70 398.64 831.10 398.63
  Q 828.20 398.61 826.00 399.93
  C 822.22 402.20 825.41 406.88 828.75 406.73
  Q 842.96 406.09 857.16 406.27
  C 858.91 406.29 861.20 405.62 861.80 404.03
  C 863.60 399.23 857.98 398.87 854.96 398.38
  Q 854.39 398.29 854.42 397.72
  L 854.83 389.10
  A 0.54 0.54 0.0 0 1 855.44 388.59
  L 862.12 389.56
  Q 862.79 389.66 862.80 390.34
  L 863.12 408.32
  A 1.20 1.18 -67.7 0 0 863.44 409.11
  Q 866.57 412.47 870.80 410.63
  A 2.79 2.79 0.0 0 0 872.47 408.15
  Q 872.72 399.31 872.77 390.25
  C 872.79 385.11 871.12 381.99 865.87 381.43
  Q 856.98 380.50 848.01 380.23
  Q 847.53 380.21 847.52 379.73
  L 847.51 375.77
  Q 847.50 375.27 848.00 375.26
  Q 860.14 375.01 872.24 375.78
  C 877.75 376.14 878.45 368.05 871.22 367.71
  Q 859.65 367.16 848.06 367.23
  Q 847.50 367.24 847.51 366.68"
/>
<path stroke="#bf88c2" vector-effect="non-scaling-stroke" d="
  M 479.52 413.65
  Q 477.84 414.60 476.78 416.01
  A 1.60 1.54 -27.7 0 0 476.47 416.94
  Q 476.55 424.91 475.15 432.75
  Q 474.61 435.78 475.41 437.20
  C 477.05 440.11 483.17 439.52 484.30 436.72
  Q 487.74 428.22 486.76 416.01
  A 1.26 1.24 -71.3 0 0 486.36 415.19
  Q 484.00 413.08 479.52 413.65"
/>
<path stroke="#bf88c2" vector-effect="non-scaling-stroke" d="
  M 479.52 413.65
  C 485.60 413.37 496.95 411.35 498.89 404.41
  C 501.48 395.17 500.83 385.23 500.07 374.25
  C 499.69 368.73 491.65 367.73 486.87 367.64
  Q 483.13 367.56 473.20 366.84
  A 0.74 0.72 83.0 0 1 472.55 366.32
  Q 470.91 360.86 466.14 358.49
  C 462.40 356.63 459.00 358.62 458.38 362.61
  A 0.89 0.85 -59.5 0 0 458.53 363.24
  L 460.57 366.19
  Q 461.01 366.84 460.22 366.84
  C 451.56 366.84 439.67 366.29 433.37 372.57
  A 1.27 1.22 69.0 0 0 433.01 373.43
  Q 432.96 382.59 433.05 391.75
  Q 433.13 400.15 434.51 403.51
  C 439.57 415.81 468.90 414.58 479.52 413.65"
/>
<path stroke="#bf88c2" vector-effect="non-scaling-stroke" d="
  M 796.90 376.90
  C 793.37 380.60 788.07 383.10 783.77 385.28
  Q 781.24 386.57 780.47 388.00
  C 778.43 391.84 782.51 395.01 786.24 393.81
  C 792.43 391.82 804.04 385.80 806.93 379.50
  C 810.57 371.59 796.85 357.30 788.89 358.09
  C 784.79 358.50 783.38 361.99 786.47 365.05
  C 789.48 368.02 796.15 370.35 797.18 375.99
  A 1.07 1.05 -28.6 0 1 796.90 376.90"
/>
<path stroke="#bf88c2" vector-effect="non-scaling-stroke" d="
  M 983.41 372.66
  Q 983.72 369.57 984.19 366.54
  C 985.35 359.17 973.76 358.84 973.52 365.50
  Q 973.15 375.72 973.01 385.99
  Q 973.00 386.50 972.49 386.50
  L 950.76 386.50
  Q 950.28 386.50 950.28 386.01
  L 950.27 380.75
  Q 950.27 380.12 950.91 380.13
  Q 956.39 380.26 961.87 380.51
  C 964.34 380.62 966.76 379.97 967.16 377.35
  C 968.21 370.53 954.56 371.65 950.84 371.56
  Q 950.30 371.55 950.30 371.01
  L 950.27 362.76
  A 1.51 1.47 24.5 0 0 949.88 361.76
  C 946.91 358.50 939.70 358.21 939.71 364.23
  Q 939.72 367.60 939.47 371.09
  Q 939.44 371.60 938.93 371.60
  C 935.07 371.65 919.79 370.29 921.01 377.59
  C 921.59 381.06 924.16 381.93 927.48 381.41
  Q 933.28 380.51 939.18 380.26
  Q 939.69 380.24 939.69 380.75
  L 939.71 386.50
  Q 939.71 387.01 939.20 387.01
  Q 923.71 386.95 919.47 387.08
  C 912.87 387.28 912.76 396.01 920.11 395.77
  Q 930.47 395.43 940.87 395.23
  Q 941.41 395.22 941.41 395.76
  L 941.41 399.77
  Q 941.41 400.25 940.92 400.26
  Q 935.68 400.33 924.53 400.84
  C 916.40 401.21 916.95 410.26 924.59 409.64
  Q 932.64 408.98 940.73 408.78
  Q 941.42 408.77 941.41 409.46
  L 941.40 410.71
  Q 941.39 411.29 940.81 411.26
  C 934.67 411.04 926.48 410.74 922.23 415.74
  Q 921.91 416.10 921.89 416.59
  Q 921.40 425.87 922.25 430.77
  C 923.82 439.90 933.51 440.91 940.74 441.36
  Q 941.32 441.39 941.28 441.97
  L 941.24 442.75
  Q 941.21 443.29 940.67 443.28
  Q 929.51 443.11 922.57 443.83
  Q 920.23 444.08 918.17 446.21
  Q 917.83 446.57 917.77 447.06
  C 917.25 451.02 919.69 452.82 923.53 452.64
  Q 932.09 452.23 940.70 451.81
  Q 941.22 451.78 941.22 452.30
  Q 941.28 457.07 941.18 461.82
  Q 941.09 465.59 941.70 466.90
  C 943.30 470.33 949.09 470.27 951.14 467.23
  C 952.79 464.77 951.65 455.54 951.57 452.27
  Q 951.56 451.75 952.08 451.75
  Q 959.18 451.72 966.26 452.13
  C 974.37 452.60 974.30 444.62 967.49 443.81
  Q 961.48 443.11 952.11 443.28
  Q 951.54 443.29 951.44 442.73
  L 951.33 442.03
  Q 951.22 441.38 951.87 441.34
  Q 956.15 441.09 961.48 439.76
  C 965.89 438.66 968.11 436.41 968.72 431.73
  Q 969.45 426.14 969.10 419.05
  C 968.95 416.14 968.40 414.15 965.40 413.07
  Q 958.83 410.69 951.69 411.39
  Q 951.06 411.45 951.06 410.82
  L 951.04 409.35
  A 0.59 0.58 -89.5 0 1 951.63 408.76
  Q 958.35 408.86 965.05 408.73
  C 972.32 408.59 970.08 400.93 964.74 400.86
  Q 958.20 400.78 951.60 400.42
  Q 951.02 400.39 951.02 399.81
  L 951.03 395.48
  Q 951.03 395.00 951.52 395.00
  L 973.57 395.00
  Q 974.00 395.00 974.13 395.41
  L 978.24 408.48
  Q 978.37 408.90 978.19 409.31
  Q 974.56 417.31 975.64 427.75
  Q 977.01 440.98 982.88 450.40
  C 985.84 455.15 993.34 466.81 998.95 468.00
  C 1003.70 469.01 1006.95 463.82 1002.95 460.07
  C 992.22 450.00 984.48 435.82 985.40 420.74
  Q 985.43 420.17 985.82 420.60
  Q 990.65 425.94 996.10 430.63
  C 999.66 433.70 1007.96 438.82 1010.48 432.42
  C 1011.07 430.93 1010.36 428.92 1009.11 428.12
  Q 997.93 420.97 991.63 411.56
  Q 989.61 408.53 993.24 408.78
  Q 998.04 409.11 1002.74 409.84
  C 1008.52 410.74 1010.51 403.54 1004.48 401.84
  Q 995.10 399.20 986.87 401.79
  Q 986.36 401.95 986.21 401.43
  L 984.44 395.58
  Q 984.26 394.96 984.90 394.97
  Q 996.34 395.09 1007.77 395.35
  C 1015.27 395.53 1015.16 387.26 1008.49 387.04
  Q 991.16 386.47 983.49 386.46
  Q 983.00 386.45 983.00 385.96
  L 982.98 381.54
  Q 982.98 381.06 983.46 381.06
  C 989.03 380.99 1003.27 380.19 1003.89 372.56
  C 1004.13 369.64 1005.55 363.38 1003.70 361.16
  C 1001.18 358.13 995.08 358.84 994.79 363.79
  C 994.63 366.43 994.74 369.26 993.31 371.60
  Q 992.94 372.20 992.25 372.27
  L 983.93 373.18
  Q 983.35 373.24 983.41 372.66"
/>
<path stroke="#bf88c2" vector-effect="non-scaling-stroke" d="
  M 1070.35 417.32
  Q 1070.42 440.16 1070.61 463.00
  C 1070.65 467.68 1073.56 471.30 1078.07 468.77
  C 1079.22 468.12 1080.30 466.47 1080.28 465.24
  Q 1079.88 440.36 1079.97 415.43
  Q 1079.97 414.90 1080.50 414.79
  C 1085.43 413.74 1095.26 411.77 1091.24 405.63
  C 1089.64 403.19 1082.93 404.51 1080.48 404.88
  Q 1079.99 404.96 1079.99 404.46
  L 1080.06 391.98
  Q 1080.06 391.35 1080.69 391.32
  Q 1085.35 391.14 1090.01 390.90
  C 1097.24 390.52 1095.27 382.37 1090.49 382.44
  Q 1085.73 382.50 1080.80 382.44
  Q 1080.30 382.43 1080.29 381.92
  Q 1080.13 369.18 1080.26 365.50
  C 1080.56 356.73 1069.74 358.59 1069.94 364.00
  Q 1070.27 373.22 1070.23 382.46
  Q 1070.23 382.97 1069.73 382.99
  L 1062.04 383.34
  Q 1061.48 383.37 1061.60 382.82
  C 1062.24 379.88 1064.35 372.84 1062.56 370.36
  C 1060.50 367.49 1054.49 368.64 1053.41 372.35
  C 1052.01 377.18 1049.03 387.37 1054.26 390.84
  C 1057.37 392.90 1065.99 391.58 1069.92 391.52
  Q 1070.39 391.51 1070.39 391.99
  L 1070.41 406.51
  Q 1070.41 406.98 1069.96 407.09
  Q 1062.21 409.06 1054.47 411.13
  Q 1052.72 411.60 1051.56 414.87
  A 1.29 1.28 -46.4 0 0 1051.58 415.80
  C 1053.44 420.26 1057.17 419.22 1061.75 418.49
  Q 1065.78 417.85 1069.81 416.90
  Q 1070.34 416.78 1070.35 417.32"
/>
<path stroke="#bf88c2" vector-effect="non-scaling-stroke" d="
  M 176.45 366.23
  Q 163.59 366.39 153.29 367.54
  Q 150.75 367.83 148.80 369.77
  Q 148.43 370.13 148.37 370.63
  C 147.75 375.40 150.95 376.79 155.18 376.25
  Q 165.78 374.88 176.52 374.45
  Q 177.12 374.42 177.13 375.02
  L 177.26 381.21
  A 1.84 1.84 0.0 0 1 175.65 383.08
  Q 170.65 383.73 166.01 383.96
  C 159.89 384.26 155.92 385.22 153.41 390.70
  C 151.07 395.82 146.60 413.03 158.02 411.83
  Q 169.61 410.60 174.76 410.33
  A 1.07 1.06 -18.8 0 1 175.71 410.79
  C 177.69 413.66 177.26 418.51 176.30 421.54
  Q 175.82 423.07 174.00 424.39
  C 161.42 433.59 158.32 451.22 157.98 465.77
  Q 157.92 468.66 158.99 469.99
  C 160.94 472.40 165.54 471.86 167.21 469.19
  Q 167.89 468.11 168.06 465.49
  C 168.83 454.03 171.16 443.10 178.67 434.07
  C 181.08 431.17 185.01 430.78 186.38 426.87
  C 188.21 421.60 189.13 408.88 184.51 404.11
  C 180.53 399.99 168.03 402.10 162.64 402.72
  A 0.84 0.84 0.0 0 1 161.71 401.94
  C 161.55 399.48 161.90 394.64 164.31 393.02
  Q 164.71 392.76 165.19 392.75
  Q 173.67 392.67 179.98 391.92
  C 187.00 391.09 187.78 386.40 187.78 379.99
  Q 187.77 372.27 187.73 364.54
  C 187.69 358.32 176.36 358.30 176.98 365.65
  Q 177.03 366.22 176.45 366.23"
/>
<path stroke="#bf88c2" vector-effect="non-scaling-stroke" d="
  M 663.02 371.17
  C 665.10 369.64 667.05 369.65 669.55 369.49
  C 690.33 368.15 707.62 368.91 733.25 369.69
  C 738.94 369.87 739.42 361.31 732.72 360.92
  Q 697.20 358.87 661.77 361.43
  Q 655.90 361.85 653.12 366.58
  Q 652.01 368.47 652.11 371.59
  Q 653.04 400.37 649.53 430.95
  Q 648.09 443.52 642.80 454.15
  C 638.13 463.52 649.62 464.89 652.95 457.73
  C 657.65 447.64 659.34 434.74 660.46 423.74
  Q 663.08 398.05 662.32 372.62
  A 1.77 1.75 71.2 0 1 663.02 371.17"
/>
<path stroke="#bf88c2" vector-effect="non-scaling-stroke" d="
  M 1114.45 377.95
  C 1116.52 372.70 1121.76 362.50 1113.75 360.81
  C 1110.15 360.05 1108.44 361.96 1107.65 365.36
  Q 1104.79 377.65 1098.82 386.07
  Q 1093.24 393.93 1090.59 398.73
  A 1.35 1.30 56.4 0 0 1090.44 399.55
  Q 1091.12 404.72 1095.79 404.36
  C 1101.41 403.93 1107.67 391.75 1110.23 386.41
  Q 1110.47 385.91 1111.03 385.95
  L 1114.73 386.20
  Q 1115.29 386.24 1115.15 386.79
  Q 1109.73 408.21 1092.93 422.12
  Q 1091.04 423.68 1090.58 424.85
  C 1089.33 428.04 1093.15 430.88 1096.03 429.98
  Q 1099.72 428.83 1103.57 425.06
  C 1113.87 414.97 1121.08 401.66 1124.98 387.82
  Q 1125.14 387.25 1125.72 387.34
  L 1128.25 387.74
  Q 1128.76 387.82 1128.62 388.31
  C 1122.16 411.29 1110.04 432.43 1090.27 446.41
  C 1084.21 450.70 1090.33 455.87 1095.53 453.48
  C 1102.49 450.27 1109.16 442.96 1114.36 437.05
  C 1125.21 424.72 1132.81 407.60 1137.38 391.99
  A 0.38 0.38 0.0 0 1 1138.12 392.00
  C 1140.20 400.50 1140.87 413.16 1135.17 420.21
  Q 1131.71 424.49 1131.70 424.50
  C 1127.29 431.31 1124.66 438.81 1127.69 446.77
  C 1129.85 452.46 1142.14 474.47 1150.47 466.75
  Q 1150.83 466.42 1150.90 465.93
  Q 1151.28 463.49 1149.67 461.31
  C 1144.06 453.70 1132.25 443.44 1137.44 433.51
  Q 1137.57 433.25 1142.28 427.53
  C 1148.01 420.57 1149.67 412.40 1149.47 403.43
  C 1149.32 397.20 1148.48 389.60 1144.08 384.74
  C 1138.57 378.66 1122.45 378.93 1114.83 378.53
  Q 1114.24 378.50 1114.45 377.95"
/>
<path stroke="#bf88c2" vector-effect="non-scaling-stroke" d="
  M 51.99 375.96
  Q 42.21 376.09 32.49 376.88
  C 29.03 377.16 22.61 378.89 22.48 382.50
  Q 21.82 400.99 21.51 419.50
  C 21.33 429.97 21.60 443.41 25.60 452.89
  C 32.79 469.91 60.21 469.32 74.74 466.93
  C 91.47 464.18 96.44 453.86 97.37 438.25
  Q 98.94 411.81 96.84 384.23
  C 96.64 381.53 95.66 379.52 93.21 378.55
  Q 88.61 376.72 82.99 376.41
  Q 74.42 375.93 65.73 375.98
  A 0.70 0.69 -7.7 0 1 65.06 375.47
  Q 63.60 370.03 60.23 365.53
  C 57.01 361.23 50.64 359.73 48.79 366.11
  Q 48.67 366.54 48.84 366.96
  L 52.41 375.31
  Q 52.68 375.95 51.99 375.96"
/>
<path stroke="#bf88c2" vector-effect="non-scaling-stroke" d="
  M 310.33 371.99
  Q 312.31 386.82 327.28 387.76
  A 1.76 1.75 -48.1 0 1 327.47 391.24
  Q 307.20 394.80 300.62 415.31
  Q 294.58 434.12 293.03 457.50
  C 292.83 460.56 292.62 464.33 295.29 466.24
  C 298.21 468.34 303.05 466.62 303.39 462.69
  Q 305.03 443.51 308.67 426.05
  Q 310.42 417.67 312.35 413.75
  C 315.42 407.51 320.70 401.82 327.86 400.47
  Q 328.36 400.37 328.36 400.88
  Q 328.41 433.32 328.08 465.75
  Q 328.03 470.89 332.98 471.43
  C 338.99 472.10 339.75 468.47 339.63 463.41
  Q 338.88 432.48 338.79 401.42
  Q 338.79 400.91 339.30 401.00
  Q 353.12 403.56 356.69 416.77
  Q 362.12 436.85 363.19 459.98
  C 363.40 464.60 364.04 467.73 369.54 466.88
  Q 374.03 466.20 373.89 461.50
  Q 373.28 439.84 368.46 418.79
  Q 363.03 395.05 339.20 391.02
  Q 338.75 390.94 338.74 390.48
  L 338.73 387.94
  A 0.63 0.62 88.1 0 1 339.31 387.31
  Q 354.17 386.16 356.26 371.54
  Q 356.34 370.96 356.92 370.99
  Q 365.03 371.31 373.14 371.49
  Q 375.88 371.56 377.20 370.75
  C 379.47 369.37 379.88 366.14 377.95 364.17
  Q 376.75 362.94 375.50 362.88
  Q 336.13 360.94 294.75 363.07
  Q 292.64 363.17 291.00 364.15
  C 288.23 365.80 288.63 369.42 290.99 371.09
  Q 292.30 372.01 294.80 371.89
  Q 302.32 371.54 309.85 371.57
  Q 310.27 371.57 310.33 371.99"
/>
<path stroke="#bf88c2" vector-effect="non-scaling-stroke" d="
  M 219.37 374.20
  C 223.35 361.56 206.38 362.18 209.07 370.16
  A 2.35 2.35 0.0 0 1 207.12 373.25
  Q 204.87 373.52 202.76 373.78
  C 196.69 374.52 192.28 378.80 192.32 385.01
  C 192.38 393.47 202.63 396.95 209.93 397.46
  Q 210.43 397.49 210.43 397.99
  L 210.46 400.98
  Q 210.46 401.42 210.02 401.42
  Q 205.11 401.42 199.21 402.94
  C 190.88 405.09 186.45 412.13 189.80 420.19
  C 192.96 427.78 202.77 429.39 210.44 429.16
  Q 211.09 429.14 210.89 429.75
  C 208.86 436.13 202.45 437.61 198.48 442.14
  C 194.59 446.58 193.77 452.58 196.24 457.92
  C 200.87 467.89 219.37 468.23 228.37 466.02
  C 236.39 464.05 241.41 460.25 241.85 451.76
  Q 242.28 443.67 236.20 438.58
  C 232.32 435.33 224.09 430.62 220.84 436.64
  C 218.53 440.93 226.28 443.06 228.54 445.16
  C 232.30 448.64 232.32 455.72 226.87 457.64
  C 222.07 459.33 206.09 460.48 205.30 452.31
  C 205.06 449.72 206.99 447.30 208.95 445.91
  C 215.42 441.32 219.59 438.37 221.01 430.02
  Q 221.10 429.50 221.62 429.55
  C 229.30 430.20 240.72 428.68 244.33 421.03
  C 247.76 413.74 244.30 405.53 236.31 403.53
  C 232.79 402.65 226.30 401.48 221.37 401.45
  Q 220.86 401.45 220.84 400.94
  L 220.77 398.97
  Q 220.74 398.41 221.31 398.39
  C 229.43 398.09 241.97 395.74 242.02 384.82
  C 242.05 379.35 239.11 375.94 233.92 373.99
  C 230.45 372.68 222.30 371.07 219.67 374.36
  Q 219.08 375.11 219.37 374.20"
/>
<path stroke="#bf88c2" vector-effect="non-scaling-stroke" d="
  M 718.80 401.82
  C 727.93 399.14 728.22 379.70 721.19 374.86
  Q 719.18 373.48 715.03 372.99
  Q 698.83 371.09 682.60 372.66
  Q 677.22 373.18 674.97 374.28
  C 667.96 377.70 667.40 388.17 669.65 394.60
  C 671.58 400.14 674.69 402.97 680.57 403.37
  C 693.68 404.26 707.00 405.29 718.80 401.82"
/>
<path stroke="#bf88c2" vector-effect="non-scaling-stroke" d="
  M 797.65 405.88
  C 797.19 423.40 789.48 442.93 781.56 458.03
  C 779.95 461.10 779.15 466.21 782.98 467.31
  Q 787.31 468.54 789.68 464.44
  Q 806.94 434.68 807.42 400.20
  Q 807.45 397.89 806.33 396.62
  C 799.57 389.02 784.48 404.23 780.10 409.10
  C 778.34 411.05 776.53 413.17 777.41 415.89
  Q 778.21 418.34 780.78 418.67
  C 784.33 419.12 786.38 416.55 788.39 413.90
  Q 790.11 411.64 797.13 405.64
  Q 797.67 405.18 797.65 405.88"
/>
<path stroke="#bf88c2" vector-effect="non-scaling-stroke" d="
  M 695.19 441.67
  C 693.78 448.30 692.82 455.70 686.13 459.73
  Q 683.45 461.35 682.84 462.34
  C 680.68 465.91 685.09 469.75 688.67 468.65
  C 700.55 464.97 704.57 452.71 705.41 441.02
  A 0.61 0.59 -88.9 0 1 705.98 440.46
  C 713.49 440.17 730.43 437.97 735.49 431.80
  A 1.15 1.13 60.3 0 0 735.73 430.88
  C 734.91 426.27 731.23 425.67 727.27 427.26
  Q 717.43 431.20 706.75 432.28
  Q 706.23 432.33 706.33 431.83
  Q 706.74 429.62 708.58 428.78
  C 712.58 426.94 716.44 425.12 718.30 421.20
  C 720.19 417.18 718.78 412.81 715.52 409.91
  C 710.15 405.14 697.54 404.87 690.38 406.04
  C 683.23 407.21 675.09 412.54 678.23 421.11
  Q 679.76 425.27 684.37 427.04
  C 687.89 428.39 694.19 429.59 695.72 425.66
  C 697.91 420.00 689.06 423.03 688.08 417.54
  C 687.01 411.53 702.66 414.02 705.42 414.96
  C 709.04 416.20 708.47 419.59 705.57 421.30
  C 700.44 424.33 696.59 425.20 695.71 431.91
  Q 695.64 432.44 695.11 432.41
  Q 683.75 431.75 673.02 425.73
  Q 668.93 423.44 665.49 426.21
  C 661.30 429.59 666.82 433.45 669.79 434.73
  Q 681.71 439.90 694.70 441.00
  Q 695.32 441.06 695.19 441.67"
/>
<path stroke="#bf88c2" vector-effect="non-scaling-stroke" d="
  M 839.61 419.19
  Q 847.71 419.16 871.75 419.75
  C 877.34 419.89 877.17 412.09 872.68 411.81
  Q 851.83 410.52 821.25 411.65
  Q 818.48 411.75 815.76 412.30
  C 811.49 413.18 811.38 418.45 815.08 419.87
  Q 816.24 420.31 819.00 420.17
  Q 825.70 419.84 832.47 419.51
  Q 833.28 419.48 832.66 419.99
  Q 830.45 421.84 830.54 423.74
  C 830.83 430.50 830.25 438.42 831.99 444.31
  C 834.19 451.70 838.12 456.89 844.58 461.60
  C 849.64 465.28 862.79 473.80 868.95 470.92
  C 871.45 469.75 872.63 466.77 870.62 464.60
  Q 869.81 463.72 867.56 462.93
  C 858.52 459.76 842.20 451.45 841.24 440.76
  Q 840.91 437.05 841.47 423.97
  C 841.55 422.00 840.87 420.89 839.41 419.77
  Q 838.68 419.20 839.61 419.19"
/>
<path stroke="#bf88c2" vector-effect="non-scaling-stroke" d="
  M 438.08 439.54
  Q 441.54 430.29 440.98 418.72
  C 440.71 412.91 433.56 413.03 430.90 416.36
  Q 429.80 417.73 429.82 420.72
  Q 429.87 427.91 428.37 434.93
  Q 427.64 438.32 427.99 439.63
  C 429.14 444.02 436.65 443.35 438.08 439.54"
/>
<path stroke="#bf88c2" vector-effect="non-scaling-stroke" d="
  M 477.70 463.33
  Q 490.85 468.25 500.78 470.40
  Q 507.83 471.93 510.49 471.47
  C 515.70 470.58 516.53 463.39 511.83 462.56
  C 495.43 459.66 462.06 454.72 462.21 433.00
  Q 462.26 425.89 462.22 418.79
  C 462.19 413.39 454.55 412.80 452.27 416.01
  Q 451.17 417.57 451.21 421.62
  Q 451.32 431.45 451.53 434.51
  C 452.57 449.51 464.27 458.30 477.70 463.33"
/>
<path stroke="#bf88c2" vector-effect="non-scaling-stroke" d="
  M 506.96 419.56
  C 506.91 413.96 500.17 413.20 497.47 416.47
  Q 496.30 417.90 496.32 420.70
  Q 496.36 429.49 495.35 433.02
  C 494.65 435.47 494.03 437.78 496.64 439.31
  C 501.14 441.95 504.53 438.30 505.38 434.12
  Q 507.01 426.23 506.96 419.56"
/>
<path stroke="#bf88c2" vector-effect="non-scaling-stroke" d="
  M 847.70 441.84
  C 855.38 443.63 856.10 429.75 855.97 424.82
  C 855.90 422.32 855.06 421.17 852.66 420.66
  C 848.12 419.71 846.38 421.62 846.26 426.05
  Q 846.16 429.94 845.69 433.79
  C 845.37 436.44 843.05 440.76 847.70 441.84"
/>
<path stroke="#bf88c2" vector-effect="non-scaling-stroke" d="
  M 864.41 441.96
  C 868.37 440.04 869.93 430.26 870.05 426.67
  Q 870.16 423.57 868.63 422.15
  C 866.63 420.28 860.46 420.77 860.33 424.24
  Q 860.02 432.42 858.54 437.61
  C 857.38 441.69 861.31 443.47 864.41 441.96"
/>
<path stroke="#bf88c2" vector-effect="non-scaling-stroke" d="
  M 816.10 443.91
  C 825.00 447.11 826.62 431.72 826.33 426.43
  C 826.08 421.83 819.84 421.57 817.40 424.02
  Q 816.31 425.12 816.25 427.79
  Q 816.13 433.75 814.06 440.26
  C 813.56 441.82 814.56 443.36 816.10 443.91"
/>
<path stroke="#bf88c2" vector-effect="non-scaling-stroke" d="
  M 553.66 40.75
  A 1.86 1.86 0.0 0 0 551.80 38.89
  L 537.02 38.89
  A 1.86 1.86 0.0 0 0 535.16 40.75
  L 535.16 78.41
  A 1.86 1.86 0.0 0 0 537.02 80.27
  L 551.80 80.27
  A 1.86 1.86 0.0 0 0 553.66 78.41
  L 553.66 40.75"
/>
<path stroke="#bf88c2" vector-effect="non-scaling-stroke" d="
  M 575.54 108.28
  A 1.81 1.81 0.0 0 0 573.73 106.47
  L 558.85 106.47
  A 1.81 1.81 0.0 0 0 557.04 108.28
  L 557.04 211.94
  A 1.81 1.81 0.0 0 0 558.85 213.75
  L 573.73 213.75
  A 1.81 1.81 0.0 0 0 575.54 211.94
  L 575.54 108.28"
/>
<path stroke="#bf88c2" vector-effect="non-scaling-stroke" d="
  M 845.8427 388.5163
  A 0.27 0.27 0.0 0 0 845.5774 388.2416
  L 840.8981 388.1599
  A 0.27 0.27 0.0 0 0 840.6235 388.4252
  L 840.4573 397.9437
  A 0.27 0.27 0.0 0 0 840.7226 398.2184
  L 845.4019 398.3001
  A 0.27 0.27 0.0 0 0 845.6765 398.0348
  L 845.8427 388.5163"
/>
<path stroke="#bf88c2" vector-effect="non-scaling-stroke" d="
  M 444.46 376.92
  Q 442.36 377.77 443.26 380.16
  Q 443.36 380.43 443.64 380.43
  L 490.65 380.01
  Q 491.18 380.01 491.12 379.48
  L 490.90 377.38
  Q 490.83 376.74 490.19 376.67
  Q 470.48 374.53 450.75 375.90
  Q 446.16 376.22 444.46 376.92"
/>
<path stroke="#bf88c2" vector-effect="non-scaling-stroke" d="
  M 490.83 388.40
  C 473.88 387.66 459.41 387.60 443.30 388.73
  Q 442.78 388.77 442.78 389.30
  L 442.77 391.94
  Q 442.77 392.44 443.26 392.43
  L 491.02 392.15
  A 0.42 0.41 -0.7 0 0 491.44 391.73
  L 491.39 388.98
  Q 491.38 388.42 490.83 388.40"
/>
<path stroke="#bf88c2" vector-effect="non-scaling-stroke" d="
  M 489.71 400.17
  L 444.41 399.85
  A 0.01 0.01 0.0 0 0 444.40 399.86
  L 444.40 399.91
  A 16.85 5.40 0.4 0 0 461.21 405.43
  L 472.83 405.51
  A 16.85 5.40 0.4 0 0 489.72 400.23
  L 489.72 400.18
  A 0.01 0.01 0.0 0 0 489.71 400.17"
/>
<path stroke="#bf88c2" vector-effect="non-scaling-stroke" d="
  M 932.34 419.68
  A 0.31 0.31 0.0 0 0 932.07 419.93
  L 931.59 422.12
  A 0.31 0.31 0.0 0 0 931.90 422.50
  L 941.07 422.50
  A 0.31 0.31 0.0 0 0 941.38 422.19
  L 941.37 419.00
  A 0.31 0.31 0.0 0 0 941.03 418.69
  L 932.34 419.68"
/>
<path stroke="#bf88c2" vector-effect="non-scaling-stroke" d="
  M 951.26 419.23
  L 951.20 421.75
  A 0.27 0.27 0.0 0 0 951.47 422.03
  L 953.71 422.08
  A 6.13 0.80 1.3 0 0 959.85 421.42
  L 959.89 419.96
  A 6.13 0.80 1.3 0 0 953.78 419.02
  L 951.54 418.97
  A 0.27 0.27 0.0 0 0 951.26 419.23"
/>
<path stroke="#bf88c2" vector-effect="non-scaling-stroke" d="
  M 957.26 432.75
  A 0.61 0.61 0.0 0 0 957.58 432.57
  L 959.50 430.55
  A 0.61 0.61 0.0 0 0 959.06 429.52
  L 951.88 429.51
  A 0.61 0.61 0.0 0 0 951.27 430.14
  L 951.38 433.22
  A 0.61 0.61 0.0 0 0 952.12 433.80
  L 957.26 432.75"
/>
<path stroke="#bf88c2" vector-effect="non-scaling-stroke" d="
  M 933.13 430.02
  A 0.78 0.78 0.0 0 0 932.76 431.48
  L 935.20 432.84
  A 0.78 0.78 0.0 0 0 935.45 432.92
  L 940.42 433.75
  A 0.78 0.78 0.0 0 0 941.33 433.00
  L 941.38 430.81
  A 0.78 0.78 0.0 0 0 940.60 430.01
  L 933.13 430.02"
/>
<path stroke="#bf88c2" vector-effect="non-scaling-stroke" d="
  M 35.03 387.54
  A 1.54 1.53 -4.4 0 0 33.76 389.01
  L 33.47 401.74
  Q 33.45 402.28 33.99 402.28
  L 85.81 402.31
  Q 86.18 402.31 86.17 401.94
  L 85.64 388.93
  A 2.51 2.49 89.3 0 0 83.19 386.53
  C 66.99 386.19 50.88 384.75 35.03 387.54"
/>
<path stroke="#bf88c2" vector-effect="non-scaling-stroke" d="
  M 86.21 426.66
  A 0.31 0.31 0.0 0 0 86.53 426.34
  L 86.36 412.01
  A 0.31 0.31 0.0 0 0 86.05 411.70
  L 33.53 411.73
  A 0.31 0.31 0.0 0 0 33.22 412.04
  L 33.08 425.86
  A 0.31 0.31 0.0 0 0 33.39 426.17
  L 86.21 426.66"
/>
<path stroke="#bf88c2" vector-effect="non-scaling-stroke" d="
  M 33.46 436.77
  C 33.72 442.38 34.75 450.15 39.59 453.92
  C 45.70 458.68 60.33 458.73 67.62 457.90
  C 74.61 457.10 80.01 456.06 82.96 449.75
  Q 85.61 444.10 85.94 436.68
  Q 85.96 436.20 85.48 436.20
  L 33.99 436.21
  Q 33.44 436.21 33.46 436.77"
/>
<path stroke="#bf88c2" vector-effect="non-scaling-stroke" d="
  M 345.43 371.01
  L 320.69 371.05
  A 0.11 0.11 0.0 0 0 320.58 371.16
  L 320.58 371.21
  A 11.50 8.28 -0.1 0 0 332.10 379.47
  L 334.06 379.47
  A 11.50 8.28 -0.1 0 0 345.54 371.17
  L 345.54 371.12
  A 0.11 0.11 0.0 0 0 345.43 371.01"
/>
<path stroke="#bf88c2" vector-effect="non-scaling-stroke" d="
  M 218.86 375.50
  C 216.20 379.68 211.50 380.50 206.98 380.88
  Q 203.13 381.21 203.31 385.66
  A 1.05 1.02 21.5 0 0 203.64 386.39
  C 207.82 390.37 230.04 391.71 230.81 384.85
  Q 230.87 384.33 230.51 383.95
  C 228.35 381.62 224.55 381.06 221.55 380.71
  C 219.29 380.45 218.62 377.65 219.10 375.61
  Q 219.28 374.85 218.86 375.50"
/>
<path stroke="#bf88c2" vector-effect="non-scaling-stroke" d="
  M 211.55 420.34
  L 211.30 410.22
  A 0.55 0.55 0.0 0 0 210.74 409.69
  L 210.50 409.69
  A 11.41 5.12 -1.4 0 0 199.22 415.09
  L 199.24 416.07
  A 11.41 5.12 -1.4 0 0 210.78 420.91
  L 211.02 420.90
  A 0.55 0.55 0.0 0 0 211.55 420.34"
/>
<path stroke="#bf88c2" vector-effect="non-scaling-stroke" d="
  M 221.18 410.24
  L 221.16 420.52
  A 0.47 0.47 0.0 0 0 221.63 420.99
  L 221.75 420.99
  A 13.25 5.40 0.1 0 0 235.01 415.61
  L 235.01 415.19
  A 13.25 5.40 0.1 0 0 221.77 409.77
  L 221.65 409.77
  A 0.47 0.47 0.0 0 0 221.18 410.24"
/>
<path stroke="#bf88c2" vector-effect="non-scaling-stroke" d="
  M 715.63 383.57
  C 715.07 381.45 715.03 380.28 712.51 379.92
  Q 695.19 377.47 680.79 381.03
  Q 679.17 381.43 678.86 383.88
  Q 678.81 384.31 679.25 384.31
  L 715.06 384.32
  Q 715.83 384.32 715.63 383.57"
/>
<path stroke="#bf88c2" vector-effect="non-scaling-stroke" d="
  M 715.30 391.71
  L 679.36 391.71
  A 0.14 0.14 0.0 0 0 679.22 391.85
  L 679.22 391.86
  A 11.89 4.65 0.0 0 0 691.11 396.51
  L 703.55 396.51
  A 11.89 4.65 -0.0 0 0 715.44 391.86
  L 715.44 391.85
  A 0.14 0.14 0.0 0 0 715.30 391.71"
/>
</g>
<path fill="#ffffff" d="
  M 0.00 0.00
  L 1161.00 0.00
  L 1161.00 481.00
  L 0.00 481.00
  L 0.00 0.00
  Z
  M 649.37 53.00
  L 647.00 36.15
  A 3.38 3.37 86.0 0 0 643.66 33.24
  L 616.52 33.24
  Q 616.05 33.24 616.05 32.77
  L 616.06 15.75
  A 0.41 0.41 0.0 0 0 615.65 15.34
  L 545.25 15.34
  Q 544.67 15.34 544.28 15.77
  L 525.73 36.67
  A 0.29 0.29 0.0 0 0 525.95 37.16
  L 531.64 37.15
  Q 532.31 37.15 532.03 37.76
  L 525.09 52.82
  Q 524.85 53.34 524.29 53.19
  Q 484.14 42.14 443.98 31.10
  C 437.20 29.24 433.91 29.33 427.76 31.81
  Q 366.36 56.62 304.93 81.46
  A 0.28 0.28 0.0 0 0 304.84 81.92
  Q 316.47 93.44 328.17 105.04
  C 330.54 107.40 332.99 108.86 336.10 107.60
  Q 386.62 87.24 437.19 66.77
  Q 437.62 66.59 438.06 66.72
  L 534.54 94.19
  Q 535.18 94.37 535.18 93.71
  L 535.15 86.44
  A 1.92 1.92 0.0 0 1 537.07 84.51
  L 556.52 84.50
  Q 557.04 84.50 557.04 83.98
  L 557.04 40.68
  A 1.79 1.78 90.0 0 1 558.82 38.89
  L 573.96 38.88
  A 1.58 1.58 0.0 0 1 575.54 40.46
  L 575.54 100.52
  A 1.90 1.89 -90.0 0 1 573.65 102.42
  L 554.25 102.42
  Q 553.67 102.42 553.67 103.00
  L 553.67 212.26
  A 1.93 1.92 0.0 0 1 551.74 214.18
  L 537.16 214.17
  A 2.01 2.01 0.0 0 1 535.15 212.16
  L 535.16 167.41
  Q 535.16 166.89 534.66 166.73
  L 488.25 152.23
  Q 487.74 152.07 487.76 152.61
  Q 488.54 180.57 496.64 204.81
  Q 503.00 223.83 519.33 235.78
  C 529.89 243.50 542.89 246.74 552.18 255.57
  C 563.24 266.09 565.62 282.97 582.48 286.26
  Q 597.50 289.19 607.48 279.25
  C 611.00 275.74 614.36 270.00 617.41 265.34
  C 622.92 256.95 627.12 252.31 635.45 248.19
  C 642.85 244.53 652.31 239.94 658.63 235.12
  C 672.18 224.77 678.86 211.98 683.25 195.15
  Q 688.71 174.24 689.42 152.54
  Q 689.44 152.04 688.97 152.19
  L 642.27 166.75
  Q 641.73 166.92 641.73 167.48
  L 641.73 211.86
  A 1.84 1.84 0.0 0 1 639.89 213.70
  L 624.82 213.66
  A 1.59 1.59 0.0 0 1 623.23 212.07
  L 623.23 187.62
  Q 623.23 187.01 622.62 187.01
  L 598.69 187.00
  Q 598.12 187.00 598.12 187.56
  L 598.12 211.54
  A 2.15 2.15 0.0 0 1 595.96 213.69
  L 581.33 213.69
  A 1.74 1.74 0.0 0 1 579.60 211.95
  L 579.59 132.72
  A 1.94 1.94 0.0 0 1 581.53 130.78
  L 639.75 130.77
  A 1.99 1.98 0.0 0 1 641.74 132.75
  L 641.73 152.49
  A 0.41 0.41 0.0 0 0 642.25 152.88
  L 738.28 125.48
  Q 738.83 125.32 739.35 125.55
  Q 766.21 137.19 793.02 148.95
  C 797.19 150.78 801.65 151.58 804.88 148.38
  Q 819.44 133.95 833.85 119.54
  Q 834.23 119.16 833.74 118.95
  Q 791.16 100.45 748.39 81.86
  C 743.38 79.68 737.98 80.12 732.32 81.83
  Q 687.02 95.55 641.73 109.37
  Q 641.25 109.51 641.25 110.02
  L 641.25 124.71
  A 1.96 1.96 0.0 0 1 639.29 126.67
  L 581.54 126.67
  A 1.95 1.95 0.0 0 1 579.59 124.72
  L 579.58 108.91
  A 1.73 1.73 0.0 0 1 581.31 107.18
  L 600.04 107.18
  Q 600.51 107.18 600.52 106.71
  L 600.54 103.70
  Q 600.55 103.10 599.95 103.10
  L 581.46 103.09
  A 1.88 1.87 90.0 0 1 579.59 101.21
  L 579.58 85.56
  A 1.96 1.95 -89.9 0 1 581.54 83.60
  L 599.95 83.61
  Q 600.50 83.61 600.51 83.05
  L 600.55 80.53
  Q 600.56 80.01 600.03 80.01
  L 580.93 79.90
  A 1.72 1.71 0.2 0 1 579.22 78.19
  L 579.22 40.58
  A 1.70 1.69 -0.0 0 1 580.92 38.89
  L 596.05 38.88
  A 1.68 1.67 -0.0 0 1 597.73 40.55
  L 597.73 60.82
  Q 597.73 61.41 598.32 61.41
  L 599.92 61.43
  Q 600.53 61.44 600.53 60.83
  L 600.53 40.68
  A 1.79 1.79 0.0 0 1 602.32 38.89
  L 617.20 38.88
  A 1.83 1.82 -0.0 0 1 619.03 40.70
  L 619.02 60.84
  Q 619.02 61.40 619.59 61.40
  L 621.67 61.41
  Q 622.25 61.42 622.25 60.83
  L 622.26 40.57
  A 1.68 1.67 90.0 0 1 623.93 38.89
  L 639.06 38.88
  A 1.69 1.68 0.0 0 1 640.75 40.56
  L 640.75 78.20
  A 1.72 1.71 89.8 0 1 639.05 79.92
  L 619.51 80.01
  Q 619.03 80.01 619.03 80.49
  L 619.02 82.93
  A 0.67 0.66 90.0 0 0 619.68 83.60
  L 639.43 83.61
  A 1.83 1.82 0.2 0 1 641.25 85.43
  L 641.25 93.98
  A 0.38 0.38 0.0 0 0 641.73 94.35
  L 738.74 66.73
  Q 739.21 66.60 739.66 66.78
  Q 789.56 86.94 839.47 107.10
  C 841.77 108.02 845.18 108.51 846.85 106.88
  Q 859.45 94.47 871.81 82.06
  Q 872.27 81.60 871.67 81.36
  Q 811.99 57.23 752.15 33.05
  C 746.24 30.65 741.80 28.69 736.74 30.04
  Q 693.25 41.66 649.79 53.28
  A 0.34 0.34 0.0 0 1 649.37 53.00
  Z
  M 384.17 148.80
  C 401.87 141.00 419.61 133.35 437.25 125.62
  Q 437.97 125.31 438.73 125.52
  L 534.61 152.89
  Q 535.16 153.05 535.16 152.48
  L 535.16 109.75
  A 0.53 0.52 8.2 0 0 534.78 109.25
  Q 489.78 95.55 444.78 81.89
  C 439.56 80.31 433.75 79.57 429.23 81.53
  Q 386.28 100.18 343.11 118.95
  A 0.39 0.38 56.1 0 0 342.99 119.58
  Q 357.00 133.51 371.19 147.56
  C 375.26 151.60 378.99 151.08 384.17 148.80
  Z
  M 640.0068 103.6517
  A 0.67 0.67 0.0 0 0 639.3356 102.9828
  L 619.6757 103.0172
  A 0.67 0.67 0.0 0 0 619.0068 103.6883
  L 619.0132 107.3483
  A 0.67 0.67 0.0 0 0 619.6844 108.0172
  L 639.3443 107.9828
  A 0.67 0.67 0.0 0 0 640.0132 107.3117
  L 640.0068 103.6517
  Z
  M 601.9340 150.8166
  A 0.81 0.81 0.0 0 0 601.1226 150.0080
  L 598.8426 150.0120
  A 0.81 0.81 0.0 0 0 598.0340 150.8234
  L 598.0660 169.1834
  A 0.81 0.81 0.0 0 0 598.8774 169.9920
  L 601.1574 169.9880
  A 0.81 0.81 0.0 0 0 601.9660 169.1766
  L 601.9340 150.8166
  Z
  M 622.9539 150.7566
  A 0.76 0.76 0.0 0 0 622.1926 149.9979
  L 619.7726 150.0021
  A 0.76 0.76 0.0 0 0 619.0139 150.7635
  L 619.0461 169.2234
  A 0.76 0.76 0.0 0 0 619.8074 169.9821
  L 622.2274 169.9779
  A 0.76 0.76 0.0 0 0 622.9861 169.2165
  L 622.9539 150.7566
  Z
  M 847.51 366.68
  C 847.53 364.01 848.16 360.74 846.15 358.78
  C 844.15 356.84 840.48 357.00 838.71 359.33
  C 837.43 361.02 837.84 364.61 837.78 366.71
  Q 837.76 367.27 837.21 367.26
  Q 824.96 367.11 816.25 367.81
  C 812.42 368.11 808.62 372.22 812.64 375.37
  C 814.17 376.56 816.75 376.44 818.50 376.30
  Q 827.84 375.54 837.23 375.20
  Q 837.80 375.18 837.80 375.75
  L 837.79 379.60
  Q 837.79 380.15 837.23 380.15
  Q 831.95 380.18 823.02 381.06
  C 817.48 381.61 814.52 384.39 814.41 390.06
  Q 814.23 399.32 814.28 408.71
  A 1.36 1.36 0.0 0 0 814.80 409.76
  Q 818.74 412.83 822.81 409.82
  A 1.08 1.08 0.0 0 0 823.24 409.02
  Q 823.69 400.42 824.21 391.82
  C 824.44 387.91 828.28 388.45 831.03 388.75
  Q 831.49 388.80 831.50 389.26
  L 831.68 398.04
  Q 831.70 398.64 831.10 398.63
  Q 828.20 398.61 826.00 399.93
  C 822.22 402.20 825.41 406.88 828.75 406.73
  Q 842.96 406.09 857.16 406.27
  C 858.91 406.29 861.20 405.62 861.80 404.03
  C 863.60 399.23 857.98 398.87 854.96 398.38
  Q 854.39 398.29 854.42 397.72
  L 854.83 389.10
  A 0.54 0.54 0.0 0 1 855.44 388.59
  L 862.12 389.56
  Q 862.79 389.66 862.80 390.34
  L 863.12 408.32
  A 1.20 1.18 -67.7 0 0 863.44 409.11
  Q 866.57 412.47 870.80 410.63
  A 2.79 2.79 0.0 0 0 872.47 408.15
  Q 872.72 399.31 872.77 390.25
  C 872.79 385.11 871.12 381.99 865.87 381.43
  Q 856.98 380.50 848.01 380.23
  Q 847.53 380.21 847.52 379.73
  L 847.51 375.77
  Q 847.50 375.27 848.00 375.26
  Q 860.14 375.01 872.24 375.78
  C 877.75 376.14 878.45 368.05 871.22 367.71
  Q 859.65 367.16 848.06 367.23
  Q 847.50 367.24 847.51 366.68
  Z
  M 479.52 413.65
  Q 477.84 414.60 476.78 416.01
  A 1.60 1.54 -27.7 0 0 476.47 416.94
  Q 476.55 424.91 475.15 432.75
  Q 474.61 435.78 475.41 437.20
  C 477.05 440.11 483.17 439.52 484.30 436.72
  Q 487.74 428.22 486.76 416.01
  A 1.26 1.24 -71.3 0 0 486.36 415.19
  Q 484.00 413.08 479.52 413.65
  C 485.60 413.37 496.95 411.35 498.89 404.41
  C 501.48 395.17 500.83 385.23 500.07 374.25
  C 499.69 368.73 491.65 367.73 486.87 367.64
  Q 483.13 367.56 473.20 366.84
  A 0.74 0.72 83.0 0 1 472.55 366.32
  Q 470.91 360.86 466.14 358.49
  C 462.40 356.63 459.00 358.62 458.38 362.61
  A 0.89 0.85 -59.5 0 0 458.53 363.24
  L 460.57 366.19
  Q 461.01 366.84 460.22 366.84
  C 451.56 366.84 439.67 366.29 433.37 372.57
  A 1.27 1.22 69.0 0 0 433.01 373.43
  Q 432.96 382.59 433.05 391.75
  Q 433.13 400.15 434.51 403.51
  C 439.57 415.81 468.90 414.58 479.52 413.65
  Z
  M 796.90 376.90
  C 793.37 380.60 788.07 383.10 783.77 385.28
  Q 781.24 386.57 780.47 388.00
  C 778.43 391.84 782.51 395.01 786.24 393.81
  C 792.43 391.82 804.04 385.80 806.93 379.50
  C 810.57 371.59 796.85 357.30 788.89 358.09
  C 784.79 358.50 783.38 361.99 786.47 365.05
  C 789.48 368.02 796.15 370.35 797.18 375.99
  A 1.07 1.05 -28.6 0 1 796.90 376.90
  Z
  M 983.41 372.66
  Q 983.72 369.57 984.19 366.54
  C 985.35 359.17 973.76 358.84 973.52 365.50
  Q 973.15 375.72 973.01 385.99
  Q 973.00 386.50 972.49 386.50
  L 950.76 386.50
  Q 950.28 386.50 950.28 386.01
  L 950.27 380.75
  Q 950.27 380.12 950.91 380.13
  Q 956.39 380.26 961.87 380.51
  C 964.34 380.62 966.76 379.97 967.16 377.35
  C 968.21 370.53 954.56 371.65 950.84 371.56
  Q 950.30 371.55 950.30 371.01
  L 950.27 362.76
  A 1.51 1.47 24.5 0 0 949.88 361.76
  C 946.91 358.50 939.70 358.21 939.71 364.23
  Q 939.72 367.60 939.47 371.09
  Q 939.44 371.60 938.93 371.60
  C 935.07 371.65 919.79 370.29 921.01 377.59
  C 921.59 381.06 924.16 381.93 927.48 381.41
  Q 933.28 380.51 939.18 380.26
  Q 939.69 380.24 939.69 380.75
  L 939.71 386.50
  Q 939.71 387.01 939.20 387.01
  Q 923.71 386.95 919.47 387.08
  C 912.87 387.28 912.76 396.01 920.11 395.77
  Q 930.47 395.43 940.87 395.23
  Q 941.41 395.22 941.41 395.76
  L 941.41 399.77
  Q 941.41 400.25 940.92 400.26
  Q 935.68 400.33 924.53 400.84
  C 916.40 401.21 916.95 410.26 924.59 409.64
  Q 932.64 408.98 940.73 408.78
  Q 941.42 408.77 941.41 409.46
  L 941.40 410.71
  Q 941.39 411.29 940.81 411.26
  C 934.67 411.04 926.48 410.74 922.23 415.74
  Q 921.91 416.10 921.89 416.59
  Q 921.40 425.87 922.25 430.77
  C 923.82 439.90 933.51 440.91 940.74 441.36
  Q 941.32 441.39 941.28 441.97
  L 941.24 442.75
  Q 941.21 443.29 940.67 443.28
  Q 929.51 443.11 922.57 443.83
  Q 920.23 444.08 918.17 446.21
  Q 917.83 446.57 917.77 447.06
  C 917.25 451.02 919.69 452.82 923.53 452.64
  Q 932.09 452.23 940.70 451.81
  Q 941.22 451.78 941.22 452.30
  Q 941.28 457.07 941.18 461.82
  Q 941.09 465.59 941.70 466.90
  C 943.30 470.33 949.09 470.27 951.14 467.23
  C 952.79 464.77 951.65 455.54 951.57 452.27
  Q 951.56 451.75 952.08 451.75
  Q 959.18 451.72 966.26 452.13
  C 974.37 452.60 974.30 444.62 967.49 443.81
  Q 961.48 443.11 952.11 443.28
  Q 951.54 443.29 951.44 442.73
  L 951.33 442.03
  Q 951.22 441.38 951.87 441.34
  Q 956.15 441.09 961.48 439.76
  C 965.89 438.66 968.11 436.41 968.72 431.73
  Q 969.45 426.14 969.10 419.05
  C 968.95 416.14 968.40 414.15 965.40 413.07
  Q 958.83 410.69 951.69 411.39
  Q 951.06 411.45 951.06 410.82
  L 951.04 409.35
  A 0.59 0.58 -89.5 0 1 951.63 408.76
  Q 958.35 408.86 965.05 408.73
  C 972.32 408.59 970.08 400.93 964.74 400.86
  Q 958.20 400.78 951.60 400.42
  Q 951.02 400.39 951.02 399.81
  L 951.03 395.48
  Q 951.03 395.00 951.52 395.00
  L 973.57 395.00
  Q 974.00 395.00 974.13 395.41
  L 978.24 408.48
  Q 978.37 408.90 978.19 409.31
  Q 974.56 417.31 975.64 427.75
  Q 977.01 440.98 982.88 450.40
  C 985.84 455.15 993.34 466.81 998.95 468.00
  C 1003.70 469.01 1006.95 463.82 1002.95 460.07
  C 992.22 450.00 984.48 435.82 985.40 420.74
  Q 985.43 420.17 985.82 420.60
  Q 990.65 425.94 996.10 430.63
  C 999.66 433.70 1007.96 438.82 1010.48 432.42
  C 1011.07 430.93 1010.36 428.92 1009.11 428.12
  Q 997.93 420.97 991.63 411.56
  Q 989.61 408.53 993.24 408.78
  Q 998.04 409.11 1002.74 409.84
  C 1008.52 410.74 1010.51 403.54 1004.48 401.84
  Q 995.10 399.20 986.87 401.79
  Q 986.36 401.95 986.21 401.43
  L 984.44 395.58
  Q 984.26 394.96 984.90 394.97
  Q 996.34 395.09 1007.77 395.35
  C 1015.27 395.53 1015.16 387.26 1008.49 387.04
  Q 991.16 386.47 983.49 386.46
  Q 983.00 386.45 983.00 385.96
  L 982.98 381.54
  Q 982.98 381.06 983.46 381.06
  C 989.03 380.99 1003.27 380.19 1003.89 372.56
  C 1004.13 369.64 1005.55 363.38 1003.70 361.16
  C 1001.18 358.13 995.08 358.84 994.79 363.79
  C 994.63 366.43 994.74 369.26 993.31 371.60
  Q 992.94 372.20 992.25 372.27
  L 983.93 373.18
  Q 983.35 373.24 983.41 372.66
  Z
  M 1070.35 417.32
  Q 1070.42 440.16 1070.61 463.00
  C 1070.65 467.68 1073.56 471.30 1078.07 468.77
  C 1079.22 468.12 1080.30 466.47 1080.28 465.24
  Q 1079.88 440.36 1079.97 415.43
  Q 1079.97 414.90 1080.50 414.79
  C 1085.43 413.74 1095.26 411.77 1091.24 405.63
  C 1089.64 403.19 1082.93 404.51 1080.48 404.88
  Q 1079.99 404.96 1079.99 404.46
  L 1080.06 391.98
  Q 1080.06 391.35 1080.69 391.32
  Q 1085.35 391.14 1090.01 390.90
  C 1097.24 390.52 1095.27 382.37 1090.49 382.44
  Q 1085.73 382.50 1080.80 382.44
  Q 1080.30 382.43 1080.29 381.92
  Q 1080.13 369.18 1080.26 365.50
  C 1080.56 356.73 1069.74 358.59 1069.94 364.00
  Q 1070.27 373.22 1070.23 382.46
  Q 1070.23 382.97 1069.73 382.99
  L 1062.04 383.34
  Q 1061.48 383.37 1061.60 382.82
  C 1062.24 379.88 1064.35 372.84 1062.56 370.36
  C 1060.50 367.49 1054.49 368.64 1053.41 372.35
  C 1052.01 377.18 1049.03 387.37 1054.26 390.84
  C 1057.37 392.90 1065.99 391.58 1069.92 391.52
  Q 1070.39 391.51 1070.39 391.99
  L 1070.41 406.51
  Q 1070.41 406.98 1069.96 407.09
  Q 1062.21 409.06 1054.47 411.13
  Q 1052.72 411.60 1051.56 414.87
  A 1.29 1.28 -46.4 0 0 1051.58 415.80
  C 1053.44 420.26 1057.17 419.22 1061.75 418.49
  Q 1065.78 417.85 1069.81 416.90
  Q 1070.34 416.78 1070.35 417.32
  Z
  M 176.45 366.23
  Q 163.59 366.39 153.29 367.54
  Q 150.75 367.83 148.80 369.77
  Q 148.43 370.13 148.37 370.63
  C 147.75 375.40 150.95 376.79 155.18 376.25
  Q 165.78 374.88 176.52 374.45
  Q 177.12 374.42 177.13 375.02
  L 177.26 381.21
  A 1.84 1.84 0.0 0 1 175.65 383.08
  Q 170.65 383.73 166.01 383.96
  C 159.89 384.26 155.92 385.22 153.41 390.70
  C 151.07 395.82 146.60 413.03 158.02 411.83
  Q 169.61 410.60 174.76 410.33
  A 1.07 1.06 -18.8 0 1 175.71 410.79
  C 177.69 413.66 177.26 418.51 176.30 421.54
  Q 175.82 423.07 174.00 424.39
  C 161.42 433.59 158.32 451.22 157.98 465.77
  Q 157.92 468.66 158.99 469.99
  C 160.94 472.40 165.54 471.86 167.21 469.19
  Q 167.89 468.11 168.06 465.49
  C 168.83 454.03 171.16 443.10 178.67 434.07
  C 181.08 431.17 185.01 430.78 186.38 426.87
  C 188.21 421.60 189.13 408.88 184.51 404.11
  C 180.53 399.99 168.03 402.10 162.64 402.72
  A 0.84 0.84 0.0 0 1 161.71 401.94
  C 161.55 399.48 161.90 394.64 164.31 393.02
  Q 164.71 392.76 165.19 392.75
  Q 173.67 392.67 179.98 391.92
  C 187.00 391.09 187.78 386.40 187.78 379.99
  Q 187.77 372.27 187.73 364.54
  C 187.69 358.32 176.36 358.30 176.98 365.65
  Q 177.03 366.22 176.45 366.23
  Z
  M 663.02 371.17
  C 665.10 369.64 667.05 369.65 669.55 369.49
  C 690.33 368.15 707.62 368.91 733.25 369.69
  C 738.94 369.87 739.42 361.31 732.72 360.92
  Q 697.20 358.87 661.77 361.43
  Q 655.90 361.85 653.12 366.58
  Q 652.01 368.47 652.11 371.59
  Q 653.04 400.37 649.53 430.95
  Q 648.09 443.52 642.80 454.15
  C 638.13 463.52 649.62 464.89 652.95 457.73
  C 657.65 447.64 659.34 434.74 660.46 423.74
  Q 663.08 398.05 662.32 372.62
  A 1.77 1.75 71.2 0 1 663.02 371.17
  Z
  M 1114.45 377.95
  C 1116.52 372.70 1121.76 362.50 1113.75 360.81
  C 1110.15 360.05 1108.44 361.96 1107.65 365.36
  Q 1104.79 377.65 1098.82 386.07
  Q 1093.24 393.93 1090.59 398.73
  A 1.35 1.30 56.4 0 0 1090.44 399.55
  Q 1091.12 404.72 1095.79 404.36
  C 1101.41 403.93 1107.67 391.75 1110.23 386.41
  Q 1110.47 385.91 1111.03 385.95
  L 1114.73 386.20
  Q 1115.29 386.24 1115.15 386.79
  Q 1109.73 408.21 1092.93 422.12
  Q 1091.04 423.68 1090.58 424.85
  C 1089.33 428.04 1093.15 430.88 1096.03 429.98
  Q 1099.72 428.83 1103.57 425.06
  C 1113.87 414.97 1121.08 401.66 1124.98 387.82
  Q 1125.14 387.25 1125.72 387.34
  L 1128.25 387.74
  Q 1128.76 387.82 1128.62 388.31
  C 1122.16 411.29 1110.04 432.43 1090.27 446.41
  C 1084.21 450.70 1090.33 455.87 1095.53 453.48
  C 1102.49 450.27 1109.16 442.96 1114.36 437.05
  C 1125.21 424.72 1132.81 407.60 1137.38 391.99
  A 0.38 0.38 0.0 0 1 1138.12 392.00
  C 1140.20 400.50 1140.87 413.16 1135.17 420.21
  Q 1131.71 424.49 1131.70 424.50
  C 1127.29 431.31 1124.66 438.81 1127.69 446.77
  C 1129.85 452.46 1142.14 474.47 1150.47 466.75
  Q 1150.83 466.42 1150.90 465.93
  Q 1151.28 463.49 1149.67 461.31
  C 1144.06 453.70 1132.25 443.44 1137.44 433.51
  Q 1137.57 433.25 1142.28 427.53
  C 1148.01 420.57 1149.67 412.40 1149.47 403.43
  C 1149.32 397.20 1148.48 389.60 1144.08 384.74
  C 1138.57 378.66 1122.45 378.93 1114.83 378.53
  Q 1114.24 378.50 1114.45 377.95
  Z
  M 51.99 375.96
  Q 42.21 376.09 32.49 376.88
  C 29.03 377.16 22.61 378.89 22.48 382.50
  Q 21.82 400.99 21.51 419.50
  C 21.33 429.97 21.60 443.41 25.60 452.89
  C 32.79 469.91 60.21 469.32 74.74 466.93
  C 91.47 464.18 96.44 453.86 97.37 438.25
  Q 98.94 411.81 96.84 384.23
  C 96.64 381.53 95.66 379.52 93.21 378.55
  Q 88.61 376.72 82.99 376.41
  Q 74.42 375.93 65.73 375.98
  A 0.70 0.69 -7.7 0 1 65.06 375.47
  Q 63.60 370.03 60.23 365.53
  C 57.01 361.23 50.64 359.73 48.79 366.11
  Q 48.67 366.54 48.84 366.96
  L 52.41 375.31
  Q 52.68 375.95 51.99 375.96
  Z
  M 310.33 371.99
  Q 312.31 386.82 327.28 387.76
  A 1.76 1.75 -48.1 0 1 327.47 391.24
  Q 307.20 394.80 300.62 415.31
  Q 294.58 434.12 293.03 457.50
  C 292.83 460.56 292.62 464.33 295.29 466.24
  C 298.21 468.34 303.05 466.62 303.39 462.69
  Q 305.03 443.51 308.67 426.05
  Q 310.42 417.67 312.35 413.75
  C 315.42 407.51 320.70 401.82 327.86 400.47
  Q 328.36 400.37 328.36 400.88
  Q 328.41 433.32 328.08 465.75
  Q 328.03 470.89 332.98 471.43
  C 338.99 472.10 339.75 468.47 339.63 463.41
  Q 338.88 432.48 338.79 401.42
  Q 338.79 400.91 339.30 401.00
  Q 353.12 403.56 356.69 416.77
  Q 362.12 436.85 363.19 459.98
  C 363.40 464.60 364.04 467.73 369.54 466.88
  Q 374.03 466.20 373.89 461.50
  Q 373.28 439.84 368.46 418.79
  Q 363.03 395.05 339.20 391.02
  Q 338.75 390.94 338.74 390.48
  L 338.73 387.94
  A 0.63 0.62 88.1 0 1 339.31 387.31
  Q 354.17 386.16 356.26 371.54
  Q 356.34 370.96 356.92 370.99
  Q 365.03 371.31 373.14 371.49
  Q 375.88 371.56 377.20 370.75
  C 379.47 369.37 379.88 366.14 377.95 364.17
  Q 376.75 362.94 375.50 362.88
  Q 336.13 360.94 294.75 363.07
  Q 292.64 363.17 291.00 364.15
  C 288.23 365.80 288.63 369.42 290.99 371.09
  Q 292.30 372.01 294.80 371.89
  Q 302.32 371.54 309.85 371.57
  Q 310.27 371.57 310.33 371.99
  Z
  M 219.37 374.20
  C 223.35 361.56 206.38 362.18 209.07 370.16
  A 2.35 2.35 0.0 0 1 207.12 373.25
  Q 204.87 373.52 202.76 373.78
  C 196.69 374.52 192.28 378.80 192.32 385.01
  C 192.38 393.47 202.63 396.95 209.93 397.46
  Q 210.43 397.49 210.43 397.99
  L 210.46 400.98
  Q 210.46 401.42 210.02 401.42
  Q 205.11 401.42 199.21 402.94
  C 190.88 405.09 186.45 412.13 189.80 420.19
  C 192.96 427.78 202.77 429.39 210.44 429.16
  Q 211.09 429.14 210.89 429.75
  C 208.86 436.13 202.45 437.61 198.48 442.14
  C 194.59 446.58 193.77 452.58 196.24 457.92
  C 200.87 467.89 219.37 468.23 228.37 466.02
  C 236.39 464.05 241.41 460.25 241.85 451.76
  Q 242.28 443.67 236.20 438.58
  C 232.32 435.33 224.09 430.62 220.84 436.64
  C 218.53 440.93 226.28 443.06 228.54 445.16
  C 232.30 448.64 232.32 455.72 226.87 457.64
  C 222.07 459.33 206.09 460.48 205.30 452.31
  C 205.06 449.72 206.99 447.30 208.95 445.91
  C 215.42 441.32 219.59 438.37 221.01 430.02
  Q 221.10 429.50 221.62 429.55
  C 229.30 430.20 240.72 428.68 244.33 421.03
  C 247.76 413.74 244.30 405.53 236.31 403.53
  C 232.79 402.65 226.30 401.48 221.37 401.45
  Q 220.86 401.45 220.84 400.94
  L 220.77 398.97
  Q 220.74 398.41 221.31 398.39
  C 229.43 398.09 241.97 395.74 242.02 384.82
  C 242.05 379.35 239.11 375.94 233.92 373.99
  C 230.45 372.68 222.30 371.07 219.67 374.36
  Q 219.08 375.11 219.37 374.20
  Z
  M 718.80 401.82
  C 727.93 399.14 728.22 379.70 721.19 374.86
  Q 719.18 373.48 715.03 372.99
  Q 698.83 371.09 682.60 372.66
  Q 677.22 373.18 674.97 374.28
  C 667.96 377.70 667.40 388.17 669.65 394.60
  C 671.58 400.14 674.69 402.97 680.57 403.37
  C 693.68 404.26 707.00 405.29 718.80 401.82
  Z
  M 797.65 405.88
  C 797.19 423.40 789.48 442.93 781.56 458.03
  C 779.95 461.10 779.15 466.21 782.98 467.31
  Q 787.31 468.54 789.68 464.44
  Q 806.94 434.68 807.42 400.20
  Q 807.45 397.89 806.33 396.62
  C 799.57 389.02 784.48 404.23 780.10 409.10
  C 778.34 411.05 776.53 413.17 777.41 415.89
  Q 778.21 418.34 780.78 418.67
  C 784.33 419.12 786.38 416.55 788.39 413.90
  Q 790.11 411.64 797.13 405.64
  Q 797.67 405.18 797.65 405.88
  Z
  M 695.19 441.67
  C 693.78 448.30 692.82 455.70 686.13 459.73
  Q 683.45 461.35 682.84 462.34
  C 680.68 465.91 685.09 469.75 688.67 468.65
  C 700.55 464.97 704.57 452.71 705.41 441.02
  A 0.61 0.59 -88.9 0 1 705.98 440.46
  C 713.49 440.17 730.43 437.97 735.49 431.80
  A 1.15 1.13 60.3 0 0 735.73 430.88
  C 734.91 426.27 731.23 425.67 727.27 427.26
  Q 717.43 431.20 706.75 432.28
  Q 706.23 432.33 706.33 431.83
  Q 706.74 429.62 708.58 428.78
  C 712.58 426.94 716.44 425.12 718.30 421.20
  C 720.19 417.18 718.78 412.81 715.52 409.91
  C 710.15 405.14 697.54 404.87 690.38 406.04
  C 683.23 407.21 675.09 412.54 678.23 421.11
  Q 679.76 425.27 684.37 427.04
  C 687.89 428.39 694.19 429.59 695.72 425.66
  C 697.91 420.00 689.06 423.03 688.08 417.54
  C 687.01 411.53 702.66 414.02 705.42 414.96
  C 709.04 416.20 708.47 419.59 705.57 421.30
  C 700.44 424.33 696.59 425.20 695.71 431.91
  Q 695.64 432.44 695.11 432.41
  Q 683.75 431.75 673.02 425.73
  Q 668.93 423.44 665.49 426.21
  C 661.30 429.59 666.82 433.45 669.79 434.73
  Q 681.71 439.90 694.70 441.00
  Q 695.32 441.06 695.19 441.67
  Z
  M 839.61 419.19
  Q 847.71 419.16 871.75 419.75
  C 877.34 419.89 877.17 412.09 872.68 411.81
  Q 851.83 410.52 821.25 411.65
  Q 818.48 411.75 815.76 412.30
  C 811.49 413.18 811.38 418.45 815.08 419.87
  Q 816.24 420.31 819.00 420.17
  Q 825.70 419.84 832.47 419.51
  Q 833.28 419.48 832.66 419.99
  Q 830.45 421.84 830.54 423.74
  C 830.83 430.50 830.25 438.42 831.99 444.31
  C 834.19 451.70 838.12 456.89 844.58 461.60
  C 849.64 465.28 862.79 473.80 868.95 470.92
  C 871.45 469.75 872.63 466.77 870.62 464.60
  Q 869.81 463.72 867.56 462.93
  C 858.52 459.76 842.20 451.45 841.24 440.76
  Q 840.91 437.05 841.47 423.97
  C 841.55 422.00 840.87 420.89 839.41 419.77
  Q 838.68 419.20 839.61 419.19
  Z
  M 438.08 439.54
  Q 441.54 430.29 440.98 418.72
  C 440.71 412.91 433.56 413.03 430.90 416.36
  Q 429.80 417.73 429.82 420.72
  Q 429.87 427.91 428.37 434.93
  Q 427.64 438.32 427.99 439.63
  C 429.14 444.02 436.65 443.35 438.08 439.54
  Z
  M 477.70 463.33
  Q 490.85 468.25 500.78 470.40
  Q 507.83 471.93 510.49 471.47
  C 515.70 470.58 516.53 463.39 511.83 462.56
  C 495.43 459.66 462.06 454.72 462.21 433.00
  Q 462.26 425.89 462.22 418.79
  C 462.19 413.39 454.55 412.80 452.27 416.01
  Q 451.17 417.57 451.21 421.62
  Q 451.32 431.45 451.53 434.51
  C 452.57 449.51 464.27 458.30 477.70 463.33
  Z
  M 506.96 419.56
  C 506.91 413.96 500.17 413.20 497.47 416.47
  Q 496.30 417.90 496.32 420.70
  Q 496.36 429.49 495.35 433.02
  C 494.65 435.47 494.03 437.78 496.64 439.31
  C 501.14 441.95 504.53 438.30 505.38 434.12
  Q 507.01 426.23 506.96 419.56
  Z
  M 847.70 441.84
  C 855.38 443.63 856.10 429.75 855.97 424.82
  C 855.90 422.32 855.06 421.17 852.66 420.66
  C 848.12 419.71 846.38 421.62 846.26 426.05
  Q 846.16 429.94 845.69 433.79
  C 845.37 436.44 843.05 440.76 847.70 441.84
  Z
  M 864.41 441.96
  C 868.37 440.04 869.93 430.26 870.05 426.67
  Q 870.16 423.57 868.63 422.15
  C 866.63 420.28 860.46 420.77 860.33 424.24
  Q 860.02 432.42 858.54 437.61
  C 857.38 441.69 861.31 443.47 864.41 441.96
  Z
  M 816.10 443.91
  C 825.00 447.11 826.62 431.72 826.33 426.43
  C 826.08 421.83 819.84 421.57 817.40 424.02
  Q 816.31 425.12 816.25 427.79
  Q 816.13 433.75 814.06 440.26
  C 813.56 441.82 814.56 443.36 816.10 443.91
  Z"
/>
<path fill="#7f1084" d="
  M 649.37 53.00
  A 0.34 0.34 0.0 0 0 649.79 53.28
  Q 693.25 41.66 736.74 30.04
  C 741.80 28.69 746.24 30.65 752.15 33.05
  Q 811.99 57.23 871.67 81.36
  Q 872.27 81.60 871.81 82.06
  Q 859.45 94.47 846.85 106.88
  C 845.18 108.51 841.77 108.02 839.47 107.10
  Q 789.56 86.94 739.66 66.78
  Q 739.21 66.60 738.74 66.73
  L 641.73 94.35
  A 0.38 0.38 0.0 0 1 641.25 93.98
  L 641.25 85.43
  A 1.83 1.82 0.2 0 0 639.43 83.61
  L 619.68 83.60
  A 0.67 0.66 -90.0 0 1 619.02 82.93
  L 619.03 80.49
  Q 619.03 80.01 619.51 80.01
  L 639.05 79.92
  A 1.72 1.71 89.8 0 0 640.75 78.20
  L 640.75 40.56
  A 1.69 1.68 0.0 0 0 639.06 38.88
  L 623.93 38.89
  A 1.68 1.67 90.0 0 0 622.26 40.57
  L 622.25 60.83
  Q 622.25 61.42 621.67 61.41
  L 619.59 61.40
  Q 619.02 61.40 619.02 60.84
  L 619.03 40.70
  A 1.83 1.82 -0.0 0 0 617.20 38.88
  L 602.32 38.89
  A 1.79 1.79 0.0 0 0 600.53 40.68
  L 600.53 60.83
  Q 600.53 61.44 599.92 61.43
  L 598.32 61.41
  Q 597.73 61.41 597.73 60.82
  L 597.73 40.55
  A 1.68 1.67 -0.0 0 0 596.05 38.88
  L 580.92 38.89
  A 1.70 1.69 -0.0 0 0 579.22 40.58
  L 579.22 78.19
  A 1.72 1.71 0.2 0 0 580.93 79.90
  L 600.03 80.01
  Q 600.56 80.01 600.55 80.53
  L 600.51 83.05
  Q 600.50 83.61 599.95 83.61
  L 581.54 83.60
  A 1.96 1.95 -89.9 0 0 579.58 85.56
  L 579.59 101.21
  A 1.88 1.87 -90.0 0 0 581.46 103.09
  L 599.95 103.10
  Q 600.55 103.10 600.54 103.70
  L 600.52 106.71
  Q 600.51 107.18 600.04 107.18
  L 581.31 107.18
  A 1.73 1.73 0.0 0 0 579.58 108.91
  L 579.59 124.72
  A 1.95 1.95 0.0 0 0 581.54 126.67
  L 639.29 126.67
  A 1.96 1.96 0.0 0 0 641.25 124.71
  L 641.25 110.02
  Q 641.25 109.51 641.73 109.37
  Q 687.02 95.55 732.32 81.83
  C 737.98 80.12 743.38 79.68 748.39 81.86
  Q 791.16 100.45 833.74 118.95
  Q 834.23 119.16 833.85 119.54
  Q 819.44 133.95 804.88 148.38
  C 801.65 151.58 797.19 150.78 793.02 148.95
  Q 766.21 137.19 739.35 125.55
  Q 738.83 125.32 738.28 125.48
  L 642.25 152.88
  A 0.41 0.41 0.0 0 1 641.73 152.49
  L 641.74 132.75
  A 1.99 1.98 0.0 0 0 639.75 130.77
  L 581.53 130.78
  A 1.94 1.94 0.0 0 0 579.59 132.72
  L 579.60 211.95
  A 1.74 1.74 0.0 0 0 581.33 213.69
  L 595.96 213.69
  A 2.15 2.15 0.0 0 0 598.12 211.54
  L 598.12 187.56
  Q 598.12 187.00 598.69 187.00
  L 622.62 187.01
  Q 623.23 187.01 623.23 187.62
  L 623.23 212.07
  A 1.59 1.59 0.0 0 0 624.82 213.66
  L 639.89 213.70
  A 1.84 1.84 0.0 0 0 641.73 211.86
  L 641.73 167.48
  Q 641.73 166.92 642.27 166.75
  L 688.97 152.19
  Q 689.44 152.04 689.42 152.54
  Q 688.71 174.24 683.25 195.15
  C 678.86 211.98 672.18 224.77 658.63 235.12
  C 652.31 239.94 642.85 244.53 635.45 248.19
  C 627.12 252.31 622.92 256.95 617.41 265.34
  C 614.36 270.00 611.00 275.74 607.48 279.25
  Q 597.50 289.19 582.48 286.26
  C 565.62 282.97 563.24 266.09 552.18 255.57
  C 542.89 246.74 529.89 243.50 519.33 235.78
  Q 503.00 223.83 496.64 204.81
  Q 488.54 180.57 487.76 152.61
  Q 487.74 152.07 488.25 152.23
  L 534.66 166.73
  Q 535.16 166.89 535.16 167.41
  L 535.15 212.16
  A 2.01 2.01 0.0 0 0 537.16 214.17
  L 551.74 214.18
  A 1.93 1.92 0.0 0 0 553.67 212.26
  L 553.67 103.00
  Q 553.67 102.42 554.25 102.42
  L 573.65 102.42
  A 1.90 1.89 -90.0 0 0 575.54 100.52
  L 575.54 40.46
  A 1.58 1.58 0.0 0 0 573.96 38.88
  L 558.82 38.89
  A 1.79 1.78 90.0 0 0 557.04 40.68
  L 557.04 83.98
  Q 557.04 84.50 556.52 84.50
  L 537.07 84.51
  A 1.92 1.92 0.0 0 0 535.15 86.44
  L 535.18 93.71
  Q 535.18 94.37 534.54 94.19
  L 438.06 66.72
  Q 437.62 66.59 437.19 66.77
  Q 386.62 87.24 336.10 107.60
  C 332.99 108.86 330.54 107.40 328.17 105.04
  Q 316.47 93.44 304.84 81.92
  A 0.28 0.28 0.0 0 1 304.93 81.46
  Q 366.36 56.62 427.76 31.81
  C 433.91 29.33 437.20 29.24 443.98 31.10
  Q 484.14 42.14 524.29 53.19
  Q 524.85 53.34 525.09 52.82
  L 532.03 37.76
  Q 532.31 37.15 531.64 37.15
  L 525.95 37.16
  A 0.29 0.29 0.0 0 1 525.73 36.67
  L 544.28 15.77
  Q 544.67 15.34 545.25 15.34
  L 615.65 15.34
  A 0.41 0.41 0.0 0 1 616.06 15.75
  L 616.05 32.77
  Q 616.05 33.24 616.52 33.24
  L 643.66 33.24
  A 3.38 3.37 86.0 0 1 647.00 36.15
  L 649.37 53.00
  Z
  M 553.66 40.75
  A 1.86 1.86 0.0 0 0 551.80 38.89
  L 537.02 38.89
  A 1.86 1.86 0.0 0 0 535.16 40.75
  L 535.16 78.41
  A 1.86 1.86 0.0 0 0 537.02 80.27
  L 551.80 80.27
  A 1.86 1.86 0.0 0 0 553.66 78.41
  L 553.66 40.75
  Z
  M 575.54 108.28
  A 1.81 1.81 0.0 0 0 573.73 106.47
  L 558.85 106.47
  A 1.81 1.81 0.0 0 0 557.04 108.28
  L 557.04 211.94
  A 1.81 1.81 0.0 0 0 558.85 213.75
  L 573.73 213.75
  A 1.81 1.81 0.0 0 0 575.54 211.94
  L 575.54 108.28
  Z"
/>
<path fill="#ffffff" d="
  M 553.66 78.41
  A 1.86 1.86 0.0 0 1 551.80 80.27
  L 537.02 80.27
  A 1.86 1.86 0.0 0 1 535.16 78.41
  L 535.16 40.75
  A 1.86 1.86 0.0 0 1 537.02 38.89
  L 551.80 38.89
  A 1.86 1.86 0.0 0 1 553.66 40.75
  L 553.66 78.41
  Z"
/>
<path fill="#7f1084" d="
  M 437.25 125.62
  C 419.61 133.35 401.87 141.00 384.17 148.80
  C 378.99 151.08 375.26 151.60 371.19 147.56
  Q 357.00 133.51 342.99 119.58
  A 0.39 0.38 56.1 0 1 343.11 118.95
  Q 386.28 100.18 429.23 81.53
  C 433.75 79.57 439.56 80.31 444.78 81.89
  Q 489.78 95.55 534.78 109.25
  A 0.53 0.52 8.2 0 1 535.16 109.75
  L 535.16 152.48
  Q 535.16 153.05 534.61 152.89
  L 438.73 125.52
  Q 437.97 125.31 437.25 125.62
  Z"
/>
<path fill="#7f1084" d="
  M 640.0132 107.3117
  A 0.67 0.67 0.0 0 1 639.3443 107.9828
  L 619.6844 108.0172
  A 0.67 0.67 0.0 0 1 619.0132 107.3483
  L 619.0068 103.6883
  A 0.67 0.67 0.0 0 1 619.6757 103.0172
  L 639.3356 102.9828
  A 0.67 0.67 0.0 0 1 640.0068 103.6517
  L 640.0132 107.3117
  Z"
/>
<path fill="#ffffff" d="
  M 575.54 211.94
  A 1.81 1.81 0.0 0 1 573.73 213.75
  L 558.85 213.75
  A 1.81 1.81 0.0 0 1 557.04 211.94
  L 557.04 108.28
  A 1.81 1.81 0.0 0 1 558.85 106.47
  L 573.73 106.47
  A 1.81 1.81 0.0 0 1 575.54 108.28
  L 575.54 211.94
  Z"
/>
<path fill="#7f1084" d="
  M 601.9660 169.1766
  A 0.81 0.81 0.0 0 1 601.1574 169.9880
  L 598.8774 169.9920
  A 0.81 0.81 0.0 0 1 598.0660 169.1834
  L 598.0340 150.8234
  A 0.81 0.81 0.0 0 1 598.8426 150.0120
  L 601.1226 150.0080
  A 0.81 0.81 0.0 0 1 601.9340 150.8166
  L 601.9660 169.1766
  Z"
/>
<path fill="#7f1084" d="
  M 622.9861 169.2165
  A 0.76 0.76 0.0 0 1 622.2274 169.9779
  L 619.8074 169.9821
  A 0.76 0.76 0.0 0 1 619.0461 169.2234
  L 619.0139 150.7635
  A 0.76 0.76 0.0 0 1 619.7726 150.0021
  L 622.1926 149.9979
  A 0.76 0.76 0.0 0 1 622.9539 150.7566
  L 622.9861 169.2165
  Z"
/>
<path fill="#7f1084" d="
  M 848.06 367.23
  Q 859.65 367.16 871.22 367.71
  C 878.45 368.05 877.75 376.14 872.24 375.78
  Q 860.14 375.01 848.00 375.26
  Q 847.50 375.27 847.51 375.77
  L 847.52 379.73
  Q 847.53 380.21 848.01 380.23
  Q 856.98 380.50 865.87 381.43
  C 871.12 381.99 872.79 385.11 872.77 390.25
  Q 872.72 399.31 872.47 408.15
  A 2.79 2.79 0.0 0 1 870.80 410.63
  Q 866.57 412.47 863.44 409.11
  A 1.20 1.18 -67.7 0 1 863.12 408.32
  L 862.80 390.34
  Q 862.79 389.66 862.12 389.56
  L 855.44 388.59
  A 0.54 0.54 0.0 0 0 854.83 389.10
  L 854.42 397.72
  Q 854.39 398.29 854.96 398.38
  C 857.98 398.87 863.60 399.23 861.80 404.03
  C 861.20 405.62 858.91 406.29 857.16 406.27
  Q 842.96 406.09 828.75 406.73
  C 825.41 406.88 822.22 402.20 826.00 399.93
  Q 828.20 398.61 831.10 398.63
  Q 831.70 398.64 831.68 398.04
  L 831.50 389.26
  Q 831.49 388.80 831.03 388.75
  C 828.28 388.45 824.44 387.91 824.21 391.82
  Q 823.69 400.42 823.24 409.02
  A 1.08 1.08 0.0 0 1 822.81 409.82
  Q 818.74 412.83 814.80 409.76
  A 1.36 1.36 0.0 0 1 814.28 408.71
  Q 814.23 399.32 814.41 390.06
  C 814.52 384.39 817.48 381.61 823.02 381.06
  Q 831.95 380.18 837.23 380.15
  Q 837.79 380.15 837.79 379.60
  L 837.80 375.75
  Q 837.80 375.18 837.23 375.20
  Q 827.84 375.54 818.50 376.30
  C 816.75 376.44 814.17 376.56 812.64 375.37
  C 808.62 372.22 812.42 368.11 816.25 367.81
  Q 824.96 367.11 837.21 367.26
  Q 837.76 367.27 837.78 366.71
  C 837.84 364.61 837.43 361.02 838.71 359.33
  C 840.48 357.00 844.15 356.84 846.15 358.78
  C 848.16 360.74 847.53 364.01 847.51 366.68
  Q 847.50 367.24 848.06 367.23
  Z
  M 845.8427 388.5163
  A 0.27 0.27 0.0 0 0 845.5774 388.2416
  L 840.8981 388.1599
  A 0.27 0.27 0.0 0 0 840.6235 388.4252
  L 840.4573 397.9437
  A 0.27 0.27 0.0 0 0 840.7226 398.2184
  L 845.4019 398.3001
  A 0.27 0.27 0.0 0 0 845.6765 398.0348
  L 845.8427 388.5163
  Z"
/>
<path fill="#7f1084" d="
  M 479.52 413.65
  C 468.90 414.58 439.57 415.81 434.51 403.51
  Q 433.13 400.15 433.05 391.75
  Q 432.96 382.59 433.01 373.43
  A 1.27 1.22 69.0 0 1 433.37 372.57
  C 439.67 366.29 451.56 366.84 460.22 366.84
  Q 461.01 366.84 460.57 366.19
  L 458.53 363.24
  A 0.89 0.85 -59.5 0 1 458.38 362.61
  C 459.00 358.62 462.40 356.63 466.14 358.49
  Q 470.91 360.86 472.55 366.32
  A 0.74 0.72 83.0 0 0 473.20 366.84
  Q 483.13 367.56 486.87 367.64
  C 491.65 367.73 499.69 368.73 500.07 374.25
  C 500.83 385.23 501.48 395.17 498.89 404.41
  C 496.95 411.35 485.60 413.37 479.52 413.65
  Z
  M 444.46 376.92
  Q 442.36 377.77 443.26 380.16
  Q 443.36 380.43 443.64 380.43
  L 490.65 380.01
  Q 491.18 380.01 491.12 379.48
  L 490.90 377.38
  Q 490.83 376.74 490.19 376.67
  Q 470.48 374.53 450.75 375.90
  Q 446.16 376.22 444.46 376.92
  Z
  M 490.83 388.40
  C 473.88 387.66 459.41 387.60 443.30 388.73
  Q 442.78 388.77 442.78 389.30
  L 442.77 391.94
  Q 442.77 392.44 443.26 392.43
  L 491.02 392.15
  A 0.42 0.41 -0.7 0 0 491.44 391.73
  L 491.39 388.98
  Q 491.38 388.42 490.83 388.40
  Z
  M 489.71 400.17
  L 444.41 399.85
  A 0.01 0.01 0.0 0 0 444.40 399.86
  L 444.40 399.91
  A 16.85 5.40 0.4 0 0 461.21 405.43
  L 472.83 405.51
  A 16.85 5.40 0.4 0 0 489.72 400.23
  L 489.72 400.18
  A 0.01 0.01 0.0 0 0 489.71 400.17
  Z"
/>
<path fill="#7f1084" d="
  M 797.18 375.99
  C 796.15 370.35 789.48 368.02 786.47 365.05
  C 783.38 361.99 784.79 358.50 788.89 358.09
  C 796.85 357.30 810.57 371.59 806.93 379.50
  C 804.04 385.80 792.43 391.82 786.24 393.81
  C 782.51 395.01 778.43 391.84 780.47 388.00
  Q 781.24 386.57 783.77 385.28
  C 788.07 383.10 793.37 380.60 796.90 376.90
  A 1.07 1.05 -28.6 0 0 797.18 375.99
  Z"
/>
<path fill="#7f1084" d="
  M 983.93 373.18
  L 992.25 372.27
  Q 992.94 372.20 993.31 371.60
  C 994.74 369.26 994.63 366.43 994.79 363.79
  C 995.08 358.84 1001.18 358.13 1003.70 361.16
  C 1005.55 363.38 1004.13 369.64 1003.89 372.56
  C 1003.27 380.19 989.03 380.99 983.46 381.06
  Q 982.98 381.06 982.98 381.54
  L 983.00 385.96
  Q 983.00 386.45 983.49 386.46
  Q 991.16 386.47 1008.49 387.04
  C 1015.16 387.26 1015.27 395.53 1007.77 395.35
  Q 996.34 395.09 984.90 394.97
  Q 984.26 394.96 984.44 395.58
  L 986.21 401.43
  Q 986.36 401.95 986.87 401.79
  Q 995.10 399.20 1004.48 401.84
  C 1010.51 403.54 1008.52 410.74 1002.74 409.84
  Q 998.04 409.11 993.24 408.78
  Q 989.61 408.53 991.63 411.56
  Q 997.93 420.97 1009.11 428.12
  C 1010.36 428.92 1011.07 430.93 1010.48 432.42
  C 1007.96 438.82 999.66 433.70 996.10 430.63
  Q 990.65 425.94 985.82 420.60
  Q 985.43 420.17 985.40 420.74
  C 984.48 435.82 992.22 450.00 1002.95 460.07
  C 1006.95 463.82 1003.70 469.01 998.95 468.00
  C 993.34 466.81 985.84 455.15 982.88 450.40
  Q 977.01 440.98 975.64 427.75
  Q 974.56 417.31 978.19 409.31
  Q 978.37 408.90 978.24 408.48
  L 974.13 395.41
  Q 974.00 395.00 973.57 395.00
  L 951.52 395.00
  Q 951.03 395.00 951.03 395.48
  L 951.02 399.81
  Q 951.02 400.39 951.60 400.42
  Q 958.20 400.78 964.74 400.86
  C 970.08 400.93 972.32 408.59 965.05 408.73
  Q 958.35 408.86 951.63 408.76
  A 0.59 0.58 -89.5 0 0 951.04 409.35
  L 951.06 410.82
  Q 951.06 411.45 951.69 411.39
  Q 958.83 410.69 965.40 413.07
  C 968.40 414.15 968.95 416.14 969.10 419.05
  Q 969.45 426.14 968.72 431.73
  C 968.11 436.41 965.89 438.66 961.48 439.76
  Q 956.15 441.09 951.87 441.34
  Q 951.22 441.38 951.33 442.03
  L 951.44 442.73
  Q 951.54 443.29 952.11 443.28
  Q 961.48 443.11 967.49 443.81
  C 974.30 444.62 974.37 452.60 966.26 452.13
  Q 959.18 451.72 952.08 451.75
  Q 951.56 451.75 951.57 452.27
  C 951.65 455.54 952.79 464.77 951.14 467.23
  C 949.09 470.27 943.30 470.33 941.70 466.90
  Q 941.09 465.59 941.18 461.82
  Q 941.28 457.07 941.22 452.30
  Q 941.22 451.78 940.70 451.81
  Q 932.09 452.23 923.53 452.64
  C 919.69 452.82 917.25 451.02 917.77 447.06
  Q 917.83 446.57 918.17 446.21
  Q 920.23 444.08 922.57 443.83
  Q 929.51 443.11 940.67 443.28
  Q 941.21 443.29 941.24 442.75
  L 941.28 441.97
  Q 941.32 441.39 940.74 441.36
  C 933.51 440.91 923.82 439.90 922.25 430.77
  Q 921.40 425.87 921.89 416.59
  Q 921.91 416.10 922.23 415.74
  C 926.48 410.74 934.67 411.04 940.81 411.26
  Q 941.39 411.29 941.40 410.71
  L 941.41 409.46
  Q 941.42 408.77 940.73 408.78
  Q 932.64 408.98 924.59 409.64
  C 916.95 410.26 916.40 401.21 924.53 400.84
  Q 935.68 400.33 940.92 400.26
  Q 941.41 400.25 941.41 399.77
  L 941.41 395.76
  Q 941.41 395.22 940.87 395.23
  Q 930.47 395.43 920.11 395.77
  C 912.76 396.01 912.87 387.28 919.47 387.08
  Q 923.71 386.95 939.20 387.01
  Q 939.71 387.01 939.71 386.50
  L 939.69 380.75
  Q 939.69 380.24 939.18 380.26
  Q 933.28 380.51 927.48 381.41
  C 924.16 381.93 921.59 381.06 921.01 377.59
  C 919.79 370.29 935.07 371.65 938.93 371.60
  Q 939.44 371.60 939.47 371.09
  Q 939.72 367.60 939.71 364.23
  C 939.70 358.21 946.91 358.50 949.88 361.76
  A 1.51 1.47 24.5 0 1 950.27 362.76
  L 950.30 371.01
  Q 950.30 371.55 950.84 371.56
  C 954.56 371.65 968.21 370.53 967.16 377.35
  C 966.76 379.97 964.34 380.62 961.87 380.51
  Q 956.39 380.26 950.91 380.13
  Q 950.27 380.12 950.27 380.75
  L 950.28 386.01
  Q 950.28 386.50 950.76 386.50
  L 972.49 386.50
  Q 973.00 386.50 973.01 385.99
  Q 973.15 375.72 973.52 365.50
  C 973.76 358.84 985.35 359.17 984.19 366.54
  Q 983.72 369.57 983.41 372.66
  Q 983.35 373.24 983.93 373.18
  Z
  M 932.34 419.68
  A 0.31 0.31 0.0 0 0 932.07 419.93
  L 931.59 422.12
  A 0.31 0.31 0.0 0 0 931.90 422.50
  L 941.07 422.50
  A 0.31 0.31 0.0 0 0 941.38 422.19
  L 941.37 419.00
  A 0.31 0.31 0.0 0 0 941.03 418.69
  L 932.34 419.68
  Z
  M 951.26 419.23
  L 951.20 421.75
  A 0.27 0.27 0.0 0 0 951.47 422.03
  L 953.71 422.08
  A 6.13 0.80 1.3 0 0 959.85 421.42
  L 959.89 419.96
  A 6.13 0.80 1.3 0 0 953.78 419.02
  L 951.54 418.97
  A 0.27 0.27 0.0 0 0 951.26 419.23
  Z
  M 957.26 432.75
  A 0.61 0.61 0.0 0 0 957.58 432.57
  L 959.50 430.55
  A 0.61 0.61 0.0 0 0 959.06 429.52
  L 951.88 429.51
  A 0.61 0.61 0.0 0 0 951.27 430.14
  L 951.38 433.22
  A 0.61 0.61 0.0 0 0 952.12 433.80
  L 957.26 432.75
  Z
  M 933.13 430.02
  A 0.78 0.78 0.0 0 0 932.76 431.48
  L 935.20 432.84
  A 0.78 0.78 0.0 0 0 935.45 432.92
  L 940.42 433.75
  A 0.78 0.78 0.0 0 0 941.33 433.00
  L 941.38 430.81
  A 0.78 0.78 0.0 0 0 940.60 430.01
  L 933.13 430.02
  Z"
/>
<path fill="#7f1084" d="
  M 1069.81 416.90
  Q 1065.78 417.85 1061.75 418.49
  C 1057.17 419.22 1053.44 420.26 1051.58 415.80
  A 1.29 1.28 -46.4 0 1 1051.56 414.87
  Q 1052.72 411.60 1054.47 411.13
  Q 1062.21 409.06 1069.96 407.09
  Q 1070.41 406.98 1070.41 406.51
  L 1070.39 391.99
  Q 1070.39 391.51 1069.92 391.52
  C 1065.99 391.58 1057.37 392.90 1054.26 390.84
  C 1049.03 387.37 1052.01 377.18 1053.41 372.35
  C 1054.49 368.64 1060.50 367.49 1062.56 370.36
  C 1064.35 372.84 1062.24 379.88 1061.60 382.82
  Q 1061.48 383.37 1062.04 383.34
  L 1069.73 382.99
  Q 1070.23 382.97 1070.23 382.46
  Q 1070.27 373.22 1069.94 364.00
  C 1069.74 358.59 1080.56 356.73 1080.26 365.50
  Q 1080.13 369.18 1080.29 381.92
  Q 1080.30 382.43 1080.80 382.44
  Q 1085.73 382.50 1090.49 382.44
  C 1095.27 382.37 1097.24 390.52 1090.01 390.90
  Q 1085.35 391.14 1080.69 391.32
  Q 1080.06 391.35 1080.06 391.98
  L 1079.99 404.46
  Q 1079.99 404.96 1080.48 404.88
  C 1082.93 404.51 1089.64 403.19 1091.24 405.63
  C 1095.26 411.77 1085.43 413.74 1080.50 414.79
  Q 1079.97 414.90 1079.97 415.43
  Q 1079.88 440.36 1080.28 465.24
  C 1080.30 466.47 1079.22 468.12 1078.07 468.77
  C 1073.56 471.30 1070.65 467.68 1070.61 463.00
  Q 1070.42 440.16 1070.35 417.32
  Q 1070.34 416.78 1069.81 416.90
  Z"
/>
<path fill="#7f1084" d="
  M 176.98 365.65
  C 176.36 358.30 187.69 358.32 187.73 364.54
  Q 187.77 372.27 187.78 379.99
  C 187.78 386.40 187.00 391.09 179.98 391.92
  Q 173.67 392.67 165.19 392.75
  Q 164.71 392.76 164.31 393.02
  C 161.90 394.64 161.55 399.48 161.71 401.94
  A 0.84 0.84 0.0 0 0 162.64 402.72
  C 168.03 402.10 180.53 399.99 184.51 404.11
  C 189.13 408.88 188.21 421.60 186.38 426.87
  C 185.01 430.78 181.08 431.17 178.67 434.07
  C 171.16 443.10 168.83 454.03 168.06 465.49
  Q 167.89 468.11 167.21 469.19
  C 165.54 471.86 160.94 472.40 158.99 469.99
  Q 157.92 468.66 157.98 465.77
  C 158.32 451.22 161.42 433.59 174.00 424.39
  Q 175.82 423.07 176.30 421.54
  C 177.26 418.51 177.69 413.66 175.71 410.79
  A 1.07 1.06 -18.8 0 0 174.76 410.33
  Q 169.61 410.60 158.02 411.83
  C 146.60 413.03 151.07 395.82 153.41 390.70
  C 155.92 385.22 159.89 384.26 166.01 383.96
  Q 170.65 383.73 175.65 383.08
  A 1.84 1.84 0.0 0 0 177.26 381.21
  L 177.13 375.02
  Q 177.12 374.42 176.52 374.45
  Q 165.78 374.88 155.18 376.25
  C 150.95 376.79 147.75 375.40 148.37 370.63
  Q 148.43 370.13 148.80 369.77
  Q 150.75 367.83 153.29 367.54
  Q 163.59 366.39 176.45 366.23
  Q 177.03 366.22 176.98 365.65
  Z"
/>
<path fill="#7f1084" d="
  M 663.02 371.17
  A 1.77 1.75 71.2 0 0 662.32 372.62
  Q 663.08 398.05 660.46 423.74
  C 659.34 434.74 657.65 447.64 652.95 457.73
  C 649.62 464.89 638.13 463.52 642.80 454.15
  Q 648.09 443.52 649.53 430.95
  Q 653.04 400.37 652.11 371.59
  Q 652.01 368.47 653.12 366.58
  Q 655.90 361.85 661.77 361.43
  Q 697.20 358.87 732.72 360.92
  C 739.42 361.31 738.94 369.87 733.25 369.69
  C 707.62 368.91 690.33 368.15 669.55 369.49
  C 667.05 369.65 665.10 369.64 663.02 371.17
  Z"
/>
<path fill="#7f1084" d="
  M 1114.83 378.53
  C 1122.45 378.93 1138.57 378.66 1144.08 384.74
  C 1148.48 389.60 1149.32 397.20 1149.47 403.43
  C 1149.67 412.40 1148.01 420.57 1142.28 427.53
  Q 1137.57 433.25 1137.44 433.51
  C 1132.25 443.44 1144.06 453.70 1149.67 461.31
  Q 1151.28 463.49 1150.90 465.93
  Q 1150.83 466.42 1150.47 466.75
  C 1142.14 474.47 1129.85 452.46 1127.69 446.77
  C 1124.66 438.81 1127.29 431.31 1131.70 424.50
  Q 1131.71 424.49 1135.17 420.21
  C 1140.87 413.16 1140.20 400.50 1138.12 392.00
  A 0.38 0.38 0.0 0 0 1137.38 391.99
  C 1132.81 407.60 1125.21 424.72 1114.36 437.05
  C 1109.16 442.96 1102.49 450.27 1095.53 453.48
  C 1090.33 455.87 1084.21 450.70 1090.27 446.41
  C 1110.04 432.43 1122.16 411.29 1128.62 388.31
  Q 1128.76 387.82 1128.25 387.74
  L 1125.72 387.34
  Q 1125.14 387.25 1124.98 387.82
  C 1121.08 401.66 1113.87 414.97 1103.57 425.06
  Q 1099.72 428.83 1096.03 429.98
  C 1093.15 430.88 1089.33 428.04 1090.58 424.85
  Q 1091.04 423.68 1092.93 422.12
  Q 1109.73 408.21 1115.15 386.79
  Q 1115.29 386.24 1114.73 386.20
  L 1111.03 385.95
  Q 1110.47 385.91 1110.23 386.41
  C 1107.67 391.75 1101.41 403.93 1095.79 404.36
  Q 1091.12 404.72 1090.44 399.55
  A 1.35 1.30 56.4 0 1 1090.59 398.73
  Q 1093.24 393.93 1098.82 386.07
  Q 1104.79 377.65 1107.65 365.36
  C 1108.44 361.96 1110.15 360.05 1113.75 360.81
  C 1121.76 362.50 1116.52 372.70 1114.45 377.95
  Q 1114.24 378.50 1114.83 378.53
  Z"
/>
<path fill="#7f1084" d="
  M 52.41 375.31
  L 48.84 366.96
  Q 48.67 366.54 48.79 366.11
  C 50.64 359.73 57.01 361.23 60.23 365.53
  Q 63.60 370.03 65.06 375.47
  A 0.70 0.69 -7.7 0 0 65.73 375.98
  Q 74.42 375.93 82.99 376.41
  Q 88.61 376.72 93.21 378.55
  C 95.66 379.52 96.64 381.53 96.84 384.23
  Q 98.94 411.81 97.37 438.25
  C 96.44 453.86 91.47 464.18 74.74 466.93
  C 60.21 469.32 32.79 469.91 25.60 452.89
  C 21.60 443.41 21.33 429.97 21.51 419.50
  Q 21.82 400.99 22.48 382.50
  C 22.61 378.89 29.03 377.16 32.49 376.88
  Q 42.21 376.09 51.99 375.96
  Q 52.68 375.95 52.41 375.31
  Z
  M 35.03 387.54
  A 1.54 1.53 -4.4 0 0 33.76 389.01
  L 33.47 401.74
  Q 33.45 402.28 33.99 402.28
  L 85.81 402.31
  Q 86.18 402.31 86.17 401.94
  L 85.64 388.93
  A 2.51 2.49 89.3 0 0 83.19 386.53
  C 66.99 386.19 50.88 384.75 35.03 387.54
  Z
  M 86.21 426.66
  A 0.31 0.31 0.0 0 0 86.53 426.34
  L 86.36 412.01
  A 0.31 0.31 0.0 0 0 86.05 411.70
  L 33.53 411.73
  A 0.31 0.31 0.0 0 0 33.22 412.04
  L 33.08 425.86
  A 0.31 0.31 0.0 0 0 33.39 426.17
  L 86.21 426.66
  Z
  M 33.46 436.77
  C 33.72 442.38 34.75 450.15 39.59 453.92
  C 45.70 458.68 60.33 458.73 67.62 457.90
  C 74.61 457.10 80.01 456.06 82.96 449.75
  Q 85.61 444.10 85.94 436.68
  Q 85.96 436.20 85.48 436.20
  L 33.99 436.21
  Q 33.44 436.21 33.46 436.77
  Z"
/>
<path fill="#7f1084" d="
  M 309.85 371.57
  Q 302.32 371.54 294.80 371.89
  Q 292.30 372.01 290.99 371.09
  C 288.63 369.42 288.23 365.80 291.00 364.15
  Q 292.64 363.17 294.75 363.07
  Q 336.13 360.94 375.50 362.88
  Q 376.75 362.94 377.95 364.17
  C 379.88 366.14 379.47 369.37 377.20 370.75
  Q 375.88 371.56 373.14 371.49
  Q 365.03 371.31 356.92 370.99
  Q 356.34 370.96 356.26 371.54
  Q 354.17 386.16 339.31 387.31
  A 0.63 0.62 88.1 0 0 338.73 387.94
  L 338.74 390.48
  Q 338.75 390.94 339.20 391.02
  Q 363.03 395.05 368.46 418.79
  Q 373.28 439.84 373.89 461.50
  Q 374.03 466.20 369.54 466.88
  C 364.04 467.73 363.40 464.60 363.19 459.98
  Q 362.12 436.85 356.69 416.77
  Q 353.12 403.56 339.30 401.00
  Q 338.79 400.91 338.79 401.42
  Q 338.88 432.48 339.63 463.41
  C 339.75 468.47 338.99 472.10 332.98 471.43
  Q 328.03 470.89 328.08 465.75
  Q 328.41 433.32 328.36 400.88
  Q 328.36 400.37 327.86 400.47
  C 320.70 401.82 315.42 407.51 312.35 413.75
  Q 310.42 417.67 308.67 426.05
  Q 305.03 443.51 303.39 462.69
  C 303.05 466.62 298.21 468.34 295.29 466.24
  C 292.62 464.33 292.83 460.56 293.03 457.50
  Q 294.58 434.12 300.62 415.31
  Q 307.20 394.80 327.47 391.24
  A 1.76 1.75 -48.1 0 0 327.28 387.76
  Q 312.31 386.82 310.33 371.99
  Q 310.27 371.57 309.85 371.57
  Z
  M 345.43 371.01
  L 320.69 371.05
  A 0.11 0.11 0.0 0 0 320.58 371.16
  L 320.58 371.21
  A 11.50 8.28 -0.1 0 0 332.10 379.47
  L 334.06 379.47
  A 11.50 8.28 -0.1 0 0 345.54 371.17
  L 345.54 371.12
  A 0.11 0.11 0.0 0 0 345.43 371.01
  Z"
/>
<path fill="#7f1084" d="
  M 219.67 374.36
  C 222.30 371.07 230.45 372.68 233.92 373.99
  C 239.11 375.94 242.05 379.35 242.02 384.82
  C 241.97 395.74 229.43 398.09 221.31 398.39
  Q 220.74 398.41 220.77 398.97
  L 220.84 400.94
  Q 220.86 401.45 221.37 401.45
  C 226.30 401.48 232.79 402.65 236.31 403.53
  C 244.30 405.53 247.76 413.74 244.33 421.03
  C 240.72 428.68 229.30 430.20 221.62 429.55
  Q 221.10 429.50 221.01 430.02
  C 219.59 438.37 215.42 441.32 208.95 445.91
  C 206.99 447.30 205.06 449.72 205.30 452.31
  C 206.09 460.48 222.07 459.33 226.87 457.64
  C 232.32 455.72 232.30 448.64 228.54 445.16
  C 226.28 443.06 218.53 440.93 220.84 436.64
  C 224.09 430.62 232.32 435.33 236.20 438.58
  Q 242.28 443.67 241.85 451.76
  C 241.41 460.25 236.39 464.05 228.37 466.02
  C 219.37 468.23 200.87 467.89 196.24 457.92
  C 193.77 452.58 194.59 446.58 198.48 442.14
  C 202.45 437.61 208.86 436.13 210.89 429.75
  Q 211.09 429.14 210.44 429.16
  C 202.77 429.39 192.96 427.78 189.80 420.19
  C 186.45 412.13 190.88 405.09 199.21 402.94
  Q 205.11 401.42 210.02 401.42
  Q 210.46 401.42 210.46 400.98
  L 210.43 397.99
  Q 210.43 397.49 209.93 397.46
  C 202.63 396.95 192.38 393.47 192.32 385.01
  C 192.28 378.80 196.69 374.52 202.76 373.78
  Q 204.87 373.52 207.12 373.25
  A 2.35 2.35 0.0 0 0 209.07 370.16
  C 206.38 362.18 223.35 361.56 219.37 374.20
  Q 219.08 375.11 219.67 374.36
  Z
  M 218.86 375.50
  C 216.20 379.68 211.50 380.50 206.98 380.88
  Q 203.13 381.21 203.31 385.66
  A 1.05 1.02 21.5 0 0 203.64 386.39
  C 207.82 390.37 230.04 391.71 230.81 384.85
  Q 230.87 384.33 230.51 383.95
  C 228.35 381.62 224.55 381.06 221.55 380.71
  C 219.29 380.45 218.62 377.65 219.10 375.61
  Q 219.28 374.85 218.86 375.50
  Z
  M 211.55 420.34
  L 211.30 410.22
  A 0.55 0.55 0.0 0 0 210.74 409.69
  L 210.50 409.69
  A 11.41 5.12 -1.4 0 0 199.22 415.09
  L 199.24 416.07
  A 11.41 5.12 -1.4 0 0 210.78 420.91
  L 211.02 420.90
  A 0.55 0.55 0.0 0 0 211.55 420.34
  Z
  M 221.18 410.24
  L 221.16 420.52
  A 0.47 0.47 0.0 0 0 221.63 420.99
  L 221.75 420.99
  A 13.25 5.40 0.1 0 0 235.01 415.61
  L 235.01 415.19
  A 13.25 5.40 0.1 0 0 221.77 409.77
  L 221.65 409.77
  A 0.47 0.47 0.0 0 0 221.18 410.24
  Z"
/>
<path fill="#ffffff" d="
  M 345.43 371.01
  A 0.11 0.11 0.0 0 1 345.54 371.12
  L 345.54 371.17
  A 11.50 8.28 -0.1 0 1 334.06 379.47
  L 332.10 379.47
  A 11.50 8.28 -0.1 0 1 320.58 371.21
  L 320.58 371.16
  A 0.11 0.11 0.0 0 1 320.69 371.05
  L 345.43 371.01
  Z"
/>
<path fill="#7f1084" d="
  M 721.19 374.86
  C 728.22 379.70 727.93 399.14 718.80 401.82
  C 707.00 405.29 693.68 404.26 680.57 403.37
  C 674.69 402.97 671.58 400.14 669.65 394.60
  C 667.40 388.17 667.96 377.70 674.97 374.28
  Q 677.22 373.18 682.60 372.66
  Q 698.83 371.09 715.03 372.99
  Q 719.18 373.48 721.19 374.86
  Z
  M 715.63 383.57
  C 715.07 381.45 715.03 380.28 712.51 379.92
  Q 695.19 377.47 680.79 381.03
  Q 679.17 381.43 678.86 383.88
  Q 678.81 384.31 679.25 384.31
  L 715.06 384.32
  Q 715.83 384.32 715.63 383.57
  Z
  M 715.30 391.71
  L 679.36 391.71
  A 0.14 0.14 0.0 0 0 679.22 391.85
  L 679.22 391.86
  A 11.89 4.65 0.0 0 0 691.11 396.51
  L 703.55 396.51
  A 11.89 4.65 -0.0 0 0 715.44 391.86
  L 715.44 391.85
  A 0.14 0.14 0.0 0 0 715.30 391.71
  Z"
/>
<path fill="#ffffff" d="
  M 206.98 380.88
  C 211.50 380.50 216.20 379.68 218.86 375.50
  Q 219.28 374.85 219.10 375.61
  C 218.62 377.65 219.29 380.45 221.55 380.71
  C 224.55 381.06 228.35 381.62 230.51 383.95
  Q 230.87 384.33 230.81 384.85
  C 230.04 391.71 207.82 390.37 203.64 386.39
  A 1.05 1.02 21.5 0 1 203.31 385.66
  Q 203.13 381.21 206.98 380.88
  Z"
/>
<path fill="#ffffff" d="
  M 444.46 376.92
  Q 446.16 376.22 450.75 375.90
  Q 470.48 374.53 490.19 376.67
  Q 490.83 376.74 490.90 377.38
  L 491.12 379.48
  Q 491.18 380.01 490.65 380.01
  L 443.64 380.43
  Q 443.36 380.43 443.26 380.16
  Q 442.36 377.77 444.46 376.92
  Z"
/>
<path fill="#ffffff" d="
  M 715.63 383.57
  Q 715.83 384.32 715.06 384.32
  L 679.25 384.31
  Q 678.81 384.31 678.86 383.88
  Q 679.17 381.43 680.79 381.03
  Q 695.19 377.47 712.51 379.92
  C 715.03 380.28 715.07 381.45 715.63 383.57
  Z"
/>
<path fill="#ffffff" d="
  M 35.03 387.54
  C 50.88 384.75 66.99 386.19 83.19 386.53
  A 2.51 2.49 89.3 0 1 85.64 388.93
  L 86.17 401.94
  Q 86.18 402.31 85.81 402.31
  L 33.99 402.28
  Q 33.45 402.28 33.47 401.74
  L 33.76 389.01
  A 1.54 1.53 -4.4 0 1 35.03 387.54
  Z"
/>
<path fill="#ffffff" d="
  M 443.30 388.73
  C 459.41 387.60 473.88 387.66 490.83 388.40
  Q 491.38 388.42 491.39 388.98
  L 491.44 391.73
  A 0.42 0.41 -0.7 0 1 491.02 392.15
  L 443.26 392.43
  Q 442.77 392.44 442.77 391.94
  L 442.78 389.30
  Q 442.78 388.77 443.30 388.73
  Z"
/>
<path fill="#ffffff" d="
  M 845.6765 398.0348
  A 0.27 0.27 0.0 0 1 845.4019 398.3001
  L 840.7226 398.2184
  A 0.27 0.27 0.0 0 1 840.4573 397.9437
  L 840.6235 388.4252
  A 0.27 0.27 0.0 0 1 840.8981 388.1599
  L 845.5774 388.2416
  A 0.27 0.27 0.0 0 1 845.8427 388.5163
  L 845.6765 398.0348
  Z"
/>
<path fill="#ffffff" d="
  M 715.30 391.71
  A 0.14 0.14 0.0 0 1 715.44 391.85
  L 715.44 391.86
  A 11.89 4.65 -0.0 0 1 703.55 396.51
  L 691.11 396.51
  A 11.89 4.65 -0.0 0 1 679.22 391.86
  L 679.22 391.85
  A 0.14 0.14 0.0 0 1 679.36 391.71
  L 715.30 391.71
  Z"
/>
<path fill="#7f1084" d="
  M 797.13 405.64
  Q 790.11 411.64 788.39 413.90
  C 786.38 416.55 784.33 419.12 780.78 418.67
  Q 778.21 418.34 777.41 415.89
  C 776.53 413.17 778.34 411.05 780.10 409.10
  C 784.48 404.23 799.57 389.02 806.33 396.62
  Q 807.45 397.89 807.42 400.20
  Q 806.94 434.68 789.68 464.44
  Q 787.31 468.54 782.98 467.31
  C 779.15 466.21 779.95 461.10 781.56 458.03
  C 789.48 442.93 797.19 423.40 797.65 405.88
  Q 797.67 405.18 797.13 405.64
  Z"
/>
<path fill="#ffffff" d="
  M 489.71 400.17
  A 0.01 0.01 0.0 0 1 489.72 400.18
  L 489.72 400.23
  A 16.85 5.40 0.4 0 1 472.83 405.51
  L 461.21 405.43
  A 16.85 5.40 0.4 0 1 444.40 399.91
  L 444.40 399.86
  A 0.01 0.01 0.0 0 1 444.41 399.85
  L 489.71 400.17
  Z"
/>
<path fill="#7f1084" d="
  M 694.70 441.00
  Q 681.71 439.90 669.79 434.73
  C 666.82 433.45 661.30 429.59 665.49 426.21
  Q 668.93 423.44 673.02 425.73
  Q 683.75 431.75 695.11 432.41
  Q 695.64 432.44 695.71 431.91
  C 696.59 425.20 700.44 424.33 705.57 421.30
  C 708.47 419.59 709.04 416.20 705.42 414.96
  C 702.66 414.02 687.01 411.53 688.08 417.54
  C 689.06 423.03 697.91 420.00 695.72 425.66
  C 694.19 429.59 687.89 428.39 684.37 427.04
  Q 679.76 425.27 678.23 421.11
  C 675.09 412.54 683.23 407.21 690.38 406.04
  C 697.54 404.87 710.15 405.14 715.52 409.91
  C 718.78 412.81 720.19 417.18 718.30 421.20
  C 716.44 425.12 712.58 426.94 708.58 428.78
  Q 706.74 429.62 706.33 431.83
  Q 706.23 432.33 706.75 432.28
  Q 717.43 431.20 727.27 427.26
  C 731.23 425.67 734.91 426.27 735.73 430.88
  A 1.15 1.13 60.3 0 1 735.49 431.80
  C 730.43 437.97 713.49 440.17 705.98 440.46
  A 0.61 0.59 -88.9 0 0 705.41 441.02
  C 704.57 452.71 700.55 464.97 688.67 468.65
  C 685.09 469.75 680.68 465.91 682.84 462.34
  Q 683.45 461.35 686.13 459.73
  C 692.82 455.70 693.78 448.30 695.19 441.67
  Q 695.32 441.06 694.70 441.00
  Z"
/>
<path fill="#ffffff" d="
  M 211.55 420.34
  A 0.55 0.55 0.0 0 1 211.02 420.90
  L 210.78 420.91
  A 11.41 5.12 -1.4 0 1 199.24 416.07
  L 199.22 415.09
  A 11.41 5.12 -1.4 0 1 210.50 409.69
  L 210.74 409.69
  A 0.55 0.55 0.0 0 1 211.30 410.22
  L 211.55 420.34
  Z"
/>
<path fill="#ffffff" d="
  M 221.18 410.24
  A 0.47 0.47 0.0 0 1 221.65 409.77
  L 221.77 409.77
  A 13.25 5.40 0.1 0 1 235.01 415.19
  L 235.01 415.61
  A 13.25 5.40 0.1 0 1 221.75 420.99
  L 221.63 420.99
  A 0.47 0.47 0.0 0 1 221.16 420.52
  L 221.18 410.24
  Z"
/>
<path fill="#7f1084" d="
  M 839.41 419.77
  C 840.87 420.89 841.55 422.00 841.47 423.97
  Q 840.91 437.05 841.24 440.76
  C 842.20 451.45 858.52 459.76 867.56 462.93
  Q 869.81 463.72 870.62 464.60
  C 872.63 466.77 871.45 469.75 868.95 470.92
  C 862.79 473.80 849.64 465.28 844.58 461.60
  C 838.12 456.89 834.19 451.70 831.99 444.31
  C 830.25 438.42 830.83 430.50 830.54 423.74
  Q 830.45 421.84 832.66 419.99
  Q 833.28 419.48 832.47 419.51
  Q 825.70 419.84 819.00 420.17
  Q 816.24 420.31 815.08 419.87
  C 811.38 418.45 811.49 413.18 815.76 412.30
  Q 818.48 411.75 821.25 411.65
  Q 851.83 410.52 872.68 411.81
  C 877.17 412.09 877.34 419.89 871.75 419.75
  Q 847.71 419.16 839.61 419.19
  Q 838.68 419.20 839.41 419.77
  Z"
/>
<path fill="#ffffff" d="
  M 86.21 426.66
  L 33.39 426.17
  A 0.31 0.31 0.0 0 1 33.08 425.86
  L 33.22 412.04
  A 0.31 0.31 0.0 0 1 33.53 411.73
  L 86.05 411.70
  A 0.31 0.31 0.0 0 1 86.36 412.01
  L 86.53 426.34
  A 0.31 0.31 0.0 0 1 86.21 426.66
  Z"
/>
<path fill="#7f1084" d="
  M 479.52 413.65
  Q 484.00 413.08 486.36 415.19
  A 1.26 1.24 -71.3 0 1 486.76 416.01
  Q 487.74 428.22 484.30 436.72
  C 483.17 439.52 477.05 440.11 475.41 437.20
  Q 474.61 435.78 475.15 432.75
  Q 476.55 424.91 476.47 416.94
  A 1.60 1.54 -27.7 0 1 476.78 416.01
  Q 477.84 414.60 479.52 413.65
  Z"
/>
<path fill="#7f1084" d="
  M 438.08 439.54
  C 436.65 443.35 429.14 444.02 427.99 439.63
  Q 427.64 438.32 428.37 434.93
  Q 429.87 427.91 429.82 420.72
  Q 429.80 417.73 430.90 416.36
  C 433.56 413.03 440.71 412.91 440.98 418.72
  Q 441.54 430.29 438.08 439.54
  Z"
/>
<path fill="#7f1084" d="
  M 477.70 463.33
  C 464.27 458.30 452.57 449.51 451.53 434.51
  Q 451.32 431.45 451.21 421.62
  Q 451.17 417.57 452.27 416.01
  C 454.55 412.80 462.19 413.39 462.22 418.79
  Q 462.26 425.89 462.21 433.00
  C 462.06 454.72 495.43 459.66 511.83 462.56
  C 516.53 463.39 515.70 470.58 510.49 471.47
  Q 507.83 471.93 500.78 470.40
  Q 490.85 468.25 477.70 463.33
  Z"
/>
<path fill="#7f1084" d="
  M 497.47 416.47
  C 500.17 413.20 506.91 413.96 506.96 419.56
  Q 507.01 426.23 505.38 434.12
  C 504.53 438.30 501.14 441.95 496.64 439.31
  C 494.03 437.78 494.65 435.47 495.35 433.02
  Q 496.36 429.49 496.32 420.70
  Q 496.30 417.90 497.47 416.47
  Z"
/>
<path fill="#ffffff" d="
  M 932.34 419.68
  L 941.03 418.69
  A 0.31 0.31 0.0 0 1 941.37 419.00
  L 941.38 422.19
  A 0.31 0.31 0.0 0 1 941.07 422.50
  L 931.90 422.50
  A 0.31 0.31 0.0 0 1 931.59 422.12
  L 932.07 419.93
  A 0.31 0.31 0.0 0 1 932.34 419.68
  Z"
/>
<path fill="#ffffff" d="
  M 951.26 419.23
  A 0.27 0.27 0.0 0 1 951.54 418.97
  L 953.78 419.02
  A 6.13 0.80 1.3 0 1 959.89 419.96
  L 959.85 421.42
  A 6.13 0.80 1.3 0 1 953.71 422.08
  L 951.47 422.03
  A 0.27 0.27 0.0 0 1 951.20 421.75
  L 951.26 419.23
  Z"
/>
<path fill="#7f1084" d="
  M 855.97 424.82
  C 856.10 429.75 855.38 443.63 847.70 441.84
  C 843.05 440.76 845.37 436.44 845.69 433.79
  Q 846.16 429.94 846.26 426.05
  C 846.38 421.62 848.12 419.71 852.66 420.66
  C 855.06 421.17 855.90 422.32 855.97 424.82
  Z"
/>
<path fill="#7f1084" d="
  M 870.05 426.67
  C 869.93 430.26 868.37 440.04 864.41 441.96
  C 861.31 443.47 857.38 441.69 858.54 437.61
  Q 860.02 432.42 860.33 424.24
  C 860.46 420.77 866.63 420.28 868.63 422.15
  Q 870.16 423.57 870.05 426.67
  Z"
/>
<path fill="#7f1084" d="
  M 826.33 426.43
  C 826.62 431.72 825.00 447.11 816.10 443.91
  C 814.56 443.36 813.56 441.82 814.06 440.26
  Q 816.13 433.75 816.25 427.79
  Q 816.31 425.12 817.40 424.02
  C 819.84 421.57 826.08 421.83 826.33 426.43
  Z"
/>
<path fill="#ffffff" d="
  M 957.26 432.75
  L 952.12 433.80
  A 0.61 0.61 0.0 0 1 951.38 433.22
  L 951.27 430.14
  A 0.61 0.61 0.0 0 1 951.88 429.51
  L 959.06 429.52
  A 0.61 0.61 0.0 0 1 959.50 430.55
  L 957.58 432.57
  A 0.61 0.61 0.0 0 1 957.26 432.75
  Z"
/>
<path fill="#ffffff" d="
  M 933.13 430.02
  L 940.60 430.01
  A 0.78 0.78 0.0 0 1 941.38 430.81
  L 941.33 433.00
  A 0.78 0.78 0.0 0 1 940.42 433.75
  L 935.45 432.92
  A 0.78 0.78 0.0 0 1 935.20 432.84
  L 932.76 431.48
  A 0.78 0.78 0.0 0 1 933.13 430.02
  Z"
/>
<path fill="#ffffff" d="
  M 39.59 453.92
  C 34.75 450.15 33.72 442.38 33.46 436.77
  Q 33.44 436.21 33.99 436.21
  L 85.48 436.20
  Q 85.96 436.20 85.94 436.68
  Q 85.61 444.10 82.96 449.75
  C 80.01 456.06 74.61 457.10 67.62 457.90
  C 60.33 458.73 45.70 458.68 39.59 453.92
  Z"
/>
</svg>
